<?xml version="1.0" encoding="utf-8"?>
<!-- Generator: Adobe Illustrator 24.0.3, SVG Export Plug-In . SVG Version: 6.00 Build 0)  -->
<svg version="1.1" id="Capa_1" xmlns="http://www.w3.org/2000/svg" xmlns:xlink="http://www.w3.org/1999/xlink" x="0px" y="0px"
	 viewBox="0 0 122.55 109.97" style="enable-background:new 0 0 122.55 109.97;" xml:space="preserve">
<style type="text/css">
	.st0{clip-path:url(#SVGID_2_);fill:#FFFFFF;}
	.st1{fill:#FFFFFF;}
	.st2{clip-path:url(#SVGID_4_);fill:#FFFFFF;}
	.st3{clip-path:url(#SVGID_6_);fill:#FFFFFF;}
	.st4{clip-path:url(#SVGID_8_);fill:#FFFFFF;}
	.st5{clip-path:url(#SVGID_10_);fill:#FFFFFF;}
	.st6{clip-path:url(#SVGID_12_);fill:#FFFFFF;}
	.st7{fill:#7DAC37;}
	.st8{fill:#D7D2E6;}
	.st9{fill:#21315C;}
	.st10{fill:#299A85;}
	.st11{clip-path:url(#SVGID_14_);fill:#21315C;}
	.st12{clip-path:url(#SVGID_16_);fill:#21315C;}
	.st13{clip-path:url(#SVGID_18_);fill:#21315C;}
	.st14{clip-path:url(#SVGID_20_);fill:#FFFFFF;}
	.st15{clip-path:url(#SVGID_22_);fill:#299A85;}
	.st16{fill:#727574;}
	.st17{fill:#CF6A34;}
	.st18{fill:#707070;}
	.st19{clip-path:url(#SVGID_24_);fill:#236FB2;}
	.st20{fill:#9E142E;}
	.st21{fill:none;stroke:#861833;stroke-width:3.021;}
	.st22{clip-path:url(#SVGID_26_);fill:#FFFFFF;}
	.st23{clip-path:url(#SVGID_26_);fill:none;stroke:#861833;stroke-width:3.021;}
	.st24{clip-path:url(#SVGID_28_);}
	.st25{clip-path:url(#SVGID_30_);}
	.st26{clip-path:url(#SVGID_30_);fill:#9E1332;}
	.st27{fill:#9E1332;}
</style>
<g>
	<path class="st20" d="M8.02,49.73l18.32-29.3c0.22-0.35,0.56-0.62,0.95-0.75L60.71,8.54c0.37-0.12,0.77-0.12,1.14,0l22.03,7.34
		c0.94,0.31,1.45,1.33,1.14,2.27c-0.31,0.94-1.33,1.45-2.27,1.14l-21.47-7.15L29.04,22.88L10.99,51.75v54.63h24.45V69.91h-2.21
		c-0.99,0-1.79-0.8-1.79-1.79V60.1c0-0.99,0.8-1.79,1.79-1.79h56.08c0.99,0,1.8,0.8,1.8,1.79v8.01c0,0.99-0.8,1.79-1.8,1.79h-2.21
		v36.47h24.45V51.75L93.51,22.88l-3.41-1.14c-0.94-0.31-1.45-1.33-1.14-2.27c0.31-0.94,1.33-1.45,2.27-1.14l4.03,1.34
		c0.4,0.13,0.73,0.4,0.96,0.75l18.32,29.3l3.75-2.34l-19.5-31.2L61.27,3.69l-37.51,12.5l-19.5,31.2L8.02,49.73z M37.25,66.32h50.27
		v-4.42H35.03v4.42H37.25L37.25,66.32z M39.03,104.34l19.44-16.2l-7.96-6.63c-0.76-0.63-0.86-1.77-0.23-2.53
		c0.64-0.76,1.77-0.86,2.53-0.23l8.47,7.06l19.08-15.9H42.2l4.2,3.5c0.76,0.63,0.87,1.77,0.23,2.53c-0.36,0.43-0.87,0.65-1.38,0.65
		c-0.4,0-0.81-0.14-1.15-0.42l-5.07-4.22V104.34z M83.51,104.34V71.94l-19.44,16.2L83.51,104.34z M80.35,106.37l-19.08-15.9
		l-19.08,15.9H80.35z M0.27,47.01l20.79-33.27c0.22-0.35,0.56-0.62,0.95-0.75l38.69-12.9c0.37-0.12,0.77-0.12,1.14,0l38.69,12.9
		c0.39,0.13,0.73,0.4,0.95,0.75l20.79,33.27c0.53,0.84,0.27,1.95-0.57,2.47l-6.56,4.1v52.79h2.21c0.99,0,1.79,0.8,1.79,1.8
		c0,0.99-0.8,1.8-1.79,1.8H5.19c-0.99,0-1.8-0.8-1.8-1.8c0-0.99,0.8-1.8,1.8-1.8H7.4V53.58l-6.56-4.1C0,48.96-0.25,47.85,0.27,47.01
		"/>
	<path class="st20" d="M49.05,48.29h10.43V34.06c0-0.99,0.8-1.8,1.8-1.8c0.99,0,1.79,0.8,1.79,1.8v14.23H73.5V27.84H49.05V48.29z
		 M47.25,24.25H75.3c0.99,0,1.79,0.8,1.79,1.8v24.04c0,0.99-0.8,1.79-1.79,1.79H47.25c-0.99,0-1.8-0.8-1.8-1.79V26.05
		C45.46,25.06,46.26,24.25,47.25,24.25"/>
</g>
</svg>
