<?xml version="1.0" encoding="utf-8"?>
<!-- Generator: Adobe Illustrator 24.0.3, SVG Export Plug-In . SVG Version: 6.00 Build 0)  -->
<svg version="1.1" id="Capa_1" xmlns="http://www.w3.org/2000/svg" xmlns:xlink="http://www.w3.org/1999/xlink" x="0px" y="0px"
	 viewBox="0 0 118.8 108.89" style="enable-background:new 0 0 118.8 108.89;" xml:space="preserve">
<style type="text/css">
	.st0{clip-path:url(#SVGID_2_);fill:#FFFFFF;}
	.st1{fill:#FFFFFF;}
	.st2{clip-path:url(#SVGID_4_);fill:#FFFFFF;}
	.st3{clip-path:url(#SVGID_6_);fill:#FFFFFF;}
	.st4{clip-path:url(#SVGID_8_);fill:#FFFFFF;}
	.st5{clip-path:url(#SVGID_10_);fill:#FFFFFF;}
	.st6{clip-path:url(#SVGID_12_);fill:#FFFFFF;}
	.st7{fill:#7DAC37;}
	.st8{fill:#D7D2E6;}
	.st9{fill:#21315C;}
	.st10{fill:#299A85;}
	.st11{clip-path:url(#SVGID_14_);fill:#21315C;}
	.st12{clip-path:url(#SVGID_16_);fill:#21315C;}
	.st13{clip-path:url(#SVGID_18_);fill:#21315C;}
	.st14{clip-path:url(#SVGID_20_);fill:#FFFFFF;}
	.st15{clip-path:url(#SVGID_22_);fill:#299A85;}
	.st16{fill:#727574;}
	.st17{fill:#CF6A34;}
	.st18{fill:#707070;}
	.st19{clip-path:url(#SVGID_24_);fill:#236FB2;}
	.st20{fill:#9E142E;}
	.st21{fill:none;stroke:#861833;stroke-width:3.021;}
	.st22{clip-path:url(#SVGID_26_);fill:#FFFFFF;}
	.st23{clip-path:url(#SVGID_26_);fill:none;stroke:#861833;stroke-width:3.021;}
	.st24{clip-path:url(#SVGID_28_);}
	.st25{clip-path:url(#SVGID_30_);}
	.st26{clip-path:url(#SVGID_30_);fill:#9E1332;}
	.st27{fill:#9E1332;}
</style>
<g>
	<path class="st20" d="M54.45,108.89C24.43,108.89,0,84.47,0,54.45C0,24.43,24.43,0,54.45,0c10.44,0,20.6,2.97,29.37,8.61
		c1.72,1.11,2.23,3.41,1.12,5.13c-1.11,1.73-3.4,2.23-5.13,1.12c-7.57-4.87-16.34-7.43-25.36-7.43c-25.93,0-47.02,21.1-47.02,47.02
		c0,25.93,21.1,47.02,47.02,47.02s47.02-21.1,47.02-47.02c0-1.55-0.07-3.08-0.22-4.59c-0.2-2.04,1.3-3.86,3.34-4.05
		c2.05-0.19,3.86,1.3,4.05,3.34c0.17,1.75,0.25,3.52,0.25,5.31C108.89,84.47,84.47,108.89,54.45,108.89"/>
	<path class="st20" d="M60.63,66.82c-0.95,0-1.9-0.36-2.62-1.09L35.74,43.46c-1.45-1.45-1.45-3.8,0-5.25c1.45-1.45,3.8-1.45,5.25,0
		l19.65,19.65l51.82-51.82c1.45-1.45,3.8-1.45,5.25,0c1.45,1.45,1.45,3.8,0,5.25L63.26,65.74C62.53,66.46,61.58,66.82,60.63,66.82"
		/>
</g>
</svg>
