<?xml version="1.0" encoding="utf-8"?>
<!-- Generator: Adobe Illustrator 24.0.3, SVG Export Plug-In . SVG Version: 6.00 Build 0)  -->
<svg version="1.1" id="Capa_1" xmlns="http://www.w3.org/2000/svg" xmlns:xlink="http://www.w3.org/1999/xlink" x="0px" y="0px"
	 viewBox="0 0 89 123.92" style="enable-background:new 0 0 89 123.92;" xml:space="preserve">
<style type="text/css">
	.st0{clip-path:url(#SVGID_2_);fill:#FFFFFF;}
	.st1{fill:#FFFFFF;}
	.st2{clip-path:url(#SVGID_4_);fill:#FFFFFF;}
	.st3{clip-path:url(#SVGID_6_);fill:#FFFFFF;}
	.st4{clip-path:url(#SVGID_8_);fill:#FFFFFF;}
	.st5{clip-path:url(#SVGID_10_);fill:#FFFFFF;}
	.st6{clip-path:url(#SVGID_12_);fill:#FFFFFF;}
	.st7{fill:#7DAC37;}
	.st8{fill:#D7D2E6;}
	.st9{fill:#21315C;}
	.st10{fill:#299A85;}
	.st11{clip-path:url(#SVGID_14_);fill:#21315C;}
	.st12{clip-path:url(#SVGID_16_);fill:#21315C;}
	.st13{clip-path:url(#SVGID_18_);fill:#21315C;}
	.st14{clip-path:url(#SVGID_20_);fill:#FFFFFF;}
	.st15{clip-path:url(#SVGID_22_);fill:#299A85;}
	.st16{fill:#727574;}
	.st17{fill:#CF6A34;}
	.st18{fill:#707070;}
	.st19{clip-path:url(#SVGID_24_);fill:#236FB2;}
	.st20{fill:#9E142E;}
	.st21{fill:none;stroke:#861833;stroke-width:3.021;}
	.st22{clip-path:url(#SVGID_26_);fill:#FFFFFF;}
	.st23{clip-path:url(#SVGID_26_);fill:none;stroke:#861833;stroke-width:3.021;}
	.st24{clip-path:url(#SVGID_28_);}
	.st25{clip-path:url(#SVGID_30_);}
	.st26{clip-path:url(#SVGID_30_);fill:#9E1332;}
	.st27{fill:#9E1332;}
</style>
<g>
	<path class="st20" d="M55.37,60.46l11.28-11.28c0.71-0.71,1.86-0.71,2.57,0c0.71,0.71,0.71,1.86,0,2.57L57.94,63.03
		c6.66,0.42,13.51-2.19,18.54-7.21c5.6-5.6,8.2-13.49,6.94-20.84c-7.35-1.26-15.23,1.34-20.83,6.94
		C57.56,46.95,54.95,53.81,55.37,60.46 M57.63,9.12c0.71-0.71,1.86-0.71,2.57,0s0.71,1.86,0,2.57l-4.81,4.81
		c2.35-0.41,4.61-1.56,6.4-3.35c2.56-2.56,3.83-6.09,3.46-9.46c-3.36-0.37-6.9,0.9-9.46,3.46c-2.01,2.01-3.22,4.62-3.47,7.28
		L57.63,9.12z M30.15,29.32c-3.56-3.56-8.52-5.27-13.2-4.61c-0.66,4.67,1.05,9.64,4.61,13.19c2.94,2.94,6.85,4.62,10.76,4.74
		l-4.62-4.62c-0.71-0.71-0.71-1.86,0-2.57c0.71-0.71,1.86-0.71,2.57,0l4.62,4.62C34.77,36.17,33.09,32.26,30.15,29.32 M1.82,120.29
		h4.36c3.6-7.11,10.9-11.64,18.92-11.64c0.77,0,1.59,0.05,2.47,0.16c0.76-0.61,1.56-1.19,2.38-1.71c0.84-0.54,1.97-0.3,2.51,0.55
		c0.54,0.84,0.3,1.97-0.55,2.51c-0.91,0.58-1.79,1.24-2.61,1.95c-0.4,0.35-0.94,0.5-1.46,0.42c-1.01-0.16-1.9-0.24-2.73-0.24
		c-6.01,0-11.53,3.07-14.74,8.01h68.29c-3.21-4.94-8.73-8.01-14.74-8.01c-0.82,0-1.72,0.08-2.73,0.24
		c-0.53,0.08-1.06-0.07-1.46-0.42c-4.24-3.64-9.65-5.64-15.21-5.64c-2.07,0-4.12,0.27-6.1,0.81c-0.97,0.26-1.97-0.31-2.23-1.28
		c-0.26-0.97,0.31-1.96,1.28-2.23c1.71-0.46,3.46-0.75,5.23-0.87v-44.2c0-3.66-1.42-7.1-4.01-9.69l-2.97-2.97
		c-0.97,0.16-1.95,0.24-2.94,0.24c-5.01,0-10.04-2.07-13.77-5.81c-4.73-4.73-6.78-11.52-5.36-17.72c0.15-0.68,0.68-1.21,1.36-1.36
		c6.2-1.42,12.99,0.64,17.72,5.36c4.47,4.47,6.55,10.8,5.56,16.72l2.97,2.97c0.52,0.52,1,1.07,1.44,1.64V32.86
		c0-5.65,2.19-10.95,6.17-14.96c-0.83-4.71,0.81-9.76,4.37-13.32c3.73-3.73,9.1-5.35,14-4.23c0.68,0.15,1.21,0.69,1.37,1.36
		c1.12,4.9-0.5,10.27-4.23,14c-2.95,2.95-6.92,4.58-10.88,4.58c-0.59,0-1.19-0.04-1.78-0.11l-0.24,0.24
		c-3.32,3.32-5.15,7.74-5.15,12.44v25.84v11.84c1.03-1.7,2.28-3.29,3.72-4.73l2.09-2.09c-1.6-8.59,1.37-17.84,7.89-24.35
		c6.77-6.77,16.48-9.71,25.35-7.68c0.68,0.15,1.21,0.69,1.36,1.36c2.03,8.87-0.92,18.58-7.68,25.35
		c-5.35,5.35-12.55,8.32-19.71,8.32c-1.55,0-3.11-0.14-4.64-0.43l-2.09,2.09c-4.05,4.06-6.29,9.45-6.29,15.18v19.35
		c5.51,0.37,10.8,2.43,15.12,5.92c0.88-0.11,1.69-0.16,2.47-0.16c8.03,0,15.33,4.53,18.92,11.64h4.36c1,0,1.81,0.81,1.81,1.82
		c0,1-0.81,1.82-1.81,1.82H1.81c-1,0-1.81-0.81-1.81-1.82C0,121.1,0.81,120.29,1.82,120.29"/>
</g>
</svg>
