<?xml version="1.0" encoding="utf-8"?>
<!-- Generator: Adobe Illustrator 24.0.3, SVG Export Plug-In . SVG Version: 6.00 Build 0)  -->
<svg version="1.1" id="Capa_1" xmlns="http://www.w3.org/2000/svg" xmlns:xlink="http://www.w3.org/1999/xlink" x="0px" y="0px"
	 viewBox="0 0 148.77 108.89" style="enable-background:new 0 0 148.77 108.89;" xml:space="preserve">
<style type="text/css">
	.st0{clip-path:url(#SVGID_2_);fill:#FFFFFF;}
	.st1{fill:#FFFFFF;}
	.st2{clip-path:url(#SVGID_4_);fill:#FFFFFF;}
	.st3{clip-path:url(#SVGID_6_);fill:#FFFFFF;}
	.st4{clip-path:url(#SVGID_8_);fill:#FFFFFF;}
	.st5{clip-path:url(#SVGID_10_);fill:#FFFFFF;}
	.st6{clip-path:url(#SVGID_12_);fill:#FFFFFF;}
	.st7{fill:#7DAC37;}
	.st8{fill:#D7D2E6;}
	.st9{fill:#21315C;}
	.st10{fill:#299A85;}
	.st11{clip-path:url(#SVGID_14_);fill:#21315C;}
	.st12{clip-path:url(#SVGID_16_);fill:#21315C;}
	.st13{clip-path:url(#SVGID_18_);fill:#21315C;}
	.st14{clip-path:url(#SVGID_20_);fill:#FFFFFF;}
	.st15{clip-path:url(#SVGID_22_);fill:#299A85;}
	.st16{fill:#727574;}
	.st17{fill:#CF6A34;}
	.st18{fill:#707070;}
	.st19{clip-path:url(#SVGID_24_);fill:#236FB2;}
	.st20{fill:#9E142E;}
	.st21{fill:none;stroke:#861833;stroke-width:3.021;}
	.st22{clip-path:url(#SVGID_26_);fill:#FFFFFF;}
	.st23{clip-path:url(#SVGID_26_);fill:none;stroke:#861833;stroke-width:3.021;}
	.st24{clip-path:url(#SVGID_28_);}
	.st25{clip-path:url(#SVGID_30_);}
	.st26{clip-path:url(#SVGID_30_);fill:#9E1332;}
	.st27{fill:#9E1332;}
</style>
<g>
	<path class="st20" d="M20.08,52.18h13.86l5.8-9.9c0.42-0.71,1.13-1.13,1.98-1.13c0.85,0,1.56,0.28,1.98,0.99l4.81,7.07l7.78-25.31
		c0.28-0.99,1.27-1.56,2.26-1.7c0.99,0,1.98,0.71,2.26,1.7l13.15,45.4l14.28-36.49c0.28-0.85,1.13-1.41,1.98-1.41
		c0.99,0,1.7,0.42,2.12,1.27l11.17,21.92h22.49c5.66-10.32,7.21-20.22,4.67-29.13c-2.97-10.04-12.73-20.79-27.44-20.79
		c-3.96,0-8.06,0.85-12.16,2.26c-10.32,3.82-15.84,8.2-15.98,8.2c-0.85,0.71-1.98,0.71-2.83,0c0,0-5.52-4.38-15.98-8.2
		c-4.1-1.56-8.2-2.26-12.16-2.26c-14.57,0-24.47,10.75-27.44,20.79C14.28,33.66,15.56,42.71,20.08,52.18 M25.17,60.53
		c14.99,21.92,42.57,39.6,48.51,43.42c6.08-3.82,33.52-21.64,48.65-43.42c0.28-0.42,0.57-0.85,0.85-1.27h-20.79
		c-0.85,0-1.7-0.42-2.12-1.27l-9.47-18.67L75.94,77.36c-0.28,0.85-1.27,1.41-2.12,1.41h-0.14c-0.99,0-1.84-0.71-2.12-1.7
		L58.55,32.53l-6.93,22.49c-0.28,0.85-0.99,1.41-1.84,1.56c-0.85,0.14-1.7-0.28-2.26-0.99L42,47.52l-4.67,7.92
		c-0.42,0.71-1.13,1.13-1.98,1.13H22.63C23.48,57.98,24.32,59.26,25.17,60.53 M2.55,52.18h12.59c-5.23-11.88-4.67-21.5-2.69-28
		C15.84,12.59,27.3,0,44.26,0c4.53,0,9.05,0.85,13.72,2.54c8.06,2.97,13.43,6.22,15.84,7.92c2.4-1.7,7.64-4.95,15.84-7.92
		C94.33,0.85,98.99,0,103.38,0c16.97,0,28.43,12.59,31.82,24.18c1.98,6.93,2.69,17.39-3.96,30.55h15.27c1.27,0,2.26,0.99,2.26,2.26
		c0,1.27-0.99,2.26-2.26,2.26h-17.96c-0.71,1.27-1.56,2.55-2.54,3.82c-14.71,21.21-46.67,44.26-52.47,45.68v0.14
		c0,0-0.14,0-0.28-0.14h-0.42v-0.14c-4.95-2.4-35.64-22.2-51.76-45.68c-1.55-2.12-2.83-4.24-3.96-6.36H2.26
		C0.99,56.57,0,55.58,0,54.31C0,53.03,1.27,52.18,2.55,52.18"/>
</g>
</svg>
