<?xml version="1.0" encoding="utf-8"?>
<!-- Generator: Adobe Illustrator 24.0.3, SVG Export Plug-In . SVG Version: 6.00 Build 0)  -->
<svg version="1.1" id="Capa_1" xmlns="http://www.w3.org/2000/svg" xmlns:xlink="http://www.w3.org/1999/xlink" x="0px" y="0px"
	 viewBox="0 0 988.3 1093.8" style="enable-background:new 0 0 988.3 1093.8;" xml:space="preserve">
<style type="text/css">
	.st0{opacity:0.5;}
	.st1{fill:#212121;}
	.st2{opacity:0.5;}
	.st3{fill:#C42B49;}
</style>
<g>
	<g>
		<g class="st2">
			<g>
				<path class="st3" d="M455.3,4.5c-136.4,32-207.4,95.8-306,218.1C-5.9,415.3-42.1,635.3,50.1,826.2
					c75,155.4,228.5,267.6,365.6,267.6h1.9c75.9-0.6,138.3-35.6,179.1-99.4c20.5,34.5,57.3,64.9,113.5,71.3c6.1,0.6,12.2,1,18.4,1
					c75.7,0,154.6-51.3,200.7-132.4c62.1-109,76.1-252.3,37.5-383c-35.7-120.9-113.6-217.8-219.4-272.8l-0.5-0.3
					c-80.7-38.2-148.9-57.3-204.1-57.3c-39.8,0-72.8,10-98.8,30c-15.1,11.6-17.2,25.7-16.2,35.5c4.2,42.7,76.9,89.4,113.9,107.7
					C739.5,509.8,844,717.2,790.3,887.7c-11.4,40.5-35.8,68.1-65.5,73.9c-3.9,0.8-7.7,1.1-11.5,1.1c-18.6,0-36.1-9.1-49.3-25.9
					c-11.7-15-19.9-26.6-25.6-34.8C684.8,763.5,654,664.4,604.5,615c-24.3-24.3-54.1-37.3-82.3-37.3c-12.5,0-24.7,2.5-35.9,7.8
					c-42.8,19.9-63.9,72.2-57.9,143.2v0.1c5.6,63.1,3,146.6-21.5,192c-10.9,20.2-24.8,30-42.3,30c-0.7,0-1.3,0-2,0
					c-40.2-1.8-93.1-54.2-120.6-119.1c-73.8-176.5-39.5-317-12.6-385.1c68.8-173.2,145-253.8,245.7-327.7c5.4-3.9,13.2-8.3,21.4-13
					c28.8-16.4,64.6-36.8,61.2-70.8c-0.9-9.3-5.7-17.2-13.8-23.1C531.5,2.9,513,0,495.3,0C479.8,0,464.9,2.2,455.3,4.5"/>
			</g>
		</g>
	</g>
</g>
</svg>
