<?xml version="1.0" encoding="utf-8"?>
<!-- Generator: Adobe Illustrator 24.0.3, SVG Export Plug-In . SVG Version: 6.00 Build 0)  -->
<svg version="1.1" id="Capa_1" xmlns="http://www.w3.org/2000/svg" xmlns:xlink="http://www.w3.org/1999/xlink" x="0px" y="0px"
	 viewBox="0 0 72.57 111.22" style="enable-background:new 0 0 72.57 111.22;" xml:space="preserve">
<style type="text/css">
	.st0{clip-path:url(#SVGID_2_);fill:#FFFFFF;}
	.st1{fill:#FFFFFF;}
	.st2{clip-path:url(#SVGID_4_);fill:#FFFFFF;}
	.st3{clip-path:url(#SVGID_6_);fill:#FFFFFF;}
	.st4{clip-path:url(#SVGID_8_);fill:#FFFFFF;}
	.st5{clip-path:url(#SVGID_10_);fill:#FFFFFF;}
	.st6{clip-path:url(#SVGID_12_);fill:#FFFFFF;}
	.st7{fill:#7DAC37;}
	.st8{fill:#D7D2E6;}
	.st9{fill:#21315C;}
	.st10{fill:#299A85;}
	.st11{clip-path:url(#SVGID_14_);fill:#21315C;}
	.st12{clip-path:url(#SVGID_16_);fill:#21315C;}
	.st13{clip-path:url(#SVGID_18_);fill:#21315C;}
	.st14{clip-path:url(#SVGID_20_);fill:#FFFFFF;}
	.st15{clip-path:url(#SVGID_22_);fill:#299A85;}
	.st16{fill:#727574;}
	.st17{fill:#CF6A34;}
	.st18{fill:#707070;}
	.st19{clip-path:url(#SVGID_24_);fill:#236FB2;}
	.st20{fill:#9E142E;}
	.st21{fill:none;stroke:#861833;stroke-width:3.021;}
	.st22{clip-path:url(#SVGID_26_);fill:#FFFFFF;}
	.st23{clip-path:url(#SVGID_26_);fill:none;stroke:#861833;stroke-width:3.021;}
	.st24{clip-path:url(#SVGID_28_);}
	.st25{clip-path:url(#SVGID_30_);}
	.st26{clip-path:url(#SVGID_30_);fill:#9E1332;}
	.st27{fill:#9E1332;}
</style>
<g>
	<path class="st7" d="M72.57,99.14v-2.45v-84.6C72.57,5.41,67.16,0,60.49,0h-48.4C5.41,0,0,5.41,0,12.08v87.05
		c0,6.67,5.41,12.08,12.08,12.08h48.4C67.16,111.22,72.57,105.81,72.57,99.14"/>
	<path class="st1" d="M61.06,100.2h2.59c2.2,0,2.6,1.51,2.6,3.81c0,2.78-0.59,4.03-2.69,4.03h-2.49V100.2z M59.03,97.83h-6.66V76.89
		h6.92c5.87,0,6.92,4.02,6.92,10.18C66.22,94.49,64.63,97.83,59.03,97.83 M55.69,100.2h4.38v1.3h-2.8v1.84h2.64v1.3h-2.64v2.11h2.91
		v1.3h-4.49V100.2z M51.72,101.5H50v-1.3h5.01v1.3H53.3v6.54h-1.58V101.5z M44.37,108.05l2.07-7.84h1.96l2.08,7.84h-1.65l-0.36-1.66
		h-2.09l-0.36,1.66H44.37z M39.42,63.38v0.06c2.9,0.38,3.74,2.37,3.89,5.01c0.09,1.52,0.09,4.57,1.03,5.7H42
		c-0.53-0.87-0.53-2.52-0.59-3.46c-0.19-3.11-0.43-6.57-4.45-6.41h-8.03v9.87h-2.11V51.93h10.18c3.67,0,6.75,1.78,6.75,5.79
		C43.74,60.52,42.28,62.82,39.42,63.38 M49.67,87.36c0,6.36-0.79,10.88-7.13,10.88s-7.13-4.52-7.13-10.88
		c0-6.36,0.79-10.88,7.13-10.88S49.67,81,49.67,87.36 M39.05,104.13c0-2.39,0.3-4.08,2.67-4.08c2.26,0,2.43,1.66,2.43,2.8h-1.58
		c0-1.14-0.23-1.63-0.94-1.63c-0.8,0-0.99,0.8-0.99,3.02c0,2.37,0.33,2.8,1.01,2.8c0.57,0,0.99-0.3,0.99-1.99h1.58
		c0,1.69-0.42,3.15-2.49,3.15C39.34,108.2,39.05,106.51,39.05,104.13 M36.46,100.2h1.58v7.84h-1.58V100.2z M31.29,100.2h4.38v1.3
		h-2.8v1.84h2.64v1.3h-2.64v3.4h-1.58V100.2z M26.24,98.24c-6.33,0-7.13-4.52-7.13-10.88c0-6.36,0.79-10.88,7.13-10.88
		s7.13,4.52,7.13,10.88C33.37,93.73,32.58,98.24,26.24,98.24 M28.54,100.2h1.58v7.84h-1.58V100.2z M22.77,100.2h5.01v1.3h-1.71v6.54
		h-1.58v-6.54h-1.71V100.2z M17.27,100.2h2.92c1.3,0,2.09,0.68,2.09,2.02c0,1.04-0.42,1.75-1.31,1.93v0.02
		c1.08,0.14,1.24,0.73,1.26,2.4c0.01,0.82,0.06,1.25,0.35,1.4v0.06h-1.71c-0.15-0.22-0.19-0.51-0.2-0.82l-0.04-1.5
		c-0.02-0.61-0.3-0.99-0.93-0.99h-0.84v3.32h-1.58V100.2z M11.99,100.2h4.38v1.3h-2.8v1.84h2.64v1.3h-2.64v2.11h2.91v1.3h-4.49
		V100.2z M5.92,104.13c0-2.39,0.3-4.08,2.67-4.08c2.26,0,2.43,1.66,2.43,2.8H9.44c0-1.14-0.23-1.63-0.94-1.63
		c-0.8,0-0.99,0.8-0.99,3.02c0,2.37,0.33,2.8,1.01,2.8c0.57,0,0.99-0.3,0.99-1.99h1.58c0,1.69-0.42,3.15-2.49,3.15
		C6.22,108.2,5.92,106.51,5.92,104.13 M5.98,76.89h11.7v3.46H10.2v4.93h7.04v3.46H10.2v9.09H5.98V76.89z M6.05,51.93h9.4
		c3.74,0,7.13,1.31,7.13,5.45c0,2.33-1.56,4.48-3.86,4.98v0.06c2.86,0.37,4.7,2.52,4.7,5.41c0,2.12-0.75,6.32-7.97,6.32h-9.4V51.93z
		 M64.36,4.47l-0.54,0.42c0,0-10.82,7.43-14.72,11.28c-3.85,3.41-12.88,11.35-24.27,33.18c-0.02-0.03-0.1-0.15-0.1-0.17
		C20.04,38.41,12.44,30.55,8.62,25.91c0,0.05-0.29-0.32-0.27-0.32c2.14,0.37,5.35,1.36,8.34,2.74c2.72,1.26,5.21,2.86,7.01,5.11
		C32.71,24.22,40.79,15.54,64.36,4.47 M48.63,63.03c0,4.86,2.49,9.78,8.37,9.78c4.11,0,6.72-3.17,7.13-7.12h2.12
		c-0.59,5.45-4.05,8.93-9.24,8.93c-7,0-10.49-5.51-10.49-11.58c0-6.07,3.48-11.57,10.49-11.57c4.2,0,8.37,2.52,8.93,7.19h-2.12
		c-0.75-3.43-3.58-5.39-6.82-5.39C51.12,53.26,48.63,58.18,48.63,63.03 M15.45,53.73H8.17v7.94h7.28c3.39,0,5.01-1.68,5.01-3.76
		C20.47,55.13,18.75,53.73,15.45,53.73 M15.45,63.47H8.17v8.87h7.28c3.14,0.03,5.85-1.03,5.85-4.58
		C21.3,64.94,19.16,63.47,15.45,63.47 M19.6,101.37h-0.75v2.26h0.66c0.76,0,1.18-0.33,1.18-1.18
		C20.7,101.73,20.31,101.37,19.6,101.37 M26.24,95.14c2.49,0,2.9-2.14,2.9-7.77c0-5.6-0.41-7.77-2.9-7.77
		c-2.49,0-2.91,2.17-2.91,7.77C23.34,92.99,23.75,95.14,26.24,95.14 M45.45,87.36c0-5.6-0.41-7.77-2.9-7.77
		c-2.49,0-2.9,2.17-2.9,7.77c0,5.63,0.41,7.77,2.9,7.77C45.04,95.14,45.45,92.99,45.45,87.36 M36.83,62.48
		c2.58,0,4.79-1.62,4.79-4.33s-1.62-4.42-4.79-4.42h-7.91v8.75H36.83z M47.41,101.57l-0.76,3.53h1.54l-0.76-3.53H47.41z
		 M58.47,94.73c2.93,0,3.52-1.85,3.52-7.54c0-4.75-0.38-7.19-3.61-7.19H56.6v14.72H58.47z M63.31,101.37h-0.67v5.51h0.7
		c1.1,0,1.32-0.69,1.32-2.82C64.66,102.28,64.52,101.37,63.31,101.37"/>
</g>
</svg>
