<?xml version="1.0" encoding="utf-8"?>
<!-- Generator: Adobe Illustrator 24.0.3, SVG Export Plug-In . SVG Version: 6.00 Build 0)  -->
<svg version="1.1" id="Capa_1" xmlns="http://www.w3.org/2000/svg" xmlns:xlink="http://www.w3.org/1999/xlink" x="0px" y="0px"
	 viewBox="0 0 184.54 124.86" style="enable-background:new 0 0 184.54 124.86;" xml:space="preserve">
<style type="text/css">
	.st0{clip-path:url(#SVGID_2_);fill:#FFFFFF;}
	.st1{fill:#FFFFFF;}
	.st2{clip-path:url(#SVGID_4_);fill:#FFFFFF;}
	.st3{clip-path:url(#SVGID_6_);fill:#FFFFFF;}
	.st4{clip-path:url(#SVGID_8_);fill:#FFFFFF;}
	.st5{clip-path:url(#SVGID_10_);fill:#FFFFFF;}
	.st6{clip-path:url(#SVGID_12_);fill:#FFFFFF;}
	.st7{fill:#7DAC37;}
	.st8{fill:#D7D2E6;}
	.st9{fill:#21315C;}
	.st10{fill:#299A85;}
	.st11{clip-path:url(#SVGID_14_);fill:#21315C;}
	.st12{clip-path:url(#SVGID_16_);fill:#21315C;}
	.st13{clip-path:url(#SVGID_18_);fill:#21315C;}
	.st14{clip-path:url(#SVGID_20_);fill:#FFFFFF;}
	.st15{clip-path:url(#SVGID_22_);fill:#299A85;}
	.st16{fill:#727574;}
	.st17{fill:#CF6A34;}
	.st18{fill:#707070;}
	.st19{clip-path:url(#SVGID_24_);fill:#236FB2;}
	.st20{fill:#9E142E;}
	.st21{fill:none;stroke:#861833;stroke-width:3.021;}
	.st22{clip-path:url(#SVGID_26_);fill:#FFFFFF;}
	.st23{clip-path:url(#SVGID_26_);fill:none;stroke:#861833;stroke-width:3.021;}
	.st24{clip-path:url(#SVGID_28_);}
	.st25{clip-path:url(#SVGID_30_);}
	.st26{clip-path:url(#SVGID_30_);fill:#9E1332;}
	.st27{fill:#9E1332;}
</style>
<g>
	<defs>
		<rect id="SVGID_25_" x="0" y="0" width="184.54" height="124.86"/>
	</defs>
	<clipPath id="SVGID_2_">
		<use xlink:href="#SVGID_25_"  style="overflow:visible;"/>
	</clipPath>
	<path class="st0" d="M92.27,123.35c50.13,0,90.76-27.28,90.76-60.92c0-33.64-40.64-60.92-90.76-60.92
		c-50.13,0-90.76,27.27-90.76,60.92C1.51,96.07,42.15,123.35,92.27,123.35"/>
	<path style="clip-path:url(#SVGID_2_);fill:none;stroke:#861833;stroke-width:3.021;" d="M92.27,123.35
		c50.13,0,90.76-27.28,90.76-60.92c0-33.64-40.64-60.92-90.76-60.92c-50.13,0-90.76,27.27-90.76,60.92
		C1.51,96.07,42.15,123.35,92.27,123.35z"/>
</g>
<g>
	<path d="M81.25,29.39h10.39v3.73h-6.61v2.83h5.2v3.64h-5.2v2.83h6.61v3.73H81.25V29.39z"/>
	<path d="M92.99,43.07l2.86-2.34c0.73,1.16,1.94,2.08,3.09,2.08c1.11,0,1.61-0.42,1.61-1.2c0-0.76-0.54-1.23-1.96-1.87l-0.94-0.42
		c-2.53-1.13-3.92-3-3.92-5.27c0-2.93,2.43-4.84,5.1-4.84c1.87,0,3.28,0.45,4.7,2.1L100.98,34c-0.85-1.04-1.37-1.25-2.15-1.25
		c-0.64,0-1.3,0.4-1.3,1.16c0,0.87,0.73,1.35,2.27,2.03l0.9,0.4c2.31,1.04,3.66,2.72,3.66,5.03c0,3.02-2.22,4.98-5.34,4.98
		C96.32,46.35,94.15,45.24,92.99,43.07z"/>
</g>
<g>
	<path d="M30.69,55.31l3.59-3.59v16.96h-3.59V55.31z"/>
	<path d="M37.02,60.29c0-4.72,3.92-8.57,8.64-8.57c4.72,0,8.65,3.85,8.65,8.57c0,4.72-3.92,8.57-8.65,8.57
		C40.94,68.87,37.02,65.02,37.02,60.29z M50.72,60.29c0-2.91-2.1-5.24-5.05-5.24c-2.95,0-5.05,2.34-5.05,5.24
		c0,2.91,2.1,5.24,5.05,5.24C48.62,65.54,50.72,63.2,50.72,60.29z"/>
	<path d="M55.61,66.32c0-1.42,1.13-2.55,2.55-2.55c1.42,0,2.55,1.13,2.55,2.55c0,1.42-1.13,2.55-2.55,2.55
		C56.75,68.87,55.61,67.74,55.61,66.32z"/>
	<path d="M62.04,60.29c0-4.72,3.92-8.57,8.65-8.57c4.72,0,8.64,3.85,8.64,8.57c0,4.72-3.92,8.57-8.64,8.57
		C65.96,68.87,62.04,65.02,62.04,60.29z M75.74,60.29c0-2.91-2.1-5.24-5.05-5.24c-2.95,0-5.05,2.34-5.05,5.24
		c0,2.91,2.1,5.24,5.05,5.24C73.64,65.54,75.74,63.2,75.74,60.29z"/>
	<path d="M86.63,55.24H80.4v-3.33h11.62l-7.61,16.77h-3.87L86.63,55.24z"/>
	<path d="M97.55,62.89c-3.14-0.19-5.43-2.55-5.43-5.57c0-3.17,2.53-5.6,5.88-5.6c3.35,0,5.88,2.43,5.88,5.6
		c0,1.23-0.52,2.27-1.06,3.26l-4.42,8.1h-3.99L97.55,62.89z M100.29,57.32c0-1.21-0.85-2.27-2.29-2.27c-1.44,0-2.29,1.06-2.29,2.27
		c0,1.2,0.85,2.27,2.29,2.27C99.44,59.59,100.29,58.52,100.29,57.32z"/>
	<path d="M104.83,63.27c0-1.82,0.83-3.31,2.2-4.23c-0.59-0.71-0.95-1.61-0.95-2.67c0-2.57,2.06-4.65,4.63-4.65s4.63,2.08,4.63,4.65
		c0,1.06-0.35,1.96-0.95,2.67c1.35,0.92,2.2,2.41,2.2,4.23c0,3.17-2.53,5.6-5.88,5.6S104.83,66.44,104.83,63.27z M113,63.27
		c0-1.21-0.85-2.27-2.29-2.27s-2.29,1.06-2.29,2.27c0,1.21,0.85,2.27,2.29,2.27S113,64.48,113,63.27z M111.99,56.37
		c0-0.71-0.47-1.32-1.28-1.32s-1.28,0.61-1.28,1.32c0,0.71,0.47,1.32,1.28,1.32S111.99,57.08,111.99,56.37z"/>
	<path d="M117.82,63.27c0-1.23,0.52-2.27,1.06-3.26l4.42-8.1h3.99l-3.17,5.79c3.14,0.19,5.46,2.55,5.46,5.57
		c0,3.17-2.53,5.6-5.88,5.6C120.35,68.87,117.82,66.44,117.82,63.27z M121.41,63.27c0,1.21,0.85,2.27,2.29,2.27
		c1.44,0,2.29-1.06,2.29-2.27c0-1.21-0.85-2.27-2.29-2.27C122.26,61,121.41,62.07,121.41,63.27z"/>
	<path d="M137.88,51.91h3.21l-7.82,16.77h-3.21L137.88,51.91z"/>
	<path d="M142.68,51.91h6.31c2.74,0,4.98,2.24,4.98,4.98c0,1.18-0.45,2.15-1.18,2.88c1.42,0.76,2.36,2.13,2.36,3.92
		c0,2.76-2.24,4.98-5.08,4.98h-7.39V51.91z M148.56,58.69c1.02,0,1.75-0.73,1.75-1.65c0-0.92-0.73-1.68-1.75-1.68h-2.1v3.33H148.56z
		 M149.72,65.21c1.02,0,1.75-0.73,1.75-1.65c0-0.92-0.73-1.68-1.75-1.68h-3.26v3.33H149.72z"/>
</g>
<g>
	<path d="M78.23,82.81c0-4.72,3.85-8.57,8.57-8.57c2.88,0,5.46,1.44,7.01,3.64l-2.86,2.34c-0.85-1.37-2.36-2.34-4.16-2.34
		c-2.72,0-4.77,2.24-4.77,4.94c0,2.69,2.05,4.94,4.77,4.94c1.79,0,3.31-0.97,4.16-2.34l2.86,2.34c-1.56,2.2-4.13,3.64-7.01,3.64
		C82.08,91.39,78.23,87.54,78.23,82.81z"/>
	<path d="M95.76,74.43h10.39v3.73h-6.61v2.83h5.2v3.64h-5.2v2.83h6.61v3.73H95.76V74.43z"/>
</g>
</svg>
