<?xml version="1.0" encoding="utf-8"?>
<!-- Generator: Adobe Illustrator 24.0.3, SVG Export Plug-In . SVG Version: 6.00 Build 0)  -->
<svg version="1.1" id="Capa_1" xmlns="http://www.w3.org/2000/svg" xmlns:xlink="http://www.w3.org/1999/xlink" x="0px" y="0px"
	 viewBox="0 0 184.54 124.86" style="enable-background:new 0 0 184.54 124.86;" xml:space="preserve">
<style type="text/css">
	.st0{clip-path:url(#SVGID_2_);fill:#FFFFFF;}
	.st1{fill:#FFFFFF;}
	.st2{clip-path:url(#SVGID_4_);fill:#FFFFFF;}
	.st3{clip-path:url(#SVGID_6_);fill:#FFFFFF;}
	.st4{clip-path:url(#SVGID_8_);fill:#FFFFFF;}
	.st5{clip-path:url(#SVGID_10_);fill:#FFFFFF;}
	.st6{clip-path:url(#SVGID_12_);fill:#FFFFFF;}
	.st7{fill:#7DAC37;}
	.st8{fill:#D7D2E6;}
	.st9{fill:#21315C;}
	.st10{fill:#299A85;}
	.st11{clip-path:url(#SVGID_14_);fill:#21315C;}
	.st12{clip-path:url(#SVGID_16_);fill:#21315C;}
	.st13{clip-path:url(#SVGID_18_);fill:#21315C;}
	.st14{clip-path:url(#SVGID_20_);fill:#FFFFFF;}
	.st15{clip-path:url(#SVGID_22_);fill:#299A85;}
	.st16{fill:#727574;}
	.st17{fill:#CF6A34;}
	.st18{fill:#707070;}
	.st19{clip-path:url(#SVGID_24_);fill:#236FB2;}
	.st20{fill:#9E142E;}
	.st21{fill:none;stroke:#861833;stroke-width:3.021;}
	.st22{clip-path:url(#SVGID_26_);fill:#FFFFFF;}
	.st23{clip-path:url(#SVGID_26_);fill:none;stroke:#861833;stroke-width:3.021;}
	.st24{clip-path:url(#SVGID_28_);}
	.st25{clip-path:url(#SVGID_30_);}
	.st26{clip-path:url(#SVGID_30_);fill:#9E1332;}
	.st27{fill:#9E1332;}
</style>
<g>
	<path class="st1" d="M92.27,123.35c50.13,0,90.76-27.28,90.76-60.92c0-33.64-40.64-60.92-90.76-60.92
		c-50.13,0-90.76,27.27-90.76,60.92C1.51,96.07,42.15,123.35,92.27,123.35"/>
	<path class="st21" d="M92.27,123.35c50.13,0,90.76-27.28,90.76-60.92c0-33.64-40.64-60.92-90.76-60.92
		c-50.13,0-90.76,27.27-90.76,60.92C1.51,96.07,42.15,123.35,92.27,123.35z"/>
</g>
<g>
	<path d="M78,29.39h10.39v3.73h-6.61v2.83h5.2v3.64h-5.2v2.83h6.61v3.73H78V29.39z"/>
	<path d="M89.74,43.07l2.86-2.34c0.73,1.16,1.94,2.08,3.09,2.08c1.11,0,1.61-0.42,1.61-1.2c0-0.76-0.54-1.23-1.96-1.87l-0.95-0.42
		c-2.53-1.13-3.92-3-3.92-5.27c0-2.93,2.43-4.84,5.1-4.84c1.87,0,3.28,0.45,4.7,2.1L97.73,34c-0.85-1.04-1.37-1.25-2.15-1.25
		c-0.64,0-1.3,0.4-1.3,1.16c0,0.87,0.73,1.35,2.27,2.03l0.9,0.4c2.31,1.04,3.66,2.72,3.66,5.03c0,3.02-2.22,4.98-5.34,4.98
		C93.07,46.35,90.9,45.24,89.74,43.07z"/>
</g>
<g>
	<path d="M27.46,55.31l3.59-3.59v16.96h-3.59V55.31z"/>
	<path d="M33.79,60.29c0-4.72,3.92-8.57,8.65-8.57c4.72,0,8.64,3.85,8.64,8.57c0,4.72-3.92,8.57-8.64,8.57
		C37.71,68.87,33.79,65.02,33.79,60.29z M47.49,60.29c0-2.91-2.1-5.24-5.05-5.24c-2.95,0-5.05,2.34-5.05,5.24
		c0,2.91,2.1,5.24,5.05,5.24C45.39,65.54,47.49,63.2,47.49,60.29z"/>
	<path d="M52.41,66.32c0-1.42,1.13-2.55,2.55-2.55s2.55,1.13,2.55,2.55c0,1.42-1.13,2.55-2.55,2.55S52.41,67.74,52.41,66.32z"/>
	<path d="M58.84,60.29c0-4.72,3.92-8.57,8.64-8.57c4.72,0,8.65,3.85,8.65,8.57c0,4.72-3.92,8.57-8.65,8.57
		C62.76,68.87,58.84,65.02,58.84,60.29z M72.54,60.29c0-2.91-2.1-5.24-5.05-5.24c-2.95,0-5.05,2.34-5.05,5.24
		c0,2.91,2.1,5.24,5.05,5.24C70.44,65.54,72.54,63.2,72.54,60.29z"/>
	<path d="M76.94,66.51l2.53-2.34c0.52,0.78,1.25,1.37,2.36,1.37c1.56,0,2.55-0.97,2.55-2.53c0-1.56-0.99-2.53-2.55-2.53h-1.7
		l2.48-5.24h-4.89v-3.33h10.13l-2.79,5.91c1.82,0.94,2.93,2.79,2.93,5.2c0,3.54-2.39,5.86-5.93,5.86
		C79.94,68.87,78.07,67.97,76.94,66.51z"/>
	<path d="M94.42,62.89c-3.14-0.19-5.43-2.55-5.43-5.57c0-3.17,2.53-5.6,5.88-5.6c3.35,0,5.88,2.43,5.88,5.6
		c0,1.23-0.52,2.27-1.06,3.26l-4.42,8.1h-3.99L94.42,62.89z M97.16,57.32c0-1.21-0.85-2.27-2.29-2.27c-1.44,0-2.29,1.06-2.29,2.27
		c0,1.2,0.85,2.27,2.29,2.27C96.31,59.59,97.16,58.52,97.16,57.32z"/>
	<path d="M106.09,62.33c-2.24-0.71-3.87-2.74-3.87-5.2c0-3.02,2.53-5.41,5.55-5.41s5.57,2.39,5.57,5.41c0,1.32-0.5,2.5-1.28,3.45
		l-3.85,4.77h5.1v3.33h-12.38L106.09,62.33z M109.75,57.13c0-1.13-0.78-2.08-1.98-2.08s-1.96,0.94-1.96,2.08s0.76,2.1,1.96,2.1
		S109.75,58.26,109.75,57.13z"/>
	<path d="M120.95,64.9h-8.41l12-13.18v10.06h1.56v3.12h-1.56v3.78h-3.59V64.9z M120.95,61.78v-2.01l-1.84,2.01H120.95z"/>
	<path d="M134.63,51.91h3.21l-7.82,16.77h-3.21L134.63,51.91z"/>
	<path d="M139.43,51.91h6.31c2.74,0,4.98,2.24,4.98,4.98c0,1.18-0.45,2.15-1.18,2.88c1.42,0.76,2.36,2.13,2.36,3.92
		c0,2.76-2.24,4.98-5.08,4.98h-7.39V51.91z M145.31,58.69c1.02,0,1.75-0.73,1.75-1.65c0-0.92-0.73-1.68-1.75-1.68h-2.1v3.33H145.31z
		 M146.47,65.21c1.02,0,1.75-0.73,1.75-1.65c0-0.92-0.73-1.68-1.75-1.68h-3.26v3.33H146.47z"/>
</g>
<g>
	<path d="M74.98,82.81c0-4.72,3.85-8.57,8.57-8.57c2.88,0,5.46,1.44,7.02,3.64l-2.86,2.34c-0.85-1.37-2.36-2.34-4.16-2.34
		c-2.72,0-4.77,2.24-4.77,4.94c0,2.69,2.06,4.94,4.77,4.94c1.79,0,3.31-0.97,4.16-2.34l2.86,2.34c-1.56,2.2-4.13,3.64-7.02,3.64
		C78.83,91.39,74.98,87.54,74.98,82.81z"/>
	<path d="M92.51,74.43h10.39v3.73h-6.61v2.83h5.2v3.64h-5.2v2.83h6.61v3.73H92.51V74.43z"/>
</g>
</svg>
