<?xml version="1.0" encoding="utf-8"?>
<!-- Generator: Adobe Illustrator 25.2.0, SVG Export Plug-In . SVG Version: 6.00 Build 0)  -->
<svg version="1.1" id="Capa_1" xmlns="http://www.w3.org/2000/svg" xmlns:xlink="http://www.w3.org/1999/xlink" x="0px" y="0px"
	 viewBox="0 0 184.5 124.9" style="enable-background:new 0 0 184.5 124.9;" xml:space="preserve">
<style type="text/css">
	.st0{clip-path:url(#SVGID_2_);}
	.st1{fill:#FFFFFF;}
	.st2{fill:#9E0F2E;}
	.st3{fill:#2B2B2A;}
</style>
<g>
	<defs>
		<rect id="SVGID_1_" width="184.5" height="124.9"/>
	</defs>
	<clipPath id="SVGID_2_">
		<use xlink:href="#SVGID_1_"  style="overflow:visible;"/>
	</clipPath>
	<g class="st0">
		<path class="st1" d="M92.3,123.4c50.1,0,90.8-27.3,90.8-60.9c0-33.6-40.6-60.9-90.8-60.9C42.1,1.5,1.5,28.8,1.5,62.4
			C1.5,96.1,42.1,123.4,92.3,123.4"/>
	</g>
	<g class="st0">
		<path class="st2" d="M92.3,124.9C41.4,124.9,0,96.9,0,62.4C0,28,41.4,0,92.3,0c50.9,0,92.3,28,92.3,62.4
			C184.5,96.9,143.2,124.9,92.3,124.9z M92.3,3C43.1,3,3,29.7,3,62.4c0,32.8,40,59.4,89.3,59.4c49.2,0,89.3-26.7,89.3-59.4
			C181.5,29.7,141.5,3,92.3,3z"/>
	</g>
</g>
<g>
	<path class="st3" d="M83.3,29.4h10.4v3.7h-6.6V36h5.2v3.6h-5.2v2.8h6.6v3.7H83.3V29.4z"/>
	<path class="st3" d="M95,43.1l2.9-2.3c0.7,1.2,1.9,2.1,3.1,2.1c1.1,0,1.6-0.4,1.6-1.2c0-0.8-0.5-1.2-2-1.9l-0.9-0.4
		c-2.5-1.1-3.9-3-3.9-5.3c0-2.9,2.4-4.8,5.1-4.8c1.9,0,3.3,0.4,4.7,2.1L103,34c-0.8-1-1.4-1.3-2.1-1.3c-0.6,0-1.3,0.4-1.3,1.2
		c0,0.9,0.7,1.3,2.3,2l0.9,0.4c2.3,1,3.7,2.7,3.7,5c0,3-2.2,5-5.3,5C98.4,46.4,96.2,45.2,95,43.1z"/>
</g>
<g>
	<path class="st3" d="M26.1,55.3l3.6-3.6v17h-3.6V55.3z"/>
	<path class="st3" d="M32.5,60.3c0-4.7,3.9-8.6,8.6-8.6c4.7,0,8.6,3.9,8.6,8.6c0,4.7-3.9,8.6-8.6,8.6C36.4,68.9,32.5,65,32.5,60.3z
		 M46.2,60.3c0-2.9-2.1-5.2-5.1-5.2c-3,0-5.1,2.3-5.1,5.2c0,2.9,2.1,5.2,5.1,5.2C44.1,65.5,46.2,63.2,46.2,60.3z"/>
	<path class="st3" d="M51.1,66.3c0-1.4,1.1-2.6,2.6-2.6c1.4,0,2.6,1.1,2.6,2.6c0,1.4-1.1,2.6-2.6,2.6C52.2,68.9,51.1,67.7,51.1,66.3
		z"/>
	<path class="st3" d="M57.5,60.3c0-4.7,3.9-8.6,8.6-8.6c4.7,0,8.6,3.9,8.6,8.6c0,4.7-3.9,8.6-8.6,8.6C61.4,68.9,57.5,65,57.5,60.3z
		 M71.2,60.3c0-2.9-2.1-5.2-5.1-5.2c-3,0-5.1,2.3-5.1,5.2c0,2.9,2.1,5.2,5.1,5.2C69.1,65.5,71.2,63.2,71.2,60.3z"/>
	<path class="st3" d="M80.6,62.3c-2.2-0.7-3.9-2.7-3.9-5.2c0-3,2.5-5.4,5.6-5.4s5.6,2.4,5.6,5.4c0,1.3-0.5,2.5-1.3,3.4l-3.9,4.8h5.1
		v3.3H75.5L80.6,62.3z M84.3,57.1c0-1.1-0.8-2.1-2-2.1c-1.2,0-2,0.9-2,2.1s0.8,2.1,2,2.1C83.5,59.2,84.3,58.3,84.3,57.1z"/>
	<path class="st3" d="M89.3,63.3c0-1.2,0.5-2.3,1.1-3.3l4.4-8.1h4l-3.2,5.8c3.1,0.2,5.5,2.6,5.5,5.6c0,3.2-2.5,5.6-5.9,5.6
		C91.8,68.9,89.3,66.4,89.3,63.3z M92.9,63.3c0,1.2,0.9,2.3,2.3,2.3c1.4,0,2.3-1.1,2.3-2.3c0-1.2-0.8-2.3-2.3-2.3
		C93.8,61,92.9,62.1,92.9,63.3z"/>
	<path class="st3" d="M108.3,55.2h-6.2v-3.3h11.6l-7.6,16.8h-3.9L108.3,55.2z"/>
	<path class="st3" d="M113.9,66.5l2.5-2.3c0.5,0.8,1.3,1.4,2.4,1.4c1.6,0,2.6-1,2.6-2.5c0-1.6-1-2.5-2.6-2.5h-1.7l2.5-5.2h-4.9v-3.3
		h10.1l-2.8,5.9c1.8,0.9,2.9,2.8,2.9,5.2c0,3.5-2.4,5.9-5.9,5.9C116.9,68.9,115,68,113.9,66.5z"/>
	<path class="st3" d="M127,66.5l2.6-2.4c0.4,0.7,1.2,1.4,2.3,1.4c1.4,0,2.3-1.1,2.3-2.3c0-1.2-0.9-2.3-2.3-2.3
		c-1.1,0-1.8,0.6-2.1,1.4l-2.3-1v-9.5h9.1v3.3H131v2.5c0.4,0,0.7-0.1,1.1-0.1c3.4,0,5.7,2.2,5.7,5.6c0,3.4-2.3,5.6-5.7,5.6
		C129.9,68.9,128.1,68,127,66.5z"/>
	<path class="st3" d="M146.5,51.9h3.2l-7.8,16.8h-3.2L146.5,51.9z"/>
	<path class="st3" d="M151.3,51.9h6.3c2.7,0,5,2.2,5,5c0,1.2-0.4,2.1-1.2,2.9c1.4,0.8,2.4,2.1,2.4,3.9c0,2.8-2.2,5-5.1,5h-7.4V51.9z
		 M157.2,58.7c1,0,1.7-0.7,1.7-1.7c0-0.9-0.7-1.7-1.7-1.7h-2.1v3.3H157.2z M158.3,65.2c1,0,1.7-0.7,1.7-1.7c0-0.9-0.7-1.7-1.7-1.7
		h-3.3v3.3H158.3z"/>
</g>
<g>
	<path class="st3" d="M80.3,82.8c0-4.7,3.8-8.6,8.6-8.6c2.9,0,5.5,1.4,7,3.6L93,80.2c-0.9-1.4-2.4-2.3-4.2-2.3
		c-2.7,0-4.8,2.2-4.8,4.9c0,2.7,2.1,4.9,4.8,4.9c1.8,0,3.3-1,4.2-2.3l2.9,2.3c-1.6,2.2-4.1,3.6-7,3.6C84.1,91.4,80.3,87.5,80.3,82.8
		z"/>
	<path class="st3" d="M97.8,74.4h10.4v3.7h-6.6V81h5.2v3.6h-5.2v2.8h6.6v3.7H97.8V74.4z"/>
</g>
</svg>
