<?xml version="1.0" encoding="UTF-8"?>
<svg id="Capa_2" data-name="Capa 2" xmlns="http://www.w3.org/2000/svg" viewBox="0 0 277.09 184.33">
  <defs>
    <style>
      .cls-1 {
        fill: #fff;
        stroke: #1d1d1b;
        stroke-miterlimit: 10;
      }

      .cls-2 {
        fill: #1d1d1b;
      }
    </style>
  </defs>
  <g id="Capa_1-2" data-name="Capa 1">
    <path class="cls-1" d="M138.55,183.83c76.12,0,138.05-41.12,138.05-91.67S214.66.5,138.55.5.5,41.62.5,92.16s61.93,91.67,138.05,91.67Z"/>
    <path class="cls-2" d="M143.8,144.43c0,.4.32.74.74.74h15.98c.43,0,.74-.34.74-.74v-3.22c0-.39-.31-.74-.74-.74h-11.62v-6.88h9.7c.39,0,.75-.32.75-.74v-3.26c0-.4-.36-.74-.75-.74h-9.7v-6.44h11.62c.43,0,.74-.35.74-.74v-3.22c0-.4-.31-.74-.74-.74h-15.98c-.43,0-.74.35-.74.74v25.99ZM115.12,131.47c0,7.86,6.32,14.09,14.17,14.09,3.49,0,6.87-1.21,9.54-3.8.27-.27.35-.79.04-1.05l-2.43-2.52c-.23-.24-.67-.27-.98,0-1.65,1.34-3.65,2.25-6.01,2.25-5.02,0-8.79-4.17-8.79-9.08s3.73-9.15,8.76-9.15c2.2,0,4.4.86,6.05,2.32.31.32.7.32.98,0l2.4-2.48c.31-.31.31-.78-.04-1.1-2.67-2.39-5.54-3.65-9.5-3.65-7.86,0-14.17,6.32-14.17,14.17"/>
    <path class="cls-2" d="M141.5,63.98c.79.74,3.69,3.06,8.64,3.06,5.54,0,9.03-3.73,9.03-7.77,0-5.07-4.4-7.35-8.2-8.88-3.18-1.29-4.63-2.55-4.63-4.4,0-1.26,1.21-2.75,3.45-2.75s5.14,1.97,5.46,2.16c.47.32,1.06,0,1.37-.46l1.49-2.24c.28-.4.16-1.06-.23-1.3-.79-.59-3.85-2.63-7.85-2.63-6.25,0-8.83,4.04-8.83,7.54,0,4.63,3.69,6.99,7.38,8.48,3.3,1.34,4.99,2.71,4.99,4.72,0,1.69-1.52,3.03-3.57,3.03-2.56,0-5.74-2.32-5.93-2.44-.35-.28-1.02-.28-1.33.28l-1.42,2.43c-.35.62-.15.82.19,1.18M119.8,65.9c0,.4.31.75.75.75h15.97c.43,0,.75-.35.75-.75v-3.21c0-.4-.32-.75-.75-.75h-11.63v-6.88h9.71c.39,0,.74-.31.74-.74v-3.26c0-.39-.35-.74-.74-.74h-9.71v-6.44h11.63c.43,0,.75-.35.75-.75v-3.21c0-.39-.32-.75-.75-.75h-15.97c-.44,0-.75.36-.75.75v25.99Z"/>
    <path class="cls-2" d="M230.63,91.93c1.85-.87,4.32-3.22,4.32-6.25,0-4.12-3.61-7.26-8.28-7.26h-8.99c-.43,0-.75.36-.75.75v25.99c0,.4.32.75.75.75h9.5c4.79,0,8.56-3.18,8.56-7.58,0-3.61-3.02-5.73-5.11-6.4M221.99,83.1h4.2c2,0,3.38,1.38,3.38,3.34s-1.38,3.54-3.38,3.54h-4.2v-6.88ZM226.75,101.28h-4.76v-6.99h4.28c2.04,0,4.01,1.45,4.01,3.42s-1.57,3.57-3.53,3.57"/>
    <path class="cls-2" d="M212.31,78.43h-2.82c-.32,0-.63.24-.71.51l-7.7,25.99c-.15.55.2.98.71.98h2.87c.27,0,.62-.24.71-.51l7.65-25.99c.16-.55-.15-.99-.71-.99"/>
    <path class="cls-2" d="M195.83,96.47h-3.14v-16.73c0-.43-.35-.74-.74-.74h-2.12c-.27,0-.47.12-.59.24l-14.13,17.2v3.26c0,.38.31.74.74.74h12.14v4.95c0,.39.35.75.74.75h3.26c.39,0,.74-.35.74-.75l-.04-5.03h3.14c.43,0,.74-.35.74-.74v-2.43c0-.39-.32-.71-.74-.71M188.13,96.35h-7.86l7.86-9.42v9.42Z"/>
    <path class="cls-2" d="M171.93,86.83c0-4.25-3.14-7.81-8.75-7.81-4.67,0-7.74,3.85-7.74,3.85-.27.31-.2.79.04,1.02l1.89,1.88c.32.32.75.32,1.06,0,.9-.98,2.51-2.32,4.4-2.32,2.82,0,4.16,1.81,4.16,3.58,0,1.34-.79,2.87-2,4.36-2.63,3.5-7.58,9.94-10.17,13.08v.9c0,.39.32.75.75.75h15.46c.4,0,.75-.35.75-.75v-2.71c0-.39-.35-.74-.75-.74h-8.48c2.08-2.64,5.07-6.32,6.76-8.72,1.53-2.2,2.62-3.81,2.62-6.36"/>
    <path class="cls-2" d="M151.48,86.83c0-4.25-3.14-7.81-8.75-7.81-4.67,0-7.74,3.85-7.74,3.85-.27.31-.2.79.04,1.02l1.89,1.88c.32.32.75.32,1.06,0,.9-.98,2.51-2.32,4.4-2.32,2.82,0,4.16,1.81,4.16,3.58,0,1.34-.79,2.87-2,4.36-2.63,3.5-7.58,9.94-10.17,13.08v.9c0,.39.32.75.75.75h15.46c.4,0,.75-.35.75-.75v-2.71c0-.39-.35-.74-.75-.74h-8.48c2.08-2.64,5.07-6.32,6.76-8.72,1.53-2.2,2.62-3.81,2.62-6.36"/>
    <path class="cls-2" d="M100.75,78.82c-6.28,0-9.89,5.14-9.89,13.74s3.61,13.74,9.89,13.74,9.89-5.13,9.89-13.74-3.61-13.74-9.89-13.74M100.75,101.68c-3.03,0-4.75-3.27-4.75-9.12s1.73-9.11,4.75-9.11,4.76,3.3,4.76,9.11-1.73,9.12-4.76,9.12"/>
    <path class="cls-2" d="M84.37,99.83c-1.77,0-3.22,1.49-3.22,3.26s1.45,3.21,3.22,3.21,3.26-1.44,3.26-3.21-1.49-3.26-3.26-3.26"/>
    <path class="cls-2" d="M67.97,78.82c-6.28,0-9.89,5.14-9.89,13.74s3.61,13.74,9.89,13.74,9.89-5.13,9.89-13.74-3.61-13.74-9.89-13.74M67.97,101.68c-3.03,0-4.76-3.27-4.76-9.12s1.73-9.11,4.76-9.11,4.75,3.3,4.75,9.11-1.73,9.12-4.75,9.12"/>
    <path class="cls-2" d="M51.85,79.21h-2.74l-5.65,4.75c-.16.16-.24.4-.2.71l.23,1.93c.04.35.43.58.79.51l3.45-.75v18.81c0,.39.31.75.74.75h3.37c.4,0,.71-.35.71-.75v-25.21c0-.39-.31-.75-.71-.75"/>
    <path class="cls-2" d="M127.48,92.21v-.17c1.61-.94,4.04-3.06,4.04-6.04,0-4.36-3.77-7.18-8.67-7.18s-8.52,2.82-8.52,7.18c0,3.06,2.43,5.22,4.04,6.09v.12c-1.1.55-4.75,3.14-4.75,6.56,0,4.28,3.61,7.53,9.23,7.53s9.38-3.25,9.38-7.53c0-3.37-2.98-5.66-4.74-6.56M122.85,82.86c2.04,0,3.65,1.45,3.65,3.34,0,1.68-1.13,3.18-3.57,3.73-2.48-.59-3.58-1.97-3.58-3.73,0-1.89,1.61-3.34,3.5-3.34M122.93,102.3c-2.12,0-4.09-1.44-4.09-3.61,0-1.77,1.45-3.58,4.09-4.16,2.63.58,4.08,2.4,4.08,4.16,0,2.17-1.92,3.61-4.08,3.61"/>
  </g>
</svg>