<?xml version="1.0" encoding="UTF-8"?>
<svg id="Capa_1" data-name="Capa 1" xmlns="http://www.w3.org/2000/svg" xmlns:xlink="http://www.w3.org/1999/xlink" version="1.1" viewBox="0 0 184.5 124.9">
  <defs>
    <style>
      .cls-1 {
        clip-path: url(#clippath);
      }

      .cls-2 {
        fill: none;
      }

      .cls-2, .cls-3, .cls-4, .cls-5, .cls-6, .cls-7 {
        stroke-width: 0px;
      }

      .cls-3 {
        fill: #1c1d1d;
      }

      .cls-4 {
        fill: #1d1d1b;
      }

      .cls-5 {
        fill: #9e0f2e;
      }

      .cls-8 {
        clip-path: url(#clippath-1);
      }

      .cls-9 {
        clip-path: url(#clippath-2);
      }

      .cls-6 {
        fill: #2b2b2a;
      }

      .cls-10 {
        isolation: isolate;
      }

      .cls-7 {
        fill: #fff;
      }
    </style>
    <clipPath id="clippath">
      <rect class="cls-2" y="0" width="184.5" height="124.9"/>
    </clipPath>
    <clipPath id="clippath-1">
      <rect class="cls-2" y="0" width="184.5" height="124.9"/>
    </clipPath>
    <clipPath id="clippath-2">
      <rect class="cls-2" x="10" y="27.1" width="163.1" height="62.3"/>
    </clipPath>
  </defs>
  <g>
    <g class="cls-1">
      <path class="cls-7" d="M92.3,123.4c50.1,0,90.8-27.3,90.8-60.9S142.5,1.6,92.3,1.6C42.1,1.5,1.5,28.8,1.5,62.4s40.6,61,90.8,61"/>
    </g>
    <g class="cls-8">
      <path class="cls-5" d="M92.3,124.9C41.4,124.9,0,96.9,0,62.4S41.4,0,92.3,0s92.3,28,92.3,62.4c-.1,34.5-41.4,62.5-92.3,62.5ZM92.3,3C43.1,3,3,29.7,3,62.4s40,59.4,89.3,59.4,89.3-26.7,89.3-59.4c-.1-32.7-40.1-59.4-89.3-59.4Z"/>
    </g>
  </g>
  <g>
    <g>
      <path class="cls-6" d="M79.9,29.4h10.4v3.7h-6.6v2.9h5.2v3.6h-5.2v2.8h6.6v3.7h-10.4s0-16.7,0-16.7Z"/>
      <path class="cls-6" d="M91.6,43.1l2.9-2.3c.7,1.2,1.9,2.1,3.1,2.1s1.6-.4,1.6-1.2-.5-1.2-2-1.9l-.9-.4c-2.5-1.1-3.9-3-3.9-5.3s2.4-4.8,5.1-4.8,3.3.4,4.7,2.1l-2.6,2.6c-.8-1-1.4-1.3-2.1-1.3s-1.3.4-1.3,1.2.7,1.3,2.3,2l.9.4c2.3,1,3.7,2.7,3.7,5s-2.2,5-5.3,5-5-1.1-6.2-3.2Z"/>
    </g>
    <g>
      <path class="cls-6" d="M77.6,82.8c0-4.7,3.8-8.6,8.6-8.6s5.5,1.4,7,3.6l-2.9,2.4c-.9-1.4-2.4-2.3-4.2-2.3-2.7,0-4.8,2.2-4.8,4.9s2.1,4.9,4.8,4.9,3.3-1,4.2-2.3l2.9,2.3c-1.6,2.2-4.1,3.6-7,3.6-4.8,0-8.6-3.8-8.6-8.5Z"/>
      <path class="cls-6" d="M95.1,74.4h10.4v3.7h-6.6v2.9h5.2v3.6h-5.2v2.8h6.6v3.7h-10.4s0-16.7,0-16.7Z"/>
    </g>
    <g class="cls-9">
      <g>
        <g class="cls-10">
          <g class="cls-10">
            <path class="cls-4" d="M157.2,53.8v15.9h-4.2v-6.5h-5.2v6.5h-4.2v-15.9h4.2v6.2h5.2v-6.2h4.2Z"/>
            <path class="cls-4" d="M173.1,53.8v9.2c0,4.3-2.1,7.1-6.8,7.1s-6.3-2.4-6.3-6.4v-9.9h4.2v9.5c0,2.3.6,3.5,2.4,3.5s1.2-.3,1.5-.6c.5-.5.7-1.3.7-2.5v-9.9h4.2Z"/>
          </g>
        </g>
        <path class="cls-3" d="M98.8,69c1-.5,1.7-1.2,2.3-2.1.6-.9.9-1.9.9-3s-.2-1.7-.6-2.4-1-1.4-1.7-1.8c-.7-.5-1.5-.8-2.4-.9l4.2-4.4-.8-1.6h-10.3v3.5h5.2c0,0-3.4,3.8-3.4,3.8l.9,2.4c.9-.4,1.8-.7,2.5-.7s1.4.2,1.8.6c.4.4.7.9.7,1.6s-.2,1.2-.7,1.6-1,.6-1.7.6-1.3-.2-1.8-.5c-.6-.3-1.1-.9-1.6-1.7l-3.1,1.9c.8,1.4,1.8,2.4,2.8,2.9,1,.6,2.2.8,3.6.8s2.3-.3,3.2-.8M114.6,69v-3.7h-6l1.9-2.1c1.2-1.3,2.1-2.5,2.6-3.5s.7-1.9.7-2.8-.2-1.8-.7-2.5-1.1-1.3-1.9-1.7-1.7-.6-2.7-.6-1.8.2-2.6.6-1.5.9-2.2,1.7c-.6.7-1.1,1.5-1.4,2.4l3.1,1.7c.7-1.6,1.6-2.4,2.7-2.4s1,0,1.3.4c.3.3.4.6.4,1s-.2.9-.5,1.4-.7,1.1-1.1,1.6-.8,1-1.2,1.4l-4.8,5.2.8,1.9s11.6,0,11.6,0ZM132.2,72.4l9.8-19.9h-4l-9.9,19.9h4.1ZM125.5,69c1-.5,1.7-1.2,2.3-2.1s.9-1.9.9-3-.2-1.7-.6-2.4-1-1.4-1.7-1.8c-.7-.5-1.5-.8-2.4-.9l4.2-4.4-.8-1.6h-10.3v3.5h5.2c0,0-3.4,3.8-3.4,3.8l.9,2.4c.9-.4,1.7-.7,2.5-.7s1.4.2,1.8.6c.4.4.7.9.7,1.6s-.2,1.2-.7,1.6-1,.6-1.7.6-1.3-.2-1.8-.5c-.6-.3-1.1-.9-1.6-1.7l-3.1,1.9c.8,1.4,1.8,2.4,2.8,2.9,1,.6,2.2.8,3.6.8s2.3-.3,3.2-.8M73.4,69v-3.7h-6l1.9-2.1c1.2-1.3,2.1-2.5,2.6-3.5s.7-1.9.7-2.8-.2-1.8-.7-2.5-1.1-1.3-1.9-1.7-1.7-.6-2.7-.6-1.8.2-2.6.6c-.8.4-1.5.9-2.2,1.7-.6.7-1.1,1.5-1.4,2.4l3.1,1.7c.7-1.6,1.6-2.4,2.7-2.4s1,0,1.3.4c.3.3.4.6.4,1s-.2.9-.5,1.4-.7,1.1-1.1,1.6-.8,1-1.2,1.4l-4.8,5.2.8,1.9s11.6,0,11.6,0ZM50.1,64.3c-.6-.9-.8-2.1-.8-3.7s.3-2.9.8-3.8c.6-.9,1.3-1.3,2.3-1.3s1.8.4,2.3,1.3c.5.9.8,2.1.8,3.8s-.3,2.8-.8,3.7-1.3,1.3-2.3,1.3-1.8-.4-2.3-1.3M57.8,67c1.3-1.5,1.9-3.6,1.9-6.3s-.6-4.8-1.9-6.3c-1.3-1.5-3-2.2-5.3-2.2s-4.1.7-5.3,2.2-1.9,3.6-1.9,6.3.6,4.8,1.9,6.3c1.2,1.5,3,2.2,5.3,2.2s4.1-.7,5.3-2.2M42.8,68.6c.4-.4.6-.9.6-1.6s-.2-1.2-.6-1.6c-.4-.4-.9-.6-1.5-.6s-1.1.2-1.5.6-.6.9-.6,1.6.2,1.2.5,1.6c.4.4.9.6,1.6.6s1.1-.2,1.5-.6M27.7,64.3c-.6-.9-.8-2.1-.8-3.7s.3-2.9.8-3.8c.6-.9,1.3-1.3,2.3-1.3s1.8.4,2.3,1.3c.5.9.8,2.1.8,3.8s-.3,2.8-.8,3.7-1.3,1.3-2.3,1.3-1.8-.4-2.3-1.3M35.4,67c1.3-1.5,1.9-3.6,1.9-6.3s-.6-4.8-1.9-6.3c-1.3-1.5-3-2.2-5.3-2.2s-4.1.7-5.3,2.2c-1.2,1.5-1.9,3.6-1.9,6.3s.6,4.8,1.9,6.3c1.2,1.5,3,2.2,5.3,2.2s4.1-.7,5.3-2.2M20.8,69v-3.7h-3.2v-13.1h-2.8l-4.8,2.3.7,3.8,2.7-1.2v8.2h-3.1v3.7h10.5Z"/>
        <path class="cls-3" d="M84.7,68.2c.9-.4,1.7-1,2.2-1.8.6-.7.8-1.6.8-2.5s-.2-1.9-.7-2.6c-.5-.7-1.1-1.2-1.9-1.6,1.3-.8,2-1.9,2-3.3s-.3-1.7-.8-2.3c-.5-.7-1.2-1.2-2-1.6-.9-.4-1.8-.6-2.9-.6s-2,.2-2.8.6c-.9.4-1.5.9-2,1.6-.5.7-.8,1.5-.8,2.3s.2,1.3.5,1.9c.3.6.8,1,1.4,1.4-.8.4-1.4,1-1.9,1.6-.4.7-.6,1.5-.6,2.6s.3,1.8.8,2.5c.6.7,1.3,1.3,2.2,1.8.9.4,2,.7,3.1.7s2.2-.2,3.2-.6"/>
        <path class="cls-7" d="M80.2,57.8c-.4-.3-.5-.7-.5-1.2s.2-.9.5-1.2c.4-.3.8-.5,1.4-.5s1,.2,1.4.5.5.7.5,1.2-.2.9-.5,1.2c-.4.3-.8.5-1.4.5s-1-.2-1.4-.5"/>
        <path class="cls-7" d="M80,65c-.4-.4-.6-.8-.6-1.4s.2-1,.6-1.4.9-.6,1.6-.6,1.2.2,1.6.6c.4.4.6.9.6,1.4s-.2,1-.6,1.4-1,.5-1.6.5-1.1-.2-1.6-.6"/>
      </g>
    </g>
  </g>
</svg>