<?xml version="1.0" encoding="utf-8"?>
<!-- Generator: Adobe Illustrator 26.3.1, SVG Export Plug-In . SVG Version: 6.00 Build 0)  -->
<svg version="1.1" id="Capa_1" xmlns="http://www.w3.org/2000/svg" xmlns:xlink="http://www.w3.org/1999/xlink" x="0px" y="0px"
	 viewBox="0 0 65 36.5" style="enable-background:new 0 0 65 36.5;" xml:space="preserve">
<style type="text/css">
	.st0{fill:#193255;}
	.st1{fill:#009C8C;}
</style>
<g>
	<path class="st0" d="M31.7,24.9V6.5c0-0.2-0.1-0.4-0.4-0.4l-3.7,0.5c-0.2,0-0.4,0.2-0.4,0.4v17.9c0,0.2,0.2,0.4,0.4,0.4h3.7
		C31.5,25.2,31.7,25.1,31.7,24.9 M48.6,9.5V6.8c0-0.2-0.2-0.4-0.4-0.4H36.8c-0.2,0-0.4,0.2-0.4,0.4v18c0,0.2,0.2,0.4,0.4,0.4h3.6
		c0.2,0,0.4-0.2,0.4-0.4v-6.4h6.5c0.2,0,0.4-0.2,0.4-0.4v-2.6c0-0.2-0.2-0.4-0.4-0.4h-6.5V9.9h7.3C48.4,9.9,48.6,9.7,48.6,9.5
		 M65,19.7c0-4.8-3-5.4-5.8-5.9c-2-0.3-3.7-0.5-3.7-2.3c0-1.8,1.4-2.1,3-2.1c1.6,0,3.2,0.4,4.8,0.8c0.4,0.1,0.6-0.2,0.6-0.4l0.4-2.1
		c0.1-0.5-0.2-0.6-0.5-0.7c-0.6-0.2-3-0.9-5.8-0.9c-4,0-7,1.3-7,5.9c0,4.4,3.3,5.2,5.7,5.6c2,0.4,3.6,0.5,3.6,2.3
		c0,1.7-1.3,2.2-3.1,2.2c-2.1,0-4.5-0.7-5.1-0.9c-0.3-0.1-0.6,0-0.7,0.4l-0.3,2c-0.1,0.6,0.1,0.7,0.4,0.8c0.4,0.2,3.1,1,6.4,1
		C61.7,25.5,65,24.1,65,19.7"/>
	<path class="st0" d="M2.3,0.6c0,0,0.3-0.6,1-0.6h4.4c0,0,0.7,0,1,0.6l2.2,3.8c0,0,0.3,0.6,0,1.2L8.7,9.3c0,0-0.3,0.6-1,0.6H3.3
		c0,0-0.7,0-1-0.6L0.1,5.5c0,0-0.3-0.6,0-1.2L2.3,0.6z"/>
	<path class="st1" d="M12,18.1c0,0,0.3-0.6,1-0.6h4.4c0,0,0.7,0,1,0.6l2.2,3.8c0,0,0.3,0.6,0,1.2l-2.2,3.8c0,0-0.3,0.6-1,0.6h-4.4
		c0,0-0.7,0-1-0.6L9.8,23c0,0-0.3-0.6,0-1.2L12,18.1z"/>
	<path class="st1" d="M12,6.7c0,0,0.3-0.6,1-0.6h4.4c0,0,0.7,0,1,0.6l2.2,3.8c0,0,0.3,0.6,0,1.2l-2.2,3.8c0,0-0.3,0.6-1,0.6h-4.4
		c0,0-0.7,0-1-0.6l-2.2-3.8c0,0-0.3-0.6,0-1.2L12,6.7z"/>
	<path class="st1" d="M31.3,30.7v-0.6c0-0.1-0.1-0.1-0.1-0.1h-3.9c-0.1,0-0.1,0.1-0.1,0.1v6.1c0,0.1,0.1,0.1,0.1,0.1h0.8
		c0.1,0,0.1-0.1,0.1-0.1v-2.3h2.7c0.1,0,0.1-0.1,0.1-0.1v-0.6c0-0.1-0.1-0.1-0.1-0.1h-2.7v-2.2h3C31.2,30.8,31.3,30.7,31.3,30.7
		 M36.2,34.1c0-1.3-0.2-2.4-2.1-2.4c-1.9,0-2.1,1.1-2.1,2.4c0,1.3,0.2,2.4,2.1,2.4C36,36.5,36.2,35.4,36.2,34.1 M35.2,34.1
		c0,1.1,0,1.7-1.1,1.7c-1.1,0-1.1-0.6-1.1-1.7c0-1.1,0-1.7,1.1-1.7C35.1,32.4,35.2,33,35.2,34.1 M41.2,34.1c0-1.3-0.2-2.4-2.1-2.4
		c-1.9,0-2.1,1.1-2.1,2.4c0,1.3,0.2,2.4,2.1,2.4C41,36.5,41.2,35.4,41.2,34.1 M40.2,34.1c0,1.1,0,1.7-1.1,1.7
		c-1.1,0-1.1-0.6-1.1-1.7c0-1.1,0-1.7,1.1-1.7C40.2,32.4,40.2,33,40.2,34.1 M46.3,35.6V30c0-0.1,0-0.1-0.1-0.1L45.4,30
		c-0.1,0-0.1,0.1-0.1,0.2v1.2l0.1,0.5c-0.2-0.1-0.7-0.2-1.3-0.2c-1.5,0-2,0.8-2,2.4c0,1.7,0.5,2.4,2.2,2.4c0.6,0,1.1-0.1,1.4-0.2
		C46.2,36.2,46.3,35.9,46.3,35.6 M45.3,35.7c-0.1,0-0.5,0.1-0.9,0.1c-0.8,0-1.2-0.2-1.2-1.7c0-1.5,0.3-1.7,1.2-1.7
		c0.4,0,0.9,0.1,1,0.1V35.7z"/>
</g>
</svg>
