<?xml version="1.0" encoding="utf-8"?>
<!-- Generator: Adobe Illustrator 24.0.3, SVG Export Plug-In . SVG Version: 6.00 Build 0)  -->
<svg version="1.1" id="Capa_1" xmlns="http://www.w3.org/2000/svg" xmlns:xlink="http://www.w3.org/1999/xlink" x="0px" y="0px"
	 viewBox="0 0 79.48 111.22" style="enable-background:new 0 0 79.48 111.22;" xml:space="preserve">
<style type="text/css">
	.st0{clip-path:url(#SVGID_2_);fill:#FFFFFF;}
	.st1{fill:#FFFFFF;}
	.st2{clip-path:url(#SVGID_4_);fill:#FFFFFF;}
	.st3{clip-path:url(#SVGID_6_);fill:#FFFFFF;}
	.st4{clip-path:url(#SVGID_8_);fill:#FFFFFF;}
	.st5{clip-path:url(#SVGID_10_);fill:#FFFFFF;}
	.st6{clip-path:url(#SVGID_12_);fill:#FFFFFF;}
	.st7{fill:#7DAC37;}
	.st8{fill:#D7D2E6;}
	.st9{fill:#21315C;}
	.st10{fill:#299A85;}
	.st11{clip-path:url(#SVGID_14_);fill:#21315C;}
	.st12{clip-path:url(#SVGID_16_);fill:#21315C;}
	.st13{clip-path:url(#SVGID_18_);fill:#21315C;}
	.st14{clip-path:url(#SVGID_20_);fill:#FFFFFF;}
	.st15{clip-path:url(#SVGID_22_);fill:#299A85;}
	.st16{fill:#727574;}
	.st17{fill:#CF6A34;}
	.st18{fill:#707070;}
	.st19{clip-path:url(#SVGID_24_);fill:#236FB2;}
	.st20{fill:#9E142E;}
	.st21{fill:none;stroke:#861833;stroke-width:3.021;}
	.st22{clip-path:url(#SVGID_26_);fill:#FFFFFF;}
	.st23{clip-path:url(#SVGID_26_);fill:none;stroke:#861833;stroke-width:3.021;}
	.st24{clip-path:url(#SVGID_28_);}
	.st25{clip-path:url(#SVGID_30_);}
	.st26{clip-path:url(#SVGID_30_);fill:#9E1332;}
	.st27{fill:#9E1332;}
</style>
<rect x="0" y="31.73" class="st8" width="79.48" height="79.48"/>
<polygon class="st9" points="35.1,100.06 20.21,100.06 12.76,87.51 20.21,74.95 35.1,74.95 42.53,87.51 "/>
<polygon class="st9" points="35.1,73.32 20.21,73.32 12.76,60.76 20.21,48.2 35.1,48.2 42.53,60.76 "/>
<polygon class="st10" points="59.27,60.47 44.39,60.47 36.94,47.92 44.39,35.34 59.27,35.34 66.71,47.92 "/>
<rect class="st8" width="79.48" height="29.56"/>
<g>
	<defs>
		<rect id="SVGID_13_" y="0" width="79.48" height="111.22"/>
	</defs>
	<clipPath id="SVGID_2_">
		<use xlink:href="#SVGID_13_"  style="overflow:visible;"/>
	</clipPath>
	<path style="clip-path:url(#SVGID_2_);fill:#21315C;" d="M70.65,3.11h1.84V9.2l0.38,0.37h0.65v1.56h-0.98
		c-0.62,0-1.1-0.2-1.44-0.59c-0.29-0.33-0.44-0.74-0.44-1.21V3.11z"/>
	<path style="clip-path:url(#SVGID_2_);fill:#21315C;" d="M58.14,5.06h1.79v0.5c0.38-0.38,0.85-0.57,1.42-0.57
		c0.56,0,1.02,0.17,1.37,0.52c0.4,0.4,0.61,0.99,0.61,1.74v3.87h-1.85V7.49c0-0.31-0.1-0.53-0.29-0.67l-0.46-0.17l-0.46,0.17
		C60.08,6.96,60,7.19,60,7.49v3.64h-1.85V5.06z"/>
	<path style="clip-path:url(#SVGID_2_);fill:#21315C;" d="M48.83,2.86c0.22-0.21,0.49-0.32,0.8-0.32c0.3,0,0.56,0.11,0.79,0.32
		c0.22,0.23,0.34,0.49,0.34,0.81c0,0.3-0.12,0.56-0.34,0.78C50.2,4.68,49.93,4.8,49.63,4.8c-0.31,0-0.58-0.12-0.8-0.34
		c-0.22-0.22-0.34-0.49-0.34-0.78C48.5,3.35,48.61,3.09,48.83,2.86"/>
	<path style="clip-path:url(#SVGID_2_);fill:#21315C;" d="M35.41,18.21v-5.35h-1.23v1.61c-0.23-0.23-0.53-0.35-0.91-0.35
		c-0.4,0-0.73,0.13-0.98,0.37c-0.17,0.18-0.29,0.45-0.34,0.79c-0.03,0.19-0.04,0.47-0.04,0.92c0,0.45,0.01,0.74,0.04,0.93
		c0.05,0.34,0.17,0.6,0.34,0.78c0.24,0.24,0.58,0.36,0.99,0.36c0.37,0,0.68-0.12,0.94-0.38v0.33H35.41z M34.18,16.18
		c0,0.35-0.04,0.57-0.08,0.71l-0.43,0.26l-0.43-0.26c-0.06-0.13-0.08-0.35-0.08-0.71c0-0.33,0.03-0.55,0.08-0.69l0.43-0.25
		l0.43,0.25C34.15,15.63,34.18,15.85,34.18,16.18"/>
	<path style="clip-path:url(#SVGID_2_);fill:#21315C;" d="M25.58,8.69V7.87c0-0.83-0.24-1.49-0.7-2.03
		c-0.51-0.57-1.18-0.85-2.03-0.85c-0.81,0-1.45,0.27-1.95,0.81c-0.5,0.57-0.76,1.33-0.76,2.3c0,2.06,0.96,3.1,2.88,3.1
		c0.54,0,0.99-0.08,1.37-0.25c0.33-0.13,0.66-0.37,0.99-0.7l-1.11-1.11c-0.34,0.33-0.75,0.5-1.25,0.5c-0.33,0-0.59-0.08-0.79-0.29
		c-0.19-0.17-0.28-0.39-0.28-0.65H25.58z M23.74,7.45h-1.81l0.1-0.47c0.15-0.3,0.42-0.46,0.8-0.46c0.28,0,0.5,0.08,0.66,0.25
		C23.66,6.96,23.74,7.17,23.74,7.45"/>
	<path style="clip-path:url(#SVGID_2_);fill:#21315C;" d="M8.34,13.82H7.91l-0.25,0.24v0.26h0.68v0.96H7.67v2.93H6.43v-2.93H6.06
		v-0.96h0.37v-0.35c0-0.31,0.1-0.59,0.3-0.81c0.23-0.24,0.55-0.38,0.96-0.38h0.66V13.82z"/>
</g>
<rect x="6.54" y="5.3" class="st9" width="1.85" height="5.83"/>
<g>
	<defs>
		<rect id="SVGID_15_" y="0" width="79.48" height="111.22"/>
	</defs>
	<clipPath id="SVGID_4_">
		<use xlink:href="#SVGID_15_"  style="overflow:visible;"/>
	</clipPath>
	<path style="clip-path:url(#SVGID_4_);fill:#21315C;" d="M8.26,4.46C8.03,4.68,7.77,4.8,7.46,4.8c-0.31,0-0.57-0.11-0.8-0.34
		C6.44,4.24,6.33,3.97,6.33,3.67c0-0.32,0.11-0.58,0.34-0.81c0.22-0.21,0.48-0.32,0.8-0.32c0.31,0,0.57,0.11,0.8,0.32
		c0.21,0.23,0.33,0.49,0.33,0.81C8.59,3.97,8.47,4.24,8.26,4.46"/>
	<path style="clip-path:url(#SVGID_4_);fill:#21315C;" d="M12.45,16.58v-0.54c0-0.56-0.15-1-0.47-1.34
		c-0.33-0.38-0.78-0.57-1.35-0.57c-0.54,0-0.97,0.18-1.3,0.54c-0.34,0.37-0.51,0.88-0.51,1.53c0,1.38,0.64,2.07,1.91,2.07
		c0.36,0,0.66-0.05,0.91-0.16l0.66-0.48l-0.73-0.73c-0.23,0.22-0.51,0.33-0.84,0.33l-0.53-0.2l-0.18-0.44H12.45z M11.23,15.77h-1.2
		l0.07-0.31l0.53-0.34l0.43,0.18L11.23,15.77z"/>
	<path style="clip-path:url(#SVGID_4_);fill:#21315C;" d="M12.38,6.66l-0.47,0.17c-0.19,0.14-0.28,0.37-0.28,0.67v3.63H9.79V5.06
		h1.79v0.5c0.37-0.37,0.85-0.57,1.41-0.57c0.56,0,1.01,0.18,1.36,0.52c0.41,0.4,0.62,0.99,0.62,1.75v3.87h-1.85V7.5
		c0-0.31-0.09-0.54-0.28-0.67L12.38,6.66z"/>
	<path style="clip-path:url(#SVGID_4_);fill:#21315C;" d="M16.37,18.21v-2.62c0-0.97-0.59-1.47-1.78-1.47
		c-0.35,0-0.62,0.05-0.85,0.12l-0.63,0.43l0.77,0.77l0.65-0.28c0.4,0,0.62,0.16,0.62,0.5v0.1h-0.82c-0.45,0-0.8,0.12-1.04,0.37
		c-0.23,0.21-0.34,0.47-0.34,0.81c0,0.39,0.13,0.71,0.36,0.95c0.24,0.24,0.57,0.35,0.97,0.35c0.35,0,0.65-0.12,0.89-0.37v0.33H16.37
		z M15.14,16.7l-0.13,0.4l-0.49,0.16c-0.27,0-0.41-0.12-0.41-0.35l0.4-0.33h0.63V16.7z"/>
	<path style="clip-path:url(#SVGID_4_);fill:#21315C;" d="M19.19,15.28h-0.64v1.65l0.25,0.25h0.38v1.03h-0.61
		c-0.42,0-0.74-0.13-0.97-0.4c-0.2-0.2-0.29-0.48-0.29-0.8v-1.73h-0.37v-0.96h0.37v-1.16h1.23v1.16h0.64V15.28z"/>
	<path style="clip-path:url(#SVGID_4_);fill:#21315C;" d="M19.26,6.72H18.3V9.2l0.37,0.37h0.58v1.56h-0.92
		c-0.62,0-1.11-0.19-1.44-0.59c-0.29-0.33-0.44-0.74-0.44-1.21V6.72H15.9V5.3h0.56V3.56h1.84V5.3h0.96V6.72z"/>
	<path style="clip-path:url(#SVGID_4_);fill:#21315C;" d="M20.33,17.91c-0.28-0.27-0.41-0.66-0.41-1.16v-2.57h1.23v2.4l0.18,0.46
		l0.31,0.1l0.3-0.1l0.19-0.46v-2.4h1.23v4.03h-1.2v-0.33c-0.24,0.26-0.56,0.38-0.94,0.38C20.86,18.26,20.55,18.14,20.33,17.91"/>
	<path style="clip-path:url(#SVGID_4_);fill:#21315C;" d="M26.22,26.33c-0.47,0.32-1.08,0.48-1.84,0.48c-0.58,0-1.03-0.05-1.35-0.12
		c-0.49-0.15-0.91-0.38-1.29-0.77l1.2-1.19c0.34,0.34,0.83,0.51,1.48,0.51c0.53,0,0.8-0.14,0.8-0.4c0-0.23-0.16-0.35-0.44-0.39
		l-0.94-0.08c-1.18-0.11-1.77-0.69-1.77-1.76c0-0.62,0.26-1.12,0.76-1.49c0.45-0.33,1-0.5,1.65-0.5c1.1,0,1.9,0.24,2.39,0.74
		l-1.13,1.12c-0.25-0.23-0.67-0.34-1.29-0.34c-0.4,0-0.59,0.11-0.59,0.34l0.4,0.33l0.93,0.11c0.61,0.04,1.06,0.25,1.38,0.6
		c0.29,0.32,0.43,0.72,0.43,1.23C27.01,25.43,26.75,25.96,26.22,26.33"/>
	<path style="clip-path:url(#SVGID_4_);fill:#21315C;" d="M26.47,15.45l-0.45-0.22l-0.3,0.1l-0.19,0.47v2.4H24.3v-4.03h1.2v0.32
		c0.25-0.26,0.57-0.39,0.95-0.39c0.38,0,0.7,0.13,0.95,0.39L26.47,15.45z"/>
	<path style="clip-path:url(#SVGID_4_);fill:#21315C;" d="M30.96,22.34H30v2.47l0.37,0.37h0.58v1.55h-0.92
		c-0.63,0-1.11-0.19-1.45-0.57c-0.29-0.35-0.43-0.74-0.43-1.23v-2.6h-0.57v-1.42h0.57v-1.73H30v1.73h0.96V22.34z"/>
	<path style="clip-path:url(#SVGID_4_);fill:#21315C;" d="M31.32,16.58v-0.54c0-0.56-0.16-1-0.47-1.34
		c-0.33-0.38-0.79-0.57-1.34-0.57c-0.54,0-0.97,0.18-1.31,0.54c-0.34,0.37-0.51,0.88-0.51,1.53c0,1.38,0.65,2.07,1.93,2.07
		c0.35,0,0.66-0.05,0.91-0.16l0.66-0.48l-0.74-0.73c-0.22,0.22-0.49,0.33-0.83,0.33l-0.53-0.2l-0.19-0.44H31.32z M30.09,15.77h-1.21
		l0.08-0.31l0.53-0.34l0.44,0.18L30.09,15.77z"/>
	<path style="clip-path:url(#SVGID_4_);fill:#21315C;" d="M29.95,6.98l-0.67-0.32l-0.46,0.17c-0.19,0.14-0.28,0.38-0.28,0.67v3.63
		H26.7V5.07h1.79v0.5c0.38-0.38,0.85-0.57,1.44-0.57c0.57,0,1.05,0.19,1.42,0.57L29.95,6.98z"/>
	<path style="clip-path:url(#SVGID_4_);fill:#21315C;" d="M36.84,26.73v-3.93c0-1.46-0.88-2.19-2.67-2.19
		c-0.52,0-0.94,0.05-1.26,0.18c-0.31,0.1-0.64,0.32-0.94,0.62l1.15,1.16c0.27-0.28,0.59-0.41,0.96-0.41c0.61,0,0.92,0.26,0.92,0.76
		v0.16h-1.23c-0.68,0-1.2,0.17-1.58,0.54c-0.32,0.32-0.49,0.73-0.49,1.22c0,0.59,0.18,1.05,0.54,1.43c0.36,0.35,0.84,0.52,1.45,0.52
		c0.53,0,0.98-0.18,1.35-0.54v0.49H36.84z M35,24.46c0,0.29-0.06,0.5-0.18,0.62c-0.16,0.14-0.41,0.21-0.74,0.21
		c-0.4,0-0.6-0.17-0.6-0.5c0-0.32,0.19-0.46,0.59-0.46H35V24.46z"/>
	<path style="clip-path:url(#SVGID_4_);fill:#21315C;" d="M37.23,11.13h-1.85V7.5c0-0.31-0.1-0.54-0.28-0.67l-0.46-0.17l-0.46,0.17
		c-0.19,0.14-0.28,0.37-0.28,0.67v3.63h-1.84V5.06h1.79v0.5c0.38-0.38,0.84-0.57,1.41-0.57c0.57,0,1.02,0.17,1.37,0.52
		c0.41,0.4,0.61,0.99,0.61,1.75V11.13z"/>
	<path style="clip-path:url(#SVGID_4_);fill:#21315C;" d="M43.32,26.73h-1.86v-3.62c0-0.31-0.09-0.54-0.28-0.69l-0.45-0.16
		l-0.47,0.16c-0.19,0.15-0.28,0.37-0.28,0.69v3.62h-1.84v-6.06h1.79v0.5c0.38-0.38,0.85-0.56,1.42-0.56c0.56,0,1.01,0.17,1.37,0.51
		c0.4,0.41,0.61,0.99,0.61,1.74V26.73z"/>
	<path style="clip-path:url(#SVGID_4_);fill:#21315C;" d="M43.33,11.13V7.2c0-1.48-0.9-2.21-2.68-2.21c-0.52,0-0.94,0.06-1.26,0.18
		c-0.33,0.12-0.64,0.32-0.95,0.63l1.14,1.15c0.27-0.27,0.6-0.4,0.98-0.4c0.61,0,0.91,0.24,0.91,0.74v0.15h-1.23
		c-0.67,0-1.19,0.19-1.56,0.56c-0.34,0.32-0.49,0.72-0.49,1.22c0,0.58,0.17,1.06,0.53,1.43c0.36,0.36,0.84,0.53,1.45,0.53
		c0.53,0,0.99-0.18,1.35-0.55v0.49H43.33z M41.48,8.86c0,0.28-0.06,0.49-0.18,0.6c-0.16,0.14-0.4,0.23-0.73,0.23
		c-0.41,0-0.61-0.17-0.61-0.5c0-0.32,0.2-0.49,0.59-0.49h0.93V8.86z"/>
	<path style="clip-path:url(#SVGID_4_);fill:#21315C;" d="M44.21,5.3h0.55V3.56h1.86V5.3h0.95v1.42h-0.95V9.2l0.37,0.37h0.58v1.56
		h-0.92c-0.62,0-1.1-0.19-1.44-0.58c-0.29-0.33-0.44-0.74-0.44-1.21V6.72h-0.55V5.3z"/>
	<path style="clip-path:url(#SVGID_4_);fill:#21315C;" d="M49.69,26.73v-8.02h-1.85v2.4c-0.34-0.33-0.78-0.5-1.35-0.5
		c-0.61,0-1.1,0.18-1.46,0.56c-0.27,0.25-0.44,0.64-0.51,1.15c-0.04,0.26-0.06,0.73-0.06,1.38c0,0.67,0.02,1.12,0.06,1.4
		c0.07,0.51,0.24,0.88,0.51,1.15c0.36,0.37,0.85,0.55,1.47,0.55c0.56,0,1.02-0.19,1.4-0.56v0.49H49.69z M47.83,23.7
		c0,0.5-0.04,0.86-0.12,1.05c-0.11,0.27-0.32,0.39-0.64,0.39c-0.32,0-0.53-0.12-0.64-0.39c-0.09-0.18-0.13-0.54-0.13-1.05
		c0-0.5,0.04-0.84,0.13-1.05c0.11-0.25,0.32-0.39,0.64-0.39c0.32,0,0.53,0.14,0.64,0.39C47.79,22.86,47.83,23.2,47.83,23.7"/>
</g>
<rect x="48.7" y="5.3" class="st9" width="1.84" height="5.83"/>
<g>
	<defs>
		<rect id="SVGID_17_" y="0" width="79.48" height="111.22"/>
	</defs>
	<clipPath id="SVGID_6_">
		<use xlink:href="#SVGID_17_"  style="overflow:visible;"/>
	</clipPath>
	<path style="clip-path:url(#SVGID_6_);fill:#21315C;" d="M55.82,26.73v-3.93c0-1.46-0.89-2.19-2.68-2.19
		c-0.51,0-0.93,0.05-1.26,0.18c-0.32,0.1-0.63,0.32-0.95,0.62l1.15,1.16c0.28-0.28,0.6-0.41,0.97-0.41c0.61,0,0.91,0.26,0.91,0.76
		v0.16h-1.22c-0.69,0-1.21,0.17-1.58,0.54c-0.32,0.32-0.49,0.73-0.49,1.22c0,0.59,0.18,1.05,0.54,1.43
		c0.35,0.35,0.83,0.52,1.45,0.52c0.53,0,0.98-0.18,1.35-0.54v0.49H55.82z M53.98,24.46c0,0.29-0.06,0.5-0.18,0.62
		c-0.15,0.14-0.4,0.21-0.73,0.21c-0.4,0-0.61-0.17-0.61-0.5c0-0.32,0.19-0.46,0.58-0.46h0.94V24.46z"/>
	<path style="clip-path:url(#SVGID_6_);fill:#21315C;" d="M56.96,8.1c0-0.6-0.05-1.07-0.14-1.41c-0.1-0.34-0.27-0.65-0.53-0.91
		c-0.48-0.52-1.13-0.78-1.95-0.78c-0.82,0-1.47,0.27-1.95,0.78c-0.25,0.26-0.43,0.57-0.52,0.91c-0.09,0.34-0.14,0.81-0.14,1.41
		c0,0.61,0.05,1.07,0.14,1.42c0.09,0.33,0.27,0.63,0.52,0.91c0.48,0.52,1.13,0.77,1.95,0.77c0.82,0,1.47-0.26,1.95-0.77
		c0.26-0.28,0.43-0.58,0.53-0.91C56.91,9.16,56.96,8.7,56.96,8.1 M55.11,8.1c0,0.44-0.02,0.76-0.08,0.94
		c-0.11,0.33-0.35,0.49-0.69,0.49c-0.34,0-0.58-0.16-0.69-0.49c-0.05-0.18-0.08-0.5-0.08-0.94c0-0.46,0.03-0.77,0.08-0.93
		c0.11-0.34,0.34-0.5,0.69-0.5c0.34,0,0.58,0.17,0.69,0.5C55.09,7.33,55.11,7.64,55.11,8.1"/>
	<path style="clip-path:url(#SVGID_6_);fill:#21315C;" d="M60.37,22.6l-0.67-0.33l-0.46,0.16c-0.19,0.15-0.28,0.37-0.28,0.69v3.61
		h-1.85v-6.06h1.79v0.51c0.38-0.38,0.86-0.56,1.44-0.56c0.57,0,1.05,0.18,1.43,0.56L60.37,22.6z"/>
	<path style="clip-path:url(#SVGID_6_);fill:#21315C;" d="M67.48,26.73v-8.02h-1.84v2.4c-0.33-0.33-0.79-0.5-1.36-0.5
		c-0.61,0-1.09,0.18-1.46,0.56c-0.26,0.25-0.43,0.64-0.51,1.15c-0.04,0.26-0.05,0.73-0.05,1.38c0,0.67,0.01,1.12,0.05,1.4
		c0.08,0.51,0.25,0.88,0.51,1.15c0.37,0.37,0.86,0.55,1.47,0.55c0.55,0,1.02-0.19,1.4-0.56v0.49H67.48z M65.64,23.7
		c0,0.5-0.04,0.86-0.12,1.05c-0.11,0.27-0.33,0.39-0.64,0.39c-0.32,0-0.53-0.12-0.65-0.39c-0.08-0.18-0.12-0.54-0.12-1.05
		c0-0.5,0.04-0.84,0.12-1.05c0.12-0.25,0.33-0.39,0.65-0.39c0.31,0,0.53,0.14,0.64,0.39C65.6,22.86,65.64,23.2,65.64,23.7"/>
	<path style="clip-path:url(#SVGID_6_);fill:#21315C;" d="M69.43,11.13V7.2c0-1.48-0.9-2.21-2.68-2.21c-0.52,0-0.93,0.06-1.26,0.18
		c-0.33,0.12-0.64,0.32-0.95,0.63l1.15,1.15c0.27-0.27,0.58-0.4,0.97-0.4c0.6,0,0.9,0.24,0.9,0.74v0.15h-1.23
		c-0.68,0-1.2,0.19-1.56,0.56c-0.34,0.32-0.51,0.72-0.51,1.22c0,0.58,0.18,1.06,0.54,1.43c0.35,0.36,0.84,0.53,1.44,0.53
		c0.53,0,0.99-0.18,1.36-0.55v0.49H69.43z M67.58,8.86c0,0.28-0.06,0.49-0.18,0.6c-0.16,0.14-0.41,0.23-0.73,0.23
		c-0.42,0-0.61-0.17-0.61-0.5c0-0.32,0.19-0.49,0.58-0.49h0.94V8.86z"/>
	<path style="clip-path:url(#SVGID_6_);fill:#21315C;" d="M72.77,26.33c-0.46,0.32-1.08,0.48-1.83,0.48c-0.58,0-1.03-0.05-1.35-0.12
		c-0.49-0.15-0.91-0.38-1.29-0.77l1.21-1.19c0.34,0.34,0.83,0.51,1.48,0.51c0.53,0,0.8-0.14,0.8-0.4c0-0.23-0.15-0.35-0.44-0.39
		l-0.94-0.08c-1.18-0.11-1.76-0.69-1.76-1.76c0-0.62,0.25-1.12,0.75-1.49c0.45-0.33,1-0.5,1.66-0.5c1.09,0,1.89,0.24,2.39,0.74
		l-1.13,1.12c-0.25-0.23-0.67-0.34-1.28-0.34c-0.4,0-0.59,0.11-0.59,0.34l0.38,0.33l0.93,0.11c0.61,0.04,1.07,0.25,1.38,0.6
		c0.29,0.32,0.44,0.72,0.44,1.23C73.56,25.43,73.3,25.96,72.77,26.33"/>
	<path style="clip-path:url(#SVGID_6_);fill:#21315C;" d="M73.8,14.78c0-1.15-0.94-2.09-2.09-2.09c-1.16,0-2.09,0.94-2.09,2.09
		c0,1.16,0.93,2.1,2.09,2.1C72.87,16.88,73.8,15.95,73.8,14.78 M72.29,14.93l0.5,0.97h-0.66l-0.41-0.86h-0.2v0.86h-0.57v-2.33h0.92
		l0.6,0.24l0.2,0.51C72.66,14.59,72.54,14.81,72.29,14.93 M72.03,14.48l0.06-0.16l-0.06-0.15l-0.18-0.09h-0.33v0.47h0.33
		L72.03,14.48z"/>
</g>
<rect x="42.28" y="43.02" class="st1" width="2.48" height="10.09"/>
<polygon class="st1" points="53.67,45.24 49.28,45.24 49.28,47.01 53.03,47.01 53.03,49.21 49.28,49.21 49.28,53.11 46.8,53.11 
	46.8,43.02 53.67,43.02 "/>
<g>
	<defs>
		<rect id="SVGID_19_" y="0" width="79.48" height="111.22"/>
	</defs>
	<clipPath id="SVGID_8_">
		<use xlink:href="#SVGID_19_"  style="overflow:visible;"/>
	</clipPath>
	<path class="st4" d="M62.04,50.01c0,1-0.39,1.79-1.15,2.36c-0.71,0.54-1.62,0.83-2.75,0.83c-1.69,0-2.97-0.44-3.83-1.34l1.59-1.59
		c0.47,0.49,1.23,0.72,2.25,0.72c0.97,0,1.45-0.3,1.45-0.91c0-0.5-0.29-0.77-0.86-0.87l-1.22-0.18c-1.81-0.24-2.72-1.22-2.72-2.9
		c0-0.95,0.33-1.71,1-2.32c0.66-0.58,1.56-0.89,2.68-0.89c1.47,0,2.6,0.41,3.4,1.2l-1.55,1.57c-0.4-0.41-1.04-0.62-1.92-0.62
		c-0.39,0-0.71,0.1-0.93,0.31l-0.28,0.64l0.21,0.47c0.14,0.16,0.37,0.25,0.68,0.29l1.22,0.18c0.93,0.13,1.61,0.42,2.06,0.92
		C61.82,48.37,62.04,49.08,62.04,50.01"/>
</g>
<polygon class="st10" points="32.37,103.28 30.01,103.28 30.01,104.24 32.03,104.24 32.03,105.43 30.01,105.43 30.01,107.55 
	28.66,107.55 28.66,102.09 32.37,102.09 "/>
<g>
	<defs>
		<rect id="SVGID_21_" y="0" width="79.48" height="111.22"/>
	</defs>
	<clipPath id="SVGID_10_">
		<use xlink:href="#SVGID_21_"  style="overflow:visible;"/>
	</clipPath>
	<path style="clip-path:url(#SVGID_10_);fill:#299A85;" d="M37.21,104.81c0-0.56-0.01-0.94-0.06-1.17c-0.07-0.4-0.25-0.74-0.5-0.98
		c-0.41-0.41-0.92-0.62-1.53-0.62c-0.61,0-1.12,0.21-1.53,0.62c-0.26,0.24-0.42,0.58-0.49,0.98c-0.05,0.24-0.06,0.61-0.06,1.17
		c0,0.56,0.01,0.95,0.06,1.18c0.07,0.4,0.23,0.73,0.49,0.99c0.41,0.42,0.92,0.62,1.53,0.62c0.61,0,1.12-0.2,1.53-0.62
		c0.25-0.26,0.43-0.59,0.5-0.99C37.2,105.76,37.21,105.37,37.21,104.81 M35.87,104.81c0,0.72-0.07,1.16-0.2,1.33l-0.55,0.26
		l-0.54-0.26c-0.13-0.17-0.19-0.61-0.19-1.33c0-0.72,0.06-1.17,0.19-1.34l0.54-0.24l0.54,0.24
		C35.81,103.65,35.87,104.1,35.87,104.81"/>
	<path style="clip-path:url(#SVGID_10_);fill:#299A85;" d="M42.12,104.81c0-0.56-0.02-0.94-0.06-1.17c-0.07-0.4-0.24-0.74-0.5-0.98
		c-0.41-0.41-0.92-0.62-1.52-0.62c-0.61,0-1.12,0.21-1.53,0.62c-0.26,0.24-0.42,0.58-0.49,0.98c-0.05,0.24-0.05,0.61-0.05,1.17
		c0,0.56,0.01,0.95,0.05,1.18c0.07,0.4,0.24,0.73,0.49,0.99c0.41,0.42,0.92,0.62,1.53,0.62c0.6,0,1.11-0.2,1.52-0.62
		c0.25-0.26,0.42-0.59,0.5-0.99C42.11,105.76,42.12,105.37,42.12,104.81 M40.78,104.81c0,0.72-0.06,1.16-0.19,1.33l-0.54,0.26
		l-0.55-0.26c-0.13-0.17-0.19-0.61-0.19-1.33c0-0.72,0.07-1.17,0.2-1.34l0.54-0.24l0.54,0.24C40.72,103.65,40.78,104.1,40.78,104.81
		"/>
	<path style="clip-path:url(#SVGID_10_);fill:#299A85;" d="M47.12,104.81c0-0.61-0.01-1.01-0.05-1.18
		c-0.06-0.39-0.24-0.73-0.52-1.01c-0.36-0.37-0.84-0.54-1.48-0.54h-2.02v5.46h2.02c0.63,0,1.12-0.18,1.48-0.54
		c0.28-0.27,0.46-0.61,0.52-1.01C47.11,105.82,47.12,105.43,47.12,104.81 M45.78,104.81c0,0.44-0.01,0.75-0.03,0.9l-0.11,0.33
		c-0.14,0.2-0.35,0.31-0.64,0.31H44.4v-3.08h0.59c0.3,0,0.5,0.09,0.64,0.31C45.73,103.73,45.78,104.14,45.78,104.81"/>
</g>
</svg>
