<?xml version="1.0" encoding="UTF-8"?>
<svg id="Capa_2" data-name="Capa 2" xmlns="http://www.w3.org/2000/svg" viewBox="0 0 187.44 126.81">
  <defs>
    <style>
      .cls-1 {
        fill: #1c1d1c;
      }

      .cls-2 {
        fill: #9e1830;
      }

      .cls-3 {
        fill: #fff;
      }
    </style>
  </defs>
  <g id="Capa_1-2" data-name="Capa 1">
    <g>
      <path class="cls-3" d="M93.72,125.28c50.91,0,92.18-27.7,92.18-61.87S144.63,1.53,93.72,1.53,1.53,29.24,1.53,63.41s41.27,61.87,92.18,61.87"/>
      <path class="cls-2" d="M93.72,3.07C43.73,3.07,3.07,30.14,3.07,63.41s40.67,60.34,90.65,60.34,90.65-27.07,90.65-60.34S143.7,3.07,93.72,3.07M93.72,126.81C42.04,126.81,0,98.37,0,63.41S42.04,0,93.72,0s93.72,28.44,93.72,63.41-42.04,63.41-93.72,63.41"/>
      <path class="cls-1" d="M87.9,92.2c2.93,0,5.54-1.46,7.13-3.7l-2.9-2.38c-.86,1.39-2.4,2.38-4.22,2.38-2.76,0-4.85-2.28-4.85-5.02s2.09-5.02,4.85-5.02c1.82,0,3.36.98,4.22,2.38l2.9-2.38c-1.58-2.23-4.2-3.7-7.13-3.7-4.8,0-8.71,3.91-8.71,8.71s3.91,8.71,8.71,8.71M96.99,92.01h10.56v-3.79h-6.72v-2.88h5.28v-3.7h-5.28v-2.88h6.72v-3.79h-10.56v17.04Z"/>
      <path class="cls-1" d="M82.25,46.28h10.56v-3.79h-6.72v-2.88h5.28v-3.7h-5.28v-2.88h6.72v-3.79h-10.56v17.04ZM100.29,46.47c3.17,0,5.42-1.99,5.42-5.06,0-2.35-1.37-4.06-3.72-5.11l-.91-.41c-1.56-.7-2.3-1.18-2.3-2.06,0-.77.67-1.18,1.32-1.18.79,0,1.32.22,2.18,1.27l2.59-2.74c-1.44-1.68-2.88-2.14-4.78-2.14-2.71,0-5.18,1.94-5.18,4.92,0,2.3,1.42,4.2,3.98,5.35l.96.43c1.44.65,1.99,1.13,1.99,1.9s-.5,1.22-1.63,1.22-2.4-.94-3.14-2.11l-2.9,2.38c1.18,2.21,3.38,3.34,6.12,3.34"/>
      <g>
        <polygon class="cls-1" points="20.67 68.99 20.67 65.22 17.46 65.22 17.46 51.95 14.6 51.95 9.78 54.28 10.48 58.12 13.24 56.87 13.24 65.22 10.09 65.22 10.09 68.99 20.67 68.99"/>
        <path class="cls-1" d="M35.52,54.22c-1.27-1.51-3.08-2.27-5.41-2.27s-4.11.76-5.38,2.27c-1.26,1.51-1.9,3.64-1.9,6.37s.63,4.86,1.9,6.37c1.26,1.51,3.06,2.27,5.38,2.27s4.14-.76,5.41-2.27c1.27-1.51,1.91-3.64,1.91-6.37s-.64-4.86-1.91-6.37ZM32.47,64.29c-.55.87-1.34,1.31-2.36,1.31s-1.79-.44-2.35-1.31c-.56-.87-.84-2.11-.84-3.71s.28-2.94.84-3.83c.56-.89,1.34-1.33,2.35-1.33s1.81.44,2.36,1.33c.55.89.83,2.16.83,3.83s-.28,2.84-.83,3.71Z"/>
        <path class="cls-1" d="M43.04,68.64c.4-.41.6-.94.6-1.6,0-.7-.19-1.24-.56-1.62-.38-.38-.9-.56-1.57-.56s-1.16.2-1.55.61c-.39.41-.59.93-.59,1.57,0,.7.18,1.25.55,1.63.37.38.9.58,1.58.58.62,0,1.14-.2,1.54-.61"/>
        <path class="cls-1" d="M58.24,54.22c-1.27-1.51-3.08-2.27-5.41-2.27s-4.11.76-5.38,2.27c-1.26,1.51-1.9,3.64-1.9,6.37s.63,4.86,1.9,6.37c1.26,1.51,3.06,2.27,5.38,2.27s4.14-.76,5.41-2.27c1.27-1.51,1.91-3.64,1.91-6.37s-.64-4.86-1.91-6.37ZM55.19,64.29c-.55.87-1.34,1.31-2.36,1.31s-1.79-.44-2.35-1.31c-.56-.87-.84-2.11-.84-3.71s.28-2.94.84-3.83,1.34-1.33,2.35-1.33,1.81.44,2.36,1.33c.55.89.83,2.16.83,3.83s-.28,2.84-.83,3.71Z"/>
        <path class="cls-1" d="M74.86,69.19v-3.77h-6.1l1.97-2.16c1.23-1.36,2.1-2.55,2.59-3.56.5-1.02.74-1.95.74-2.8,0-.98-.24-1.83-.72-2.57-.48-.74-1.12-1.31-1.93-1.72-.81-.41-1.72-.62-2.72-.64-.94,0-1.83.2-2.66.6-.83.4-1.57.96-2.21,1.68-.64.72-1.13,1.54-1.46,2.47l3.19,1.7c.75-1.63,1.66-2.45,2.74-2.45.59,0,1.03.14,1.32.43.29.29.43.64.43,1.06s-.16.87-.48,1.42c-.32.54-.7,1.09-1.15,1.63-.45.54-.86,1.02-1.22,1.42l-4.87,5.28.82,1.97h11.73Z"/>
        <path class="cls-1" d="M118.52,69.19v-3.77h-6.1l1.97-2.16c1.23-1.36,2.1-2.55,2.59-3.56.5-1.02.74-1.95.74-2.8,0-.98-.24-1.83-.72-2.57-.48-.74-1.12-1.31-1.93-1.72-.81-.41-1.72-.62-2.72-.64-.94,0-1.83.2-2.66.6-.83.4-1.57.96-2.21,1.68-.64.72-1.13,1.54-1.46,2.47l3.19,1.7c.75-1.63,1.66-2.45,2.74-2.45.59,0,1.03.14,1.32.43.29.29.43.64.43,1.06s-.16.87-.48,1.42c-.32.54-.7,1.09-1.15,1.63-.45.54-.86,1.02-1.22,1.42l-4.87,5.28.82,1.97h11.73Z"/>
        <polygon class="cls-1" points="135.13 72.42 145.09 52.19 141.03 52.19 131.03 72.42 135.13 72.42"/>
        <path class="cls-1" d="M86.77,68.53c.95-.43,1.71-1.03,2.28-1.79.57-.76.85-1.62.85-2.58,0-1.04-.24-1.91-.71-2.62-.47-.7-1.1-1.25-1.88-1.63,1.33-.82,1.99-1.93,1.99-3.34,0-.9-.26-1.69-.77-2.38-.51-.69-1.2-1.23-2.08-1.62-.87-.39-1.84-.59-2.89-.59s-2.02.2-2.88.59c-.86.39-1.56.93-2.08,1.62-.52.69-.78,1.48-.78,2.38,0,.69.18,1.32.53,1.88.35.57.83,1.04,1.44,1.43-.83.42-1.46.97-1.88,1.67-.42.7-.64,1.56-.64,2.6,0,.96.28,1.82.84,2.57s1.32,1.35,2.27,1.79c.95.44,2.01.66,3.18.66s2.25-.22,3.2-.65M82.17,58c-.37-.32-.55-.73-.55-1.22s.18-.91.55-1.25c.37-.34.83-.5,1.39-.5s1.05.17,1.42.5c.37.34.55.75.55,1.25s-.18.9-.55,1.22c-.37.32-.84.48-1.42.48s-1.02-.16-1.39-.48M81.98,65.28c-.43-.38-.65-.84-.65-1.4s.22-1.06.65-1.44c.43-.38.96-.58,1.58-.58.66,0,1.2.19,1.62.58.42.38.64.86.64,1.44s-.22,1.05-.65,1.42c-.43.37-.97.55-1.61.55s-1.15-.19-1.58-.56"/>
        <g>
          <path class="cls-1" d="M146.4,68.67v-16.5h4.48v6.44h5.93v-6.44h4.48v16.5h-4.48v-6.44h-5.93v6.44h-4.48Z"/>
          <path class="cls-1" d="M173.18,52.17h4.48v10.57c0,1.26-.3,2.34-.9,3.26-.6.92-1.43,1.62-2.5,2.12-1.07.5-2.31.75-3.72.75s-2.67-.25-3.74-.75c-1.07-.5-1.9-1.2-2.49-2.12-.59-.92-.89-2-.89-3.26v-10.57h4.48v10.18c0,.51.11.97.34,1.37.23.4.54.71.94.94.4.23.86.34,1.37.34s.97-.11,1.37-.34c.4-.23.71-.54.93-.94.23-.4.34-.85.34-1.37v-10.18Z"/>
        </g>
        <path class="cls-1" d="M129.84,68.61c.98-.51,1.75-1.21,2.33-2.09.58-.88.86-1.88.86-3,0-.9-.21-1.72-.64-2.47s-1-1.38-1.72-1.87c-.72-.5-1.52-.81-2.4-.94l4.25-4.49-.79-1.58h-10.44v3.6l5.28.12-3.41,3.7.94,2.45c.94-.45,1.78-.67,2.5-.67.77,0,1.37.19,1.81.56.44.38.66.92.66,1.62s-.24,1.22-.71,1.64c-.47.42-1.04.64-1.69.64s-1.28-.17-1.86-.52c-.58-.34-1.13-.92-1.64-1.74l-3.1,1.97c.85,1.42,1.79,2.42,2.83,2.99,1.04.57,2.26.85,3.65.85,1.22,0,2.31-.26,3.29-.77"/>
        <path class="cls-1" d="M101.51,68.61c.98-.51,1.75-1.21,2.33-2.09.58-.88.86-1.88.86-3,0-.9-.21-1.72-.64-2.47s-1-1.38-1.72-1.87c-.72-.5-1.52-.81-2.4-.94l4.25-4.49-.79-1.58h-10.44v3.6l5.28.12-3.41,3.7.94,2.45c.94-.45,1.78-.67,2.5-.67.77,0,1.37.19,1.81.56.44.38.66.92.66,1.62s-.24,1.22-.71,1.64c-.47.42-1.04.64-1.69.64s-1.28-.17-1.86-.52c-.58-.34-1.13-.92-1.64-1.74l-3.1,1.97c.85,1.42,1.79,2.42,2.83,2.99,1.04.57,2.26.85,3.65.85,1.22,0,2.31-.26,3.29-.77"/>
      </g>
    </g>
  </g>
</svg>