<?xml version="1.0" encoding="utf-8"?>
<!-- Generator: Adobe Illustrator 24.0.3, SVG Export Plug-In . SVG Version: 6.00 Build 0)  -->
<svg version="1.1" id="Capa_1" xmlns="http://www.w3.org/2000/svg" xmlns:xlink="http://www.w3.org/1999/xlink" x="0px" y="0px"
	 viewBox="0 0 103.2 100.84" style="enable-background:new 0 0 103.2 100.84;" xml:space="preserve">
<style type="text/css">
	.st0{clip-path:url(#SVGID_2_);fill:#FFFFFF;}
	.st1{fill:#FFFFFF;}
	.st2{clip-path:url(#SVGID_4_);fill:#FFFFFF;}
	.st3{clip-path:url(#SVGID_6_);fill:#FFFFFF;}
	.st4{clip-path:url(#SVGID_8_);fill:#FFFFFF;}
	.st5{clip-path:url(#SVGID_10_);fill:#FFFFFF;}
	.st6{clip-path:url(#SVGID_12_);fill:#FFFFFF;}
	.st7{fill:#7DAC37;}
	.st8{fill:#D7D2E6;}
	.st9{fill:#21315C;}
	.st10{fill:#299A85;}
	.st11{clip-path:url(#SVGID_14_);fill:#21315C;}
	.st12{clip-path:url(#SVGID_16_);fill:#21315C;}
	.st13{clip-path:url(#SVGID_18_);fill:#21315C;}
	.st14{clip-path:url(#SVGID_20_);fill:#FFFFFF;}
	.st15{clip-path:url(#SVGID_22_);fill:#299A85;}
	.st16{fill:#727574;}
	.st17{fill:#CF6A34;}
	.st18{fill:#707070;}
	.st19{clip-path:url(#SVGID_24_);fill:#236FB2;}
	.st20{fill:#9E142E;}
	.st21{fill:none;stroke:#861833;stroke-width:3.021;}
	.st22{clip-path:url(#SVGID_26_);fill:#FFFFFF;}
	.st23{clip-path:url(#SVGID_26_);fill:none;stroke:#861833;stroke-width:3.021;}
	.st24{clip-path:url(#SVGID_28_);}
	.st25{clip-path:url(#SVGID_30_);}
	.st26{clip-path:url(#SVGID_30_);fill:#9E1332;}
	.st27{fill:#9E1332;}
</style>
<g>
	<defs>
		<rect id="SVGID_9_" width="103.2" height="100.84"/>
	</defs>
	<clipPath id="SVGID_2_">
		<use xlink:href="#SVGID_9_"  style="overflow:visible;"/>
	</clipPath>
	<path class="st0" d="M64.68,96.72c-2.43-0.75-2.92-2.84-2.77-5.15h3.51c0,1.6,0.06,2.94,1.99,2.94c1.18,0,1.76-0.76,1.76-1.9
		c0-3-7.05-3.19-7.05-8.17c0-2.61,1.26-4.7,5.52-4.7c3.41,0,5.12,1.53,4.88,5.02H69.1c0-1.25-0.21-2.52-1.63-2.52
		c-1.13,0-1.81,0.62-1.81,1.78c0,3.17,7.06,2.9,7.06,8.15c0,2.9-1.43,4.09-3.17,4.56"/>
	<path class="st0" d="M81.25,85.15c0.03-1.55-0.24-2.91-2.1-2.91c-2.18,0-2.18,2.94-2.18,6.18c0,5.23,0.51,6.15,2.5,6.15
		c0.59,0,1.22-0.13,1.74-0.32v-3.71h-1.91v-2.57h5.42v8.47c-0.38,0.08-0.96,0.18-1.63,0.27h-5.99c-3.25-0.81-3.68-3.39-3.68-8.49
		c0-4.21,0.21-8.49,5.94-8.49c3.43,0,5.56,1.92,5.36,5.42"/>
	<path class="st0" d="M91.35,79.74c3.06-0.01,4.73,1.19,4.97,3.88v1.14h-3.41c0-1.22-0.3-2.52-1.72-2.52
		c-1.14,0-1.82,0.62-1.82,1.78c0,2.93,6.03,2.92,6.94,7.05v2.42c-0.38,1.96-1.6,2.84-3.04,3.23h-4.89
		c-2.42-0.75-2.91-2.84-2.76-5.15h3.5c0,1.6,0.08,2.94,1.99,2.94c1.19,0,1.77-0.76,1.77-1.9c0-3.01-7.06-3.2-7.06-8.17
		C85.83,81.83,87.08,79.75,91.35,79.74"/>
</g>
<polygon class="st1" points="96.29,76.66 96.29,96.71 52.35,96.71 52.35,97.39 96.29,97.39 96.29,100.84 96.97,100.84 96.97,97.39 
	103.2,97.39 103.2,96.71 96.97,96.71 96.97,76.66 "/>
<g>
	<defs>
		<rect id="SVGID_11_" width="103.2" height="100.84"/>
	</defs>
	<clipPath id="SVGID_4_">
		<use xlink:href="#SVGID_11_"  style="overflow:visible;"/>
	</clipPath>
	<path class="st2" d="M39.95,52.61V40.19l8.27,8.27L66.98,29.7c-0.01-0.01-0.04-0.02-0.05-0.04c0-0.01,0-0.01-0.01-0.01
		c-4.8-4.75-11.41-7.67-18.69-7.67c-14.72,0-26.64,11.93-26.64,26.65c0,14.71,11.92,26.64,26.64,26.64
		c14.72,0,26.64-11.93,26.64-26.64c0-4.2-0.96-8.16-2.69-11.69L48.23,60.89"/>
	<path class="st2" d="M26.9,81.4l-1.42-0.99c-0.74,0.24-1.51,0.23-2.25,0.17l-0.99,1.42c0.6,0.06,1.23,0.08,1.84,0.02l-4.06,5.81
		l1.6,1.12L26.9,81.4z M20.66,82.57c2.38-2.59,2.9-3.72,1.25-5.22c-1.64-1.5-2.72-0.89-5.1,1.69c-1.94,2.14-3.07,3.63-1.28,5.27
		C17.32,85.95,18.72,84.7,20.66,82.57 M19.3,81.36c-1.88,2.05-2.33,2.45-2.87,1.96c-0.53-0.49-0.18-0.98,1.7-3.03
		c1.92-2.09,2.29-2.48,2.87-1.96C21.57,78.85,21.22,79.27,19.3,81.36 M18.33,73.59c-1.43-1.71-2.57-1.25-5.28,1.01
		c-2.22,1.85-3.52,3.19-1.97,5.05c1.57,1.86,3.11,0.81,5.33-1.04C19.11,76.35,19.76,75.3,18.33,73.59 M15.22,77.23
		c-2.14,1.79-2.63,2.11-3.1,1.56c-0.47-0.56-0.05-0.99,2.08-2.78c2.17-1.81,2.59-2.16,3.1-1.57C17.8,75.05,17.39,75.41,15.22,77.23
		 M15.24,69.36c-1.09-1.72-2.62-1.38-4.14-0.42c-1.04,0.66-1.83,1.78-1.09,2.95c0.31,0.49,0.74,0.82,1.32,0.94
		C9.49,74,8.9,74.49,8.42,73.73c-0.15-0.23-0.14-0.43-0.05-0.61c0.09-0.18,0.27-0.33,0.48-0.45l-0.97-1.54
		c-1.49,0.91-1.47,1.96-0.63,3.28c1.41,2.23,3.47,0.97,5.39-0.25C14.83,72.77,16.67,71.63,15.24,69.36 M13.28,71.6
		c-0.48,0.31-1.4,0.85-1.82,0.19c-0.41-0.65,0.45-1.2,0.93-1.51c0.49-0.3,1.39-0.87,1.8-0.2C14.6,70.73,13.76,71.29,13.28,71.6
		 M12.12,62.34c-1.15-3.01-3.4-2.15-5.74-1.25c-2.33,0.89-4.6,1.75-3.45,4.77c1.15,3,3.42,2.13,5.74,1.24
		C11.03,66.21,13.28,65.35,12.12,62.34 M7.97,65.25c-2.28,0.88-3.32,1.12-3.71,0.1c-0.39-1.03,0.54-1.54,2.82-2.41
		c2.28-0.87,3.32-1.12,3.71-0.1C11.18,63.88,10.25,64.38,7.97,65.25 M10.39,56.46c-0.47-2.34-1.78-2.78-3.24-2.48
		c-2.78,0.56-2.09,4.44-3.77,4.79c-0.64,0.13-1.13-0.11-1.27-0.75c-0.21-1.05,0.53-1.24,1.43-1.42l-0.4-1.92
		c-1.63,0.23-2.96,0.97-2.48,3.34c0.3,1.45,0.94,3.13,3.36,2.63c2.93-0.6,1.99-4.41,3.76-4.78c0.64-0.13,1.06,0.17,1.19,0.79
		c0.16,0.77-0.53,1.04-1.23,1.18l0.39,1.86C10.12,59.42,10.78,58.32,10.39,56.46 M0.18,53.79l9.48-0.85L9.49,51L0,51.85L0.18,53.79z
		"/>
	<path class="st2" d="M97.03,72.84V48.57C97.03,21.74,75.29,0,48.48,0C21.65,0,0.01,20.82,0.01,47.63c0,0.04,9.62,0.04,9.62,0
		c0-21.45,17.39-37.92,38.85-37.92c21.45,0,38.85,17.39,38.85,38.86v24.28H97.03z M11.9,22.05l-0.65,0.98
		c-0.36-0.24-0.76-0.43-1.04-0.02c-0.22,0.33-0.17,0.64,0.16,0.87c0.92,0.61,2.19-1.47,3.7-0.45c1.25,0.83,0.78,1.85,0.26,2.61
		c-0.84,1.24-1.72,0.99-2.52,0.38l0.68-1.01c0.46,0.31,0.87,0.55,1.23,0c0.23-0.35,0.13-0.66-0.2-0.88
		c-0.86-0.57-2.28,1.42-3.71,0.45c-0.76-0.5-1.12-1.26-0.29-2.49C10.17,21.5,10.94,21.31,11.9,22.05 M16,20.4l1.53,1.3l-0.79,0.92
		l-1.53-1.3l-3.86-1.3l0.86-1l2.42,0.92l-1.26-2.28l0.8-0.94L16,20.4z M18.88,14.48l-0.86,0.8c-0.29-0.31-0.65-0.58-1-0.25
		c-0.29,0.26-0.31,0.58-0.04,0.87c0.75,0.81,2.47-0.93,3.71,0.4c1.03,1.09,0.34,1.97-0.34,2.6c-1.09,1.03-1.91,0.57-2.54-0.2
		l0.89-0.82c0.38,0.39,0.71,0.73,1.2,0.26c0.3-0.28,0.26-0.61,0-0.89c-0.72-0.76-2.55,0.86-3.72-0.39c-0.61-0.67-0.79-1.49,0.29-2.5
		C17.33,13.55,18.12,13.54,18.88,14.48 M22.49,10.83l-1.08,0.81l2.88,3.86l-0.97,0.73l-2.9-3.87l-1.08,0.81l-0.58-0.78l3.14-2.34
		L22.49,10.83z M27.32,10.51l-1.54,0.92l0.87,1.46l1.73-1.04l0.45,0.76l-2.77,1.66L23.08,9.3l2.72-1.62l0.45,0.76l-1.67,1l0.73,1.22
		l1.54-0.92L27.32,10.51z M34.9,9.87l-1.08,0.47l-1.76-4.12l-0.01,0.01l0.73,4.54l-1.07,0.45l-2.73-3.68h-0.01l1.75,4.1l-1.09,0.47
		l-2.27-5.32l1.79-0.76l2.38,3.26h0.01l-0.65-4l1.73-0.74L34.9,9.87z M39.96,8.67c-1.95,0.42-2.25-1.03-2.57-2.51
		c-0.33-1.5-0.63-2.92,1.33-3.35c1.2-0.25,1.83,0.31,2.04,1.54l-1.15,0.24c-0.16-0.75-0.36-1-0.72-0.93
		c-0.67,0.15-0.61,0.79-0.31,2.24c0.31,1.46,0.54,2.06,1.2,1.92c0.55-0.12,0.38-0.82,0.3-1.28l1.17-0.25
		C41.58,7.81,41.08,8.43,39.96,8.67 M45.86,7.75l-3.21,0.32l-0.59-5.75L45.21,2l0.1,0.88l-1.94,0.19L43.5,4.5l1.79-0.18l0.09,0.88
		l-1.79,0.19l0.18,1.68l2.01-0.22L45.86,7.75z M49.44,4.87v0.01c0.26,0.04,1.05,0.11,1.04,1.15c0,0.37,0.01,1.46,0.12,1.71
		l-1.19-0.01c-0.16-0.35-0.13-0.75-0.13-1.12c0.01-0.69,0.08-1.28-0.85-1.29h-0.31l-0.01,2.4L46.9,7.69l0.04-5.79l2.24,0.02
		c0.83,0,1.36,0.54,1.34,1.52C50.52,4.19,50.23,4.74,49.44,4.87 M55.71,2.46L55.6,3.41l-1.34-0.16l-0.55,4.8l-1.2-0.14l0.55-4.78
		l-1.34-0.15l0.11-0.96L55.71,2.46z M58.2,2.96l-1.14,5.67l-1.19-0.24L57,2.72L58.2,2.96z M62.77,4.15l-0.24,0.86L60.8,4.52
		l-0.4,1.43l1.65,0.47L61.8,7.28L60.15,6.8l-0.68,2.43L58.3,8.9l1.58-5.56L62.77,4.15z M65.14,5.02l-2.01,5.43l-1.14-0.42L64,4.61
		L65.14,5.02z M69.31,8.88l-1.08-0.5c0.34-0.69,0.34-1.01,0.01-1.17c-0.63-0.3-0.98,0.25-1.61,1.59c-0.64,1.33-0.84,1.96-0.21,2.25
		c0.5,0.24,0.79-0.43,1-0.83l1.08,0.51c-0.67,1.4-1.43,1.59-2.46,1.1c-1.8-0.86-1.18-2.18-0.52-3.56c0.65-1.39,1.28-2.71,3.08-1.85
		C69.73,6.95,69.89,7.78,69.31,8.88 M73.96,9.54l-1.76,5.73l-1.08-0.68l0.42-1.25l-1.4-0.88l-0.96,0.91l-1.01-0.63l4.45-4.04
		L73.96,9.54z M78.74,13.09l-0.59,0.75L77.09,13L74.1,16.8l-0.95-0.74l2.98-3.81l-1.07-0.82l0.6-0.76L78.74,13.09z M80.58,14.8
		l-3.93,4.24l-0.88-0.82l3.93-4.25L80.58,14.8z M82.38,20.91c-1.13,1.01-2.23,2-3.56,0.51c-1.33-1.49-0.24-2.48,0.89-3.48
		c1.14-1.03,2.23-1.99,3.57-0.51C84.61,18.92,83.52,19.9,82.38,20.91 M88.17,24.06l-4.78,3.27l-0.9-1.31l2.61-3.7l-0.01-0.01
		l-3.5,2.39l-0.64-0.93l4.78-3.27l0.93,1.35l-2.43,3.53v0.01l3.31-2.25L88.17,24.06z M82.63,18.01c-0.45-0.51-0.99-0.15-2.09,0.83
		c-1.1,0.99-1.53,1.49-1.06,1.99c0.45,0.51,0.99,0.15,2.09-0.84C82.67,19.02,83.08,18.53,82.63,18.01 M71.8,12.44l0.84-2.42
		l-0.01-0.01l-1.81,1.83L71.8,12.44z M49.29,3.58c0.01-0.55-0.23-0.76-0.61-0.76h-0.54v1.61h0.53C49.15,4.43,49.29,3.95,49.29,3.58"
		/>
</g>
</svg>
