<?xml version="1.0" encoding="utf-8"?>
<!-- Generator: Adobe Illustrator 24.0.3, SVG Export Plug-In . SVG Version: 6.00 Build 0)  -->
<svg version="1.1" id="Capa_1" xmlns="http://www.w3.org/2000/svg" xmlns:xlink="http://www.w3.org/1999/xlink" x="0px" y="0px"
	 viewBox="0 0 138.7 135.52" style="enable-background:new 0 0 138.7 135.52;" xml:space="preserve">
<style type="text/css">
	.st0{clip-path:url(#SVGID_2_);fill:#FFFFFF;}
	.st1{fill:#FFFFFF;}
	.st2{clip-path:url(#SVGID_4_);fill:#FFFFFF;}
	.st3{clip-path:url(#SVGID_6_);fill:#FFFFFF;}
	.st4{clip-path:url(#SVGID_8_);fill:#FFFFFF;}
	.st5{clip-path:url(#SVGID_10_);fill:#FFFFFF;}
	.st6{clip-path:url(#SVGID_12_);fill:#FFFFFF;}
	.st7{fill:#7DAC37;}
	.st8{fill:#D7D2E6;}
	.st9{fill:#21315C;}
	.st10{fill:#299A85;}
	.st11{clip-path:url(#SVGID_14_);fill:#21315C;}
	.st12{clip-path:url(#SVGID_16_);fill:#21315C;}
	.st13{clip-path:url(#SVGID_18_);fill:#21315C;}
	.st14{clip-path:url(#SVGID_20_);fill:#FFFFFF;}
	.st15{clip-path:url(#SVGID_22_);fill:#299A85;}
	.st16{fill:#727574;}
	.st17{fill:#CF6A34;}
	.st18{fill:#707070;}
	.st19{clip-path:url(#SVGID_24_);fill:#236FB2;}
	.st20{fill:#9E142E;}
	.st21{fill:none;stroke:#861833;stroke-width:3.021;}
	.st22{clip-path:url(#SVGID_26_);fill:#FFFFFF;}
	.st23{clip-path:url(#SVGID_26_);fill:none;stroke:#861833;stroke-width:3.021;}
	.st24{clip-path:url(#SVGID_28_);}
	.st25{clip-path:url(#SVGID_30_);}
	.st26{clip-path:url(#SVGID_30_);fill:#9E1332;}
	.st27{fill:#9E1332;}
</style>
<g>
	<path class="st16" d="M86.92,129.99c-3.27-1.01-3.93-3.81-3.73-6.93h4.72c0,2.15,0.09,3.95,2.68,3.95c1.58,0,2.36-1.03,2.36-2.55
		c0-4.04-9.47-4.29-9.47-10.98c0-3.51,1.69-6.32,7.41-6.32c4.58,0,6.88,2.05,6.55,6.75h-4.58c0-1.68-0.29-3.39-2.19-3.39
		c-1.52,0-2.43,0.84-2.43,2.39c0,4.26,9.49,3.9,9.49,10.95c0,3.89-1.92,5.5-4.26,6.12"/>
	<path class="st16" d="M109.2,114.44c0.03-2.08-0.32-3.91-2.82-3.91c-2.93,0-2.93,3.95-2.93,8.31c0,7.03,0.69,8.27,3.37,8.27
		c0.79,0,1.64-0.18,2.34-0.43v-4.99h-2.56v-3.45h7.28v11.39c-0.51,0.11-1.3,0.24-2.19,0.37h-8.05c-4.36-1.09-4.95-4.55-4.95-11.42
		c0-5.66,0.28-11.41,7.98-11.41c4.62,0,7.48,2.58,7.21,7.28"/>
	<path class="st16" d="M122.77,107.16c4.11-0.02,6.35,1.61,6.67,5.21v1.54h-4.58c0-1.64-0.4-3.39-2.31-3.39
		c-1.53,0-2.44,0.83-2.44,2.39c0,3.94,8.1,3.93,9.33,9.48v3.25c-0.51,2.63-2.16,3.82-4.09,4.34h-6.58c-3.25-1.01-3.9-3.81-3.7-6.93
		h4.7c0,2.15,0.1,3.95,2.68,3.95c1.6,0,2.38-1.03,2.38-2.55c0-4.04-9.48-4.3-9.48-10.98C115.35,109.97,117.03,107.18,122.77,107.16"
		/>
</g>
<polygon class="st17" points="129.41,103.03 129.41,129.98 70.36,129.98 70.36,130.89 129.41,130.89 129.41,135.52 130.32,135.52 
	130.32,130.89 138.7,130.89 138.7,129.98 130.32,129.98 130.32,103.03 "/>
<g>
	<path class="st17" d="M53.7,70.7V54.02l11.12,11.11l25.2-25.21c-0.02-0.02-0.05-0.03-0.07-0.05c0-0.02,0-0.02-0.02-0.02
		c-6.45-6.38-15.33-10.31-25.12-10.31c-19.78,0-35.8,16.03-35.8,35.82c0,19.77,16.02,35.8,35.8,35.8c19.78,0,35.8-16.03,35.8-35.8
		c0-5.64-1.29-10.97-3.62-15.71L64.82,81.83"/>
	<path class="st17" d="M36.16,109.39l-1.9-1.33c-1,0.32-2.02,0.31-3.02,0.23l-1.33,1.91c0.81,0.08,1.65,0.11,2.48,0.03l-5.46,7.81
		l2.16,1.51L36.16,109.39z M27.76,110.96c3.2-3.48,3.89-5,1.69-7.02c-2.21-2.02-3.66-1.2-6.86,2.28c-2.61,2.87-4.13,4.87-1.72,7.09
		C23.28,115.52,25.15,113.83,27.76,110.96 M25.94,109.35c-2.52,2.76-3.13,3.29-3.86,2.63c-0.71-0.66-0.24-1.32,2.29-4.07
		c2.58-2.8,3.08-3.33,3.86-2.63C29,105.98,28.52,106.54,25.94,109.35 M24.63,98.91c-1.92-2.29-3.45-1.68-7.09,1.36
		c-2.98,2.48-4.73,4.28-2.65,6.78c2.11,2.5,4.17,1.09,7.16-1.4C25.68,102.61,26.55,101.2,24.63,98.91 M20.45,103.8
		c-2.88,2.41-3.54,2.84-4.16,2.1c-0.63-0.75-0.07-1.33,2.8-3.73c2.92-2.44,3.49-2.9,4.16-2.1C23.92,100.86,23.37,101.35,20.45,103.8
		 M20.49,93.21c-1.47-2.31-3.52-1.86-5.56-0.56c-1.4,0.88-2.46,2.39-1.47,3.96c0.42,0.66,0.99,1.11,1.77,1.26
		c-2.47,1.57-3.27,2.23-3.91,1.21c-0.2-0.31-0.19-0.58-0.07-0.82c0.12-0.24,0.37-0.45,0.64-0.61l-1.3-2.07
		c-2.01,1.22-1.97,2.63-0.85,4.41c1.89,3,4.67,1.3,7.25-0.33C19.93,97.8,22.41,96.26,20.49,93.21 M17.84,96.23
		c-0.64,0.42-1.89,1.14-2.45,0.26c-0.55-0.88,0.61-1.62,1.25-2.03c0.66-0.4,1.87-1.17,2.42-0.27C19.63,95.06,18.5,95.81,17.84,96.23
		 M16.29,83.79c-1.55-4.04-4.57-2.89-7.72-1.68c-3.13,1.2-6.18,2.36-4.63,6.41c1.55,4.04,4.6,2.87,7.72,1.67
		C14.83,88.98,17.84,87.83,16.29,83.79 M10.72,87.7c-3.07,1.19-4.46,1.51-4.99,0.13c-0.52-1.38,0.73-2.07,3.79-3.24
		s4.46-1.51,4.99-0.13C15.03,85.85,13.78,86.53,10.72,87.7 M13.97,75.88c-0.64-3.14-2.39-3.74-4.35-3.34
		c-3.74,0.75-2.81,5.97-5.07,6.43c-0.86,0.18-1.52-0.15-1.7-1.01c-0.29-1.41,0.71-1.67,1.92-1.91l-0.54-2.58
		c-2.19,0.31-3.98,1.3-3.34,4.49c0.4,1.95,1.26,4.2,4.52,3.54c3.94-0.8,2.68-5.93,5.05-6.43c0.86-0.18,1.43,0.23,1.6,1.06
		c0.22,1.04-0.71,1.4-1.65,1.59l0.52,2.5C13.6,79.86,14.49,78.38,13.97,75.88 M0.24,72.29l12.74-1.14l-0.22-2.61L0,69.68L0.24,72.29
		z"/>
	<path class="st16" d="M130.4,97.9V65.27C130.4,29.21,101.19,0,65.15,0C29.1,0,0.02,27.98,0.02,64.02c0,0.05,12.93,0.05,12.93,0
		c0-28.83,23.37-50.97,52.21-50.97c28.82,0,52.21,23.38,52.21,52.22V97.9H130.4z M15.99,29.63l-0.88,1.31
		c-0.49-0.32-1.03-0.58-1.4-0.03c-0.3,0.45-0.23,0.87,0.22,1.17c1.23,0.82,2.95-1.97,4.97-0.61c1.68,1.12,1.04,2.49,0.35,3.51
		c-1.13,1.67-2.31,1.33-3.39,0.51l0.91-1.36c0.62,0.42,1.16,0.74,1.65,0c0.3-0.47,0.17-0.88-0.27-1.19
		c-1.16-0.77-3.07,1.91-4.99,0.61c-1.01-0.67-1.5-1.7-0.39-3.35C13.66,28.89,14.71,28.64,15.99,29.63 M21.5,27.42l2.06,1.75
		l-1.06,1.23l-2.06-1.75l-5.19-1.75l1.16-1.35l3.25,1.24l-1.7-3.06l1.08-1.27L21.5,27.42z M25.37,19.47l-1.16,1.07
		c-0.39-0.41-0.88-0.78-1.35-0.33c-0.39,0.35-0.42,0.78-0.05,1.17c1.01,1.09,3.32-1.25,4.99,0.54c1.38,1.46,0.45,2.65-0.46,3.5
		c-1.47,1.38-2.56,0.77-3.42-0.27l1.2-1.11c0.51,0.53,0.96,0.98,1.62,0.35c0.4-0.37,0.35-0.82,0-1.2c-0.96-1.03-3.42,1.15-5-0.53
		c-0.83-0.9-1.06-2,0.39-3.35C23.28,18.21,24.35,18.2,25.37,19.47 M30.23,14.56l-1.45,1.09l3.88,5.19l-1.3,0.98l-3.89-5.19
		l-1.45,1.09l-0.77-1.04l4.21-3.14L30.23,14.56z M36.71,14.12l-2.07,1.24l1.16,1.96l2.32-1.4l0.61,1.03l-3.72,2.23l-3.99-6.67
		l3.66-2.18l0.61,1.03l-2.24,1.35l0.98,1.64l2.07-1.23L36.71,14.12z M46.91,13.26l-1.45,0.62L43.1,8.35l-0.02,0.02l0.98,6.11
		l-1.43,0.61l-3.67-4.95h-0.02l2.36,5.51l-1.47,0.63l-3.05-7.15l2.41-1.03l3.2,4.38h0.02L41.53,7.1l2.32-0.99L46.91,13.26z
		 M53.71,11.66c-2.63,0.56-3.03-1.38-3.45-3.37c-0.44-2.02-0.84-3.93,1.78-4.5c1.62-0.34,2.46,0.42,2.75,2.07l-1.55,0.32
		c-0.22-1.01-0.49-1.35-0.96-1.25c-0.89,0.19-0.83,1.06-0.42,3.01c0.42,1.96,0.73,2.77,1.62,2.58c0.74-0.16,0.51-1.11,0.41-1.72
		l1.57-0.33C55.88,10.5,55.21,11.33,53.71,11.66 M61.63,10.42l-4.31,0.43l-0.79-7.73l4.23-0.43l0.13,1.18l-2.61,0.26l0.18,1.91
		l2.41-0.24l0.12,1.18l-2.41,0.26l0.24,2.26l2.7-0.29L61.63,10.42z M66.45,6.54v0.02c0.35,0.05,1.42,0.15,1.4,1.54
		c0,0.5,0.02,1.96,0.17,2.29l-1.6-0.02c-0.22-0.48-0.17-1.01-0.17-1.5c0.02-0.93,0.1-1.72-1.14-1.73h-0.42l-0.02,3.22l-1.64-0.02
		l0.05-7.77L66.1,2.6c1.11,0,1.82,0.72,1.8,2.04C67.9,5.63,67.51,6.37,66.45,6.54 M74.87,3.3l-0.15,1.29l-1.81-0.21l-0.74,6.44
		l-1.62-0.19L71.3,4.2l-1.8-0.21l0.15-1.28L74.87,3.3z M78.21,3.98l-1.53,7.62l-1.6-0.32l1.54-7.61L78.21,3.98z M84.36,5.58
		l-0.32,1.15l-2.32-0.66L81.18,8l2.22,0.62l-0.34,1.15l-2.22-0.64l-0.91,3.27l-1.58-0.45l2.12-7.47L84.36,5.58z M87.54,6.75
		l-2.7,7.29l-1.53-0.56l2.7-7.29L87.54,6.75z M93.15,11.93l-1.45-0.68c0.46-0.93,0.46-1.36,0.02-1.57c-0.84-0.4-1.31,0.34-2.16,2.13
		c-0.86,1.79-1.13,2.63-0.29,3.03c0.67,0.32,1.06-0.58,1.35-1.12l1.45,0.69c-0.89,1.88-1.92,2.13-3.31,1.47
		c-2.42-1.15-1.58-2.93-0.7-4.78c0.87-1.86,1.71-3.64,4.14-2.49C93.71,9.35,93.93,10.46,93.15,11.93 M99.4,12.83l-2.36,7.7
		l-1.45-0.92l0.56-1.68l-1.89-1.19l-1.3,1.22l-1.36-0.85l5.98-5.43L99.4,12.83z M105.82,17.59l-0.79,1.01l-1.43-1.12l-4.01,5.1
		l-1.28-0.99l4.01-5.12l-1.43-1.11l0.81-1.03L105.82,17.59z M108.3,19.9l-5.29,5.69l-1.18-1.11l5.29-5.71L108.3,19.9z M110.71,28.11
		c-1.52,1.36-3,2.69-4.79,0.69c-1.79-2-0.32-3.33,1.2-4.68c1.54-1.38,3-2.68,4.8-0.69C113.71,25.43,112.24,26.74,110.71,28.11
		 M118.49,32.34l-6.42,4.39l-1.21-1.76l3.5-4.97l-0.01-0.01l-4.7,3.21l-0.86-1.25l6.42-4.39l1.25,1.81l-3.27,4.75v0.02l4.45-3.03
		L118.49,32.34z M111.05,24.21c-0.6-0.69-1.33-0.19-2.81,1.12c-1.49,1.33-2.06,2-1.43,2.68c0.6,0.69,1.33,0.21,2.81-1.12
		C111.1,25.56,111.65,24.9,111.05,24.21 M96.49,16.72l1.13-3.25l-0.02-0.02l-2.42,2.45L96.49,16.72z M66.25,4.81
		c0.02-0.74-0.3-1.03-0.83-1.03H64.7v2.16h0.71C66.06,5.95,66.25,5.31,66.25,4.81"/>
</g>
</svg>
