<?xml version="1.0" encoding="utf-8"?>
<!-- Generator: Adobe Illustrator 24.0.3, SVG Export Plug-In . SVG Version: 6.00 Build 0)  -->
<svg version="1.1" id="Capa_1" xmlns="http://www.w3.org/2000/svg" xmlns:xlink="http://www.w3.org/1999/xlink" x="0px" y="0px"
	 viewBox="0 0 127.33 124.66" style="enable-background:new 0 0 127.33 124.66;" xml:space="preserve">
<style type="text/css">
	.st0{clip-path:url(#SVGID_2_);fill:#FFFFFF;}
	.st1{fill:#FFFFFF;}
	.st2{clip-path:url(#SVGID_4_);fill:#FFFFFF;}
	.st3{clip-path:url(#SVGID_6_);fill:#FFFFFF;}
	.st4{clip-path:url(#SVGID_8_);fill:#FFFFFF;}
	.st5{clip-path:url(#SVGID_10_);fill:#FFFFFF;}
	.st6{clip-path:url(#SVGID_12_);fill:#FFFFFF;}
	.st7{fill:#7DAC37;}
	.st8{fill:#D7D2E6;}
	.st9{fill:#21315C;}
	.st10{fill:#299A85;}
	.st11{clip-path:url(#SVGID_14_);fill:#21315C;}
	.st12{clip-path:url(#SVGID_16_);fill:#21315C;}
	.st13{clip-path:url(#SVGID_18_);fill:#21315C;}
	.st14{clip-path:url(#SVGID_20_);fill:#FFFFFF;}
	.st15{clip-path:url(#SVGID_22_);fill:#299A85;}
	.st16{fill:#727574;}
	.st17{fill:#CF6A34;}
	.st18{fill:#707070;}
	.st19{clip-path:url(#SVGID_24_);fill:#236FB2;}
	.st20{fill:#9E142E;}
	.st21{fill:none;stroke:#861833;stroke-width:3.021;}
	.st22{clip-path:url(#SVGID_26_);fill:#FFFFFF;}
	.st23{clip-path:url(#SVGID_26_);fill:none;stroke:#861833;stroke-width:3.021;}
	.st24{clip-path:url(#SVGID_28_);}
	.st25{clip-path:url(#SVGID_30_);}
	.st26{clip-path:url(#SVGID_30_);fill:#9E1332;}
	.st27{fill:#9E1332;}
</style>
<g>
	<path class="st18" d="M124.75,80.77c-0.73-7.46-0.26-15.15-0.26-18.52C124.49,27.87,96.62,0,62.25,0C27.87,0,0,27.87,0,62.25
		c0,34.38,27.87,62.25,62.25,62.25c4.05,0,12.2-0.79,19.97-0.75c7.85,0.04,15.3,0.91,18.1,0.91c14.92,0,27.02-12.1,27.02-27.02
		C127.33,94.6,125.44,87.79,124.75,80.77 M113.41,99.04l-5.67-6.65l0.9-1.55l8.61,1.61l-0.89,1.52l-1.75-0.35l-1.57,2.69l1.17,1.35
		L113.41,99.04z M111.13,101.95l-5.49-4.16l-1.29,1.7l-1.08-0.82l3.53-4.67l1.08,0.82l-1.29,1.71l5.5,4.16L111.13,101.95z
		 M107.76,105.98l-6.2-5.44l1.04-1.19l6.21,5.44L107.76,105.98z M103.64,110.13l-5.73-5.94l1.14-1.09l4.76,4.93l1.92-1.86l0.97,1
		L103.64,110.13z M96.55,115.84l-2.78-8.29l1.42-1.1l7.39,4.71l-1.39,1.08l-1.49-0.98l-2.47,1.91l0.58,1.68L96.55,115.84z
		 M87.81,112.74c0.1-0.51,0.32-0.99,0.65-1.44c0.34-0.45,0.8-0.85,1.4-1.2c0.25-0.15,0.52-0.28,0.8-0.4
		c0.28-0.12,0.55-0.21,0.82-0.29l0.58,1.33c-0.56,0.14-1.08,0.35-1.56,0.62c-0.33,0.2-0.59,0.42-0.77,0.69
		c-0.18,0.27-0.29,0.55-0.33,0.86c-0.04,0.31-0.02,0.63,0.07,0.97c0.09,0.34,0.24,0.68,0.44,1.03c0.46,0.78,0.97,1.28,1.54,1.5
		c0.57,0.22,1.22,0.12,1.95-0.3c0.22-0.13,0.44-0.29,0.67-0.5c0.23-0.21,0.41-0.41,0.54-0.6l0.88,1.13
		c-0.21,0.25-0.46,0.5-0.73,0.74c-0.28,0.24-0.58,0.45-0.92,0.65c-0.62,0.37-1.2,0.57-1.73,0.63s-1.02-0.01-1.46-0.17
		c-0.44-0.17-0.84-0.43-1.19-0.78c-0.35-0.35-0.65-0.75-0.91-1.19c-0.33-0.56-0.56-1.12-0.68-1.68
		C87.72,113.79,87.71,113.25,87.81,112.74 M25.29,108.49l0.57-0.8l1.63,1.16l3.64-5.11l0.95,0.68l-3.65,5.1l1.62,1.16l-0.57,0.81
		L25.29,108.49z M21.18,103.53c0.08-0.27,0.24-0.53,0.48-0.8c0.2-0.22,0.41-0.38,0.65-0.48c0.23-0.1,0.48-0.16,0.73-0.16
		c0.26-0.01,0.51,0.04,0.77,0.13c0.26,0.09,0.51,0.22,0.74,0.4c0.01-0.16,0.02-0.33,0.03-0.5c0.01-0.17,0.02-0.33,0.04-0.49
		l0.29-3.16L26,99.47l-0.43,3.85l0.04,0.04l2.11-2.32l0.86,0.78l-4.89,5.37c-0.2-0.17-0.43-0.36-0.66-0.56
		c-0.24-0.21-0.51-0.45-0.81-0.72c-0.28-0.25-0.51-0.51-0.69-0.77c-0.18-0.26-0.31-0.53-0.37-0.79
		C21.1,104.07,21.1,103.8,21.18,103.53 M16.47,99.92l3.77-6.74l0.85,0.99l-0.85,1.47l1.92,2.22l1.58-0.62l0.77,0.89l-7.2,2.77
		L16.47,99.92z M11.08,92.47l0.77-0.51l5.58-0.06c0.12-0.01,0.23-0.01,0.34-0.01c0.11,0,0.23,0,0.35,0.01
		c-0.07-0.08-0.18-0.23-0.33-0.47c-0.16-0.24-0.36-0.55-0.62-0.94l-0.95-1.45l0.9-0.59l2.65,4.04l-0.75,0.49l-5.38,0.11
		c-0.17,0.01-0.33,0.01-0.48,0.01c-0.15,0-0.31-0.01-0.47-0.02c0.09,0.13,0.2,0.28,0.32,0.48c0.13,0.19,0.29,0.44,0.49,0.75l1,1.52
		l-0.86,0.57L11.08,92.47z M8.45,87.58l5.35-5.58l0.57,1.17l-1.19,1.21l1.3,2.63l1.68-0.21l0.52,1.06l-7.66,0.88L8.45,87.58z
		 M5.6,79.21c0.17-0.48,0.51-0.81,1.04-0.98c0.35-0.12,0.71-0.12,1.07,0c0.36,0.12,0.66,0.33,0.9,0.65l0.02-0.01
		c-0.03-0.24-0.03-0.45,0.02-0.65c0.05-0.2,0.12-0.38,0.23-0.53c0.11-0.15,0.24-0.29,0.39-0.4c0.15-0.11,0.32-0.2,0.49-0.25
		c0.22-0.08,0.47-0.11,0.75-0.11c0.28,0,0.55,0.07,0.83,0.2c0.28,0.13,0.54,0.35,0.79,0.65c0.25,0.3,0.46,0.72,0.64,1.25
		c0.07,0.21,0.16,0.48,0.26,0.81c0.1,0.33,0.22,0.68,0.34,1.08l-6.88,2.3c-0.1-0.27-0.21-0.59-0.35-0.97
		c-0.13-0.37-0.27-0.77-0.41-1.19C5.48,80.3,5.43,79.68,5.6,79.21 M4.1,75.24l7.06-1.69l0.27,1.13l-7.06,1.69L4.1,75.24z
		 M3.33,71.33l6.17-0.91l-0.36-2.47l1.01-0.15l0.53,3.62L3.5,72.48L3.33,71.33z M2.72,65.96l7.24-0.51l0.08,1.16l-7.24,0.51
		L2.72,65.96z M2.82,59.26c0.15-0.45,0.38-0.83,0.67-1.14c0.3-0.31,0.67-0.54,1.13-0.7c0.45-0.16,0.99-0.22,1.63-0.2
		c0.62,0.02,1.16,0.14,1.63,0.35c0.46,0.21,0.85,0.5,1.16,0.86c0.31,0.37,0.53,0.8,0.67,1.29c0.14,0.5,0.2,1.04,0.19,1.63
		c-0.01,0.37-0.03,0.71-0.05,1.02c-0.02,0.31-0.04,0.61-0.05,0.9l-7.25-0.23c0-0.29,0.01-0.63,0.01-1.02c0-0.4,0.01-0.8,0.02-1.23
		C2.58,60.23,2.67,59.71,2.82,59.26 M3.45,51.87l7.59-1.45l-0.21,1.28l-1.67,0.3l-0.47,2.9l1.49,0.81L10,56.88l-6.75-3.72
		L3.45,51.87z M7.96,42.23c0.48-0.03,1.02,0.06,1.62,0.25c0.6,0.19,1.09,0.45,1.47,0.78c0.39,0.33,0.68,0.71,0.87,1.15
		c0.19,0.43,0.29,0.91,0.29,1.43c0,0.52-0.09,1.06-0.27,1.62c-0.11,0.35-0.22,0.68-0.33,0.97c-0.11,0.29-0.21,0.58-0.3,0.84
		l-6.9-2.21c0.08-0.28,0.17-0.6,0.29-0.98s0.23-0.77,0.36-1.17c0.17-0.54,0.4-1.01,0.66-1.4C6,43.12,6.31,42.81,6.68,42.6
		C7.06,42.38,7.48,42.26,7.96,42.23 M12.38,33.39c0.31,0.16,0.57,0.38,0.77,0.64c0.2,0.26,0.34,0.55,0.42,0.87
		c0.08,0.32,0.09,0.66,0.04,1.03c-0.05,0.36-0.17,0.73-0.37,1.11c-0.04,0.07-0.07,0.15-0.12,0.23c-0.04,0.08-0.09,0.16-0.15,0.24
		l2.37,1.24l-0.54,1.03l-6.43-3.38c0.12-0.25,0.25-0.52,0.38-0.79c0.13-0.28,0.28-0.57,0.44-0.88c0.4-0.77,0.88-1.26,1.44-1.48
		C11.21,33.04,11.78,33.08,12.38,33.39 M12.26,29.64l6.07,3.98l-0.64,0.97l-6.07-3.98L12.26,29.64z M16.93,24.92l-1.64,2.09
		l1.63,1.28l1.56-1.99l0.76,0.6l-1.56,1.99l1.78,1.39l1.64-2.09l0.79,0.62l-2.35,3l-5.71-4.48l2.35-3L16.93,24.92z M22.14,18.08
		l5.08,5.19l-1.08,1.06l-4.67-1.21c-0.3-0.07-0.59-0.16-0.86-0.25c-0.27-0.09-0.53-0.18-0.78-0.28c0.13,0.13,0.29,0.28,0.48,0.45
		c0.19,0.18,0.39,0.37,0.59,0.57c0.21,0.21,0.42,0.42,0.63,0.63c0.22,0.21,0.41,0.41,0.59,0.6l1.71,1.74l-0.82,0.8l-5.08-5.19
		l1.1-1.08l4.48,1.15c0.31,0.08,0.61,0.17,0.91,0.27c0.3,0.1,0.59,0.19,0.87,0.29c-0.16-0.14-0.34-0.31-0.54-0.51
		c-0.21-0.2-0.42-0.41-0.64-0.63c-0.22-0.22-0.45-0.44-0.67-0.66c-0.22-0.22-0.43-0.43-0.61-0.62l-1.5-1.54L22.14,18.08z
		 M30.61,17.79c0.21,0.27,0.34,0.55,0.41,0.85c0.07,0.3,0.07,0.61,0,0.91c-0.07,0.31-0.2,0.61-0.4,0.91
		c-0.2,0.3-0.48,0.58-0.82,0.84c-0.21,0.16-0.42,0.31-0.64,0.44c-0.22,0.13-0.42,0.24-0.63,0.32l-0.62-0.92
		c0.21-0.07,0.43-0.16,0.67-0.29c0.24-0.12,0.46-0.27,0.68-0.43c0.16-0.12,0.29-0.26,0.41-0.4c0.11-0.14,0.19-0.29,0.24-0.44
		c0.05-0.15,0.06-0.3,0.03-0.46c-0.03-0.16-0.1-0.31-0.22-0.47c-0.15-0.2-0.34-0.31-0.55-0.33c-0.22-0.02-0.45-0.01-0.7,0.04
		c-0.25,0.06-0.52,0.13-0.8,0.22c-0.28,0.09-0.55,0.15-0.83,0.17c-0.28,0.02-0.55-0.02-0.83-0.11c-0.27-0.1-0.53-0.3-0.77-0.61
		c-0.19-0.24-0.31-0.51-0.38-0.78c-0.06-0.28-0.06-0.56,0.01-0.85c0.07-0.29,0.2-0.57,0.4-0.86c0.2-0.28,0.47-0.55,0.8-0.81
		c0.17-0.13,0.35-0.25,0.54-0.36c0.19-0.11,0.38-0.22,0.58-0.33l0.58,0.87c-0.2,0.08-0.4,0.17-0.6,0.28
		c-0.2,0.11-0.39,0.23-0.56,0.36c-0.36,0.28-0.57,0.56-0.64,0.85c-0.07,0.29-0.01,0.55,0.18,0.79c0.15,0.19,0.33,0.3,0.54,0.32
		c0.22,0.02,0.45,0,0.7-0.05c0.25-0.06,0.51-0.13,0.8-0.22c0.28-0.08,0.56-0.14,0.84-0.16c0.28-0.02,0.55,0.02,0.82,0.11
		C30.13,17.29,30.38,17.49,30.61,17.79 M37.39,15.16c-0.11,0.44-0.3,0.85-0.58,1.21c-0.28,0.36-0.62,0.66-1.04,0.9
		c-0.48,0.28-0.93,0.44-1.37,0.5c-0.44,0.06-0.86,0.01-1.25-0.13c-0.4-0.14-0.76-0.37-1.1-0.69c-0.34-0.32-0.65-0.72-0.93-1.21
		c-0.3-0.52-0.49-1.03-0.57-1.53c-0.08-0.5-0.06-0.97,0.05-1.41c0.11-0.44,0.3-0.84,0.58-1.2c0.28-0.36,0.62-0.66,1.04-0.9
		c0.42-0.24,0.84-0.4,1.26-0.47c0.42-0.07,0.84-0.04,1.23,0.08c0.4,0.12,0.78,0.34,1.15,0.66c0.37,0.31,0.7,0.74,1.01,1.26
		c0.3,0.52,0.49,1.03,0.57,1.53C37.52,14.24,37.5,14.71,37.39,15.16 M43.24,12.17c-0.01,0.31-0.09,0.6-0.24,0.88
		c-0.14,0.28-0.35,0.54-0.63,0.78c-0.27,0.24-0.61,0.44-1.01,0.6c-0.25,0.1-0.49,0.18-0.73,0.26c-0.24,0.07-0.47,0.12-0.69,0.14
		l-0.36-1.05c0.22-0.01,0.46-0.04,0.73-0.1c0.26-0.06,0.52-0.14,0.76-0.24c0.18-0.07,0.35-0.17,0.5-0.28
		c0.15-0.1,0.26-0.22,0.35-0.36c0.08-0.13,0.14-0.28,0.15-0.44c0.01-0.16-0.01-0.33-0.09-0.51c-0.1-0.23-0.25-0.39-0.45-0.46
		c-0.2-0.08-0.43-0.13-0.69-0.14c-0.26-0.02-0.53-0.01-0.82,0c-0.29,0.01-0.58,0-0.85-0.06c-0.27-0.05-0.53-0.16-0.77-0.32
		c-0.24-0.16-0.43-0.42-0.58-0.79c-0.12-0.28-0.17-0.57-0.16-0.86c0.01-0.29,0.08-0.56,0.22-0.82c0.14-0.26,0.35-0.5,0.61-0.72
		c0.27-0.22,0.59-0.41,0.99-0.57c0.2-0.08,0.4-0.15,0.62-0.21c0.21-0.06,0.43-0.12,0.64-0.17l0.34,0.99
		c-0.22,0.02-0.44,0.06-0.66,0.11c-0.22,0.05-0.43,0.12-0.63,0.2c-0.42,0.17-0.69,0.39-0.83,0.65c-0.14,0.26-0.15,0.53-0.04,0.81
		c0.09,0.22,0.24,0.38,0.44,0.45c0.2,0.07,0.43,0.12,0.69,0.13c0.26,0.01,0.53,0.01,0.83,0c0.29-0.01,0.58,0.01,0.85,0.06
		c0.27,0.05,0.53,0.16,0.76,0.32c0.24,0.16,0.43,0.41,0.57,0.76C43.19,11.55,43.25,11.86,43.24,12.17 M52.6,10.58
		c-0.24,0.17-0.51,0.32-0.82,0.46c-0.31,0.13-0.63,0.24-0.97,0.32c-0.59,0.14-1.12,0.17-1.57,0.09c-0.45-0.08-0.84-0.25-1.17-0.5
		c-0.33-0.25-0.6-0.57-0.81-0.95c-0.21-0.38-0.37-0.81-0.49-1.29c-0.13-0.55-0.18-1.08-0.15-1.57c0.03-0.5,0.15-0.95,0.36-1.36
		c0.21-0.41,0.51-0.75,0.9-1.04c0.39-0.29,0.88-0.51,1.48-0.65c0.27-0.06,0.54-0.1,0.81-0.13c0.28-0.03,0.54-0.04,0.8-0.04
		l0.12,1.07c-0.56-0.04-1.09,0-1.58,0.12c-0.37,0.09-0.67,0.23-0.91,0.42c-0.24,0.2-0.42,0.43-0.54,0.71
		c-0.12,0.28-0.19,0.58-0.2,0.92c-0.01,0.34,0.03,0.69,0.12,1.06c0.19,0.83,0.52,1.42,0.99,1.78c0.46,0.36,1.08,0.45,1.86,0.27
		c0.25-0.06,0.5-0.15,0.76-0.27c0.26-0.12,0.48-0.26,0.65-0.4L52.6,10.58z M59.77,7.91c-0.14,0.49-0.35,0.91-0.63,1.27
		c-0.28,0.36-0.62,0.64-1.03,0.85c-0.4,0.21-0.84,0.34-1.32,0.39c-0.55,0.05-1.03,0.01-1.46-0.12c-0.42-0.13-0.78-0.34-1.08-0.64
		c-0.3-0.29-0.54-0.66-0.71-1.09c-0.17-0.43-0.29-0.93-0.34-1.49c-0.05-0.6-0.01-1.14,0.12-1.63c0.14-0.49,0.35-0.91,0.63-1.26
		c0.28-0.35,0.63-0.63,1.03-0.85c0.4-0.21,0.84-0.34,1.32-0.38c0.48-0.04,0.93-0.01,1.35,0.1c0.41,0.11,0.78,0.31,1.09,0.58
		c0.31,0.28,0.57,0.64,0.77,1.07c0.2,0.44,0.33,0.96,0.39,1.57C59.95,6.88,59.91,7.42,59.77,7.91 M69.92,10.43l-1.23-0.08l-0.3-3.89
		c-0.03-0.39-0.05-0.73-0.07-1.01c-0.01-0.28-0.02-0.54-0.04-0.78h-0.02c-0.06,0.2-0.12,0.42-0.19,0.65
		c-0.07,0.23-0.17,0.47-0.28,0.74l-1.65,4.11l-1.21-0.08l-1.03-4C63.81,5.8,63.74,5.5,63.68,5.2c-0.06-0.3-0.1-0.59-0.13-0.86
		l-0.02,0c-0.04,0.31-0.09,0.62-0.15,0.91c-0.05,0.29-0.11,0.61-0.17,0.95l-0.72,3.71l-1.19-0.08l1.58-7.17l1.39,0.1l1.11,4.28
		c0.07,0.27,0.13,0.53,0.18,0.78c0.05,0.25,0.09,0.49,0.12,0.73l0.02,0c0.07-0.27,0.15-0.5,0.23-0.71c0.07-0.2,0.17-0.44,0.27-0.7
		l1.72-4.13l1.4,0.1L69.92,10.43z M76.97,6.76c-0.07,0.35-0.21,0.65-0.41,0.91c-0.2,0.27-0.44,0.48-0.73,0.64
		c-0.29,0.16-0.62,0.26-0.98,0.31c-0.36,0.05-0.75,0.02-1.17-0.07c-0.07-0.01-0.16-0.04-0.25-0.05c-0.09-0.02-0.18-0.05-0.27-0.08
		l-0.58,2.61l-1.13-0.25l1.57-7.08c0.28,0.04,0.57,0.1,0.87,0.16c0.3,0.06,0.62,0.12,0.96,0.2c0.85,0.19,1.45,0.52,1.81,1
		C77.01,5.54,77.12,6.1,76.97,6.76 M85.06,7.18l-1.5,4.2c-0.33,0.92-0.81,1.52-1.44,1.8c-0.63,0.28-1.4,0.27-2.31-0.06
		c-0.54-0.19-0.96-0.42-1.25-0.67c-0.29-0.25-0.49-0.53-0.6-0.82c-0.11-0.29-0.15-0.6-0.11-0.91c0.03-0.31,0.1-0.63,0.22-0.95
		l1.6-4.51l1.09,0.39l-1.58,4.43c-0.08,0.23-0.14,0.45-0.16,0.66c-0.03,0.21-0.01,0.41,0.06,0.59c0.07,0.18,0.19,0.35,0.37,0.51
		c0.17,0.15,0.42,0.29,0.74,0.4c0.28,0.1,0.53,0.15,0.76,0.17c0.23,0.01,0.43-0.03,0.61-0.12c0.18-0.09,0.34-0.24,0.49-0.44
		c0.14-0.2,0.27-0.46,0.39-0.78l1.52-4.29L85.06,7.18z M91.25,10.2l-0.44,0.86l-2.36-1.22l-0.94,1.84l2.25,1.16l-0.44,0.86
		l-2.25-1.16l-1.04,2.01l2.36,1.22l-0.46,0.89l-3.4-1.75l3.33-6.45L91.25,10.2z M96.52,13.51l-0.63,0.84
		c-0.14-0.17-0.29-0.33-0.46-0.49c-0.17-0.15-0.35-0.29-0.52-0.41c-0.38-0.25-0.71-0.36-1.01-0.33c-0.3,0.03-0.53,0.17-0.69,0.42
		c-0.14,0.2-0.18,0.41-0.13,0.62c0.05,0.21,0.14,0.42,0.28,0.64c0.14,0.22,0.29,0.45,0.46,0.69c0.17,0.24,0.32,0.49,0.42,0.74
		c0.11,0.26,0.16,0.53,0.17,0.81c0,0.28-0.1,0.58-0.31,0.9c-0.19,0.28-0.41,0.5-0.67,0.67c-0.26,0.16-0.55,0.26-0.86,0.3
		c-0.31,0.04-0.64,0.01-0.99-0.08c-0.35-0.09-0.71-0.26-1.06-0.5c-0.22-0.15-0.43-0.3-0.62-0.46c-0.19-0.16-0.36-0.33-0.5-0.49
		l0.67-0.89c0.13,0.18,0.29,0.36,0.49,0.55c0.19,0.19,0.4,0.35,0.63,0.5c0.17,0.11,0.34,0.2,0.51,0.26
		c0.17,0.06,0.33,0.09,0.49,0.09c0.16,0,0.31-0.05,0.45-0.12c0.14-0.08,0.27-0.2,0.37-0.36c0.14-0.21,0.18-0.42,0.13-0.64
		c-0.05-0.21-0.14-0.43-0.27-0.65c-0.13-0.22-0.29-0.45-0.46-0.68c-0.18-0.23-0.32-0.48-0.43-0.73c-0.11-0.26-0.16-0.53-0.16-0.82
		c0-0.29,0.11-0.59,0.33-0.92c0.17-0.26,0.37-0.46,0.62-0.61c0.25-0.15,0.51-0.24,0.81-0.27c0.3-0.03,0.61,0,0.94,0.1
		c0.33,0.1,0.68,0.26,1.03,0.49c0.18,0.12,0.35,0.25,0.53,0.39C96.19,13.22,96.36,13.36,96.52,13.51 M101.96,17.72l-0.62,0.77
		l-1.56-1.26l-3.94,4.88l-0.9-0.73l3.94-4.88l-1.55-1.25l0.62-0.77L101.96,17.72z M106.49,23.4c-0.02,0.42-0.15,0.84-0.37,1.27
		c-0.22,0.43-0.55,0.85-1,1.27c-0.44,0.42-0.89,0.72-1.36,0.91c-0.47,0.19-0.93,0.29-1.39,0.29c-0.46,0-0.89-0.1-1.31-0.28
		c-0.42-0.19-0.79-0.46-1.12-0.8c-0.38-0.4-0.65-0.81-0.81-1.22c-0.16-0.41-0.21-0.83-0.17-1.25c0.05-0.42,0.18-0.83,0.42-1.23
		c0.23-0.41,0.55-0.8,0.96-1.18c0.44-0.42,0.89-0.72,1.36-0.91c0.47-0.19,0.93-0.29,1.38-0.29c0.45,0.01,0.89,0.1,1.31,0.29
		c0.42,0.19,0.79,0.45,1.12,0.8c0.33,0.35,0.58,0.73,0.75,1.12C106.44,22.58,106.51,22.98,106.49,23.4 M111.34,28.31l-0.88,0.57
		c-0.07-0.21-0.16-0.41-0.27-0.61c-0.11-0.2-0.22-0.39-0.35-0.56c-0.27-0.36-0.55-0.58-0.84-0.65c-0.29-0.07-0.55-0.01-0.8,0.17
		c-0.19,0.14-0.31,0.32-0.33,0.54s-0.01,0.45,0.04,0.7c0.05,0.25,0.12,0.52,0.2,0.8c0.08,0.29,0.13,0.57,0.15,0.85
		c0.01,0.28-0.02,0.55-0.12,0.82c-0.1,0.27-0.3,0.51-0.6,0.74c-0.27,0.2-0.56,0.33-0.86,0.39c-0.3,0.06-0.6,0.06-0.91-0.01
		c-0.31-0.07-0.61-0.21-0.91-0.42c-0.3-0.21-0.58-0.48-0.83-0.83c-0.16-0.21-0.3-0.43-0.43-0.65c-0.13-0.22-0.23-0.43-0.31-0.63
		l0.92-0.61c0.07,0.21,0.16,0.44,0.28,0.68c0.12,0.24,0.26,0.47,0.42,0.68c0.12,0.16,0.25,0.3,0.39,0.41
		c0.14,0.12,0.28,0.2,0.43,0.25c0.15,0.05,0.3,0.06,0.46,0.04c0.16-0.02,0.32-0.1,0.47-0.21c0.2-0.15,0.31-0.33,0.34-0.55
		c0.03-0.22,0.01-0.45-0.04-0.71c-0.05-0.25-0.12-0.52-0.21-0.8c-0.09-0.28-0.14-0.56-0.15-0.84c-0.01-0.28,0.03-0.55,0.12-0.82
		c0.1-0.27,0.31-0.52,0.62-0.76c0.25-0.18,0.51-0.31,0.79-0.37c0.28-0.06,0.56-0.06,0.85,0.02c0.29,0.07,0.57,0.21,0.85,0.41
		c0.28,0.2,0.55,0.47,0.8,0.81c0.13,0.17,0.25,0.35,0.36,0.54C111.13,27.92,111.24,28.11,111.34,28.31 M111.66,61.96
		c0,27.11-22.18,49.09-49.53,49.09c-27.36,0-49.54-21.98-49.54-49.09c0-27.11,22.18-49.09,49.54-49.09
		C89.49,12.87,111.66,34.85,111.66,61.96 M120.53,84.96l-0.79,1.84l-3.49,0.43l2.08,2.83l-0.74,1.73l-2.84-4.08l-4.68,0.67
		l0.73-1.69l3.29-0.41l-1.97-2.66l0.71-1.66l2.74,3.82L120.53,84.96z M92.32,61.89c0-0.29-0.29-0.2-0.51-0.23L83.23,61l5.42-6.1
		c0.03-0.03,0.35-0.32,0.35-0.44c0-0.12-0.1-0.2-0.22-0.2c-0.19,0-0.32,0.15-0.41,0.23l-6.67,5.28l-0.93-7.83
		c-0.03-0.18,0.03-0.53-0.25-0.53c-0.25,0-0.19,0.29-0.22,0.44l-0.67,7.84l-6.57-4.96c-0.03-0.03-0.35-0.32-0.48-0.32
		c-0.1,0-0.19,0.09-0.19,0.2c0,0.15,0.16,0.27,0.25,0.38l5.52,6.04l-8.13,0.75H49.7c0.09-7.95,6.46-14.37,14.31-14.37
		c2.33,0,4.52,0.57,6.46,1.56c0.84,0.43,1.74,0.66,2.69,0.66c2.64,0,4.66-1.78,5.55-3.97l1.77-4.34l-0.77-0.59
		c-4.36-3.34-9.8-5.33-15.71-5.33c-14.37,0-26.04,11.79-26.13,26.38H26.2v0.49h11.68c0.17,14.52,11.8,26.24,26.17,26.24
		c5.88-0.01,11.31-1.99,15.67-5.33l0.77-0.59l-1.77-4.34c-0.89-2.19-2.92-3.97-5.55-3.97c-0.96,0-1.85,0.23-2.69,0.66
		c-1.94,1-4.13,1.56-6.46,1.56c-7.8,0-14.14-6.34-14.31-14.23h20.23l8.25,0.55l-5.46,5.99c-0.03,0.03-0.32,0.32-0.32,0.44
		c0,0.12,0.1,0.2,0.22,0.2c0.16,0,0.29-0.17,0.42-0.26l6.57-5.05l0.86,7.8c0,0.21-0.03,0.56,0.29,0.56c0.25,0,0.19-0.32,0.22-0.47
		l0.64-7.81l6.41,4.93c0.03,0.03,0.35,0.32,0.48,0.32c0.1,0,0.19-0.09,0.19-0.18c0-0.15-0.19-0.29-0.29-0.38l-5.33-6.04l8.61-0.76
		C91.88,62.12,92.32,62.15,92.32,61.89 M105.28,23.32c0.09-0.59-0.1-1.14-0.57-1.63c-0.19-0.2-0.42-0.36-0.68-0.47
		c-0.26-0.11-0.54-0.16-0.83-0.15c-0.29,0.01-0.6,0.09-0.92,0.23c-0.32,0.14-0.64,0.37-0.96,0.67c-0.3,0.28-0.54,0.57-0.73,0.87
		c-0.19,0.3-0.31,0.59-0.36,0.88c-0.06,0.29-0.04,0.58,0.05,0.86c0.09,0.29,0.26,0.56,0.5,0.82c0.18,0.19,0.4,0.34,0.66,0.46
		c0.26,0.11,0.54,0.17,0.84,0.16c0.3,0,0.62-0.08,0.94-0.22c0.33-0.14,0.66-0.37,0.98-0.68C104.83,24.51,105.2,23.91,105.28,23.32
		 M75.76,6.6c0.09-0.4,0.04-0.75-0.16-1.03c-0.19-0.28-0.55-0.48-1.07-0.6c-0.11-0.02-0.21-0.05-0.31-0.07
		c-0.09-0.02-0.19-0.03-0.29-0.04l-0.57,2.58c0.07,0.03,0.15,0.06,0.24,0.09c0.09,0.02,0.17,0.05,0.26,0.07
		c0.48,0.1,0.9,0.06,1.24-0.11C75.45,7.31,75.67,7.01,75.76,6.6 M58.6,7.7c0.09-0.34,0.12-0.74,0.07-1.19
		c-0.08-0.88-0.33-1.54-0.74-1.97c-0.41-0.43-0.96-0.62-1.64-0.55c-0.28,0.03-0.54,0.11-0.79,0.24c-0.25,0.14-0.45,0.32-0.63,0.56
		s-0.3,0.53-0.39,0.87C54.4,6,54.37,6.39,54.41,6.82c0.04,0.41,0.12,0.78,0.23,1.11c0.12,0.33,0.27,0.61,0.47,0.83
		c0.19,0.22,0.43,0.39,0.71,0.49c0.28,0.11,0.6,0.14,0.95,0.11c0.27-0.02,0.52-0.1,0.77-0.23c0.25-0.13,0.46-0.32,0.64-0.56
		C58.38,8.34,58.51,8.04,58.6,7.7 M36.28,15.01c0.07-0.3,0.07-0.62,0.01-0.97c-0.06-0.35-0.21-0.72-0.43-1.11
		c-0.44-0.76-0.94-1.26-1.5-1.48s-1.13-0.16-1.72,0.18c-0.24,0.14-0.45,0.32-0.62,0.55c-0.17,0.22-0.28,0.49-0.34,0.77
		c-0.06,0.29-0.05,0.61,0.01,0.96c0.06,0.34,0.2,0.71,0.42,1.09c0.2,0.35,0.43,0.66,0.67,0.91c0.25,0.25,0.5,0.44,0.77,0.56
		c0.27,0.12,0.55,0.18,0.85,0.16c0.3-0.02,0.6-0.12,0.91-0.3c0.23-0.13,0.43-0.31,0.6-0.53C36.1,15.56,36.22,15.3,36.28,15.01
		 M12.6,35.38c-0.08-0.38-0.31-0.67-0.69-0.86c-0.37-0.19-0.71-0.23-1.03-0.12c-0.32,0.11-0.6,0.4-0.85,0.87
		c-0.05,0.1-0.1,0.19-0.15,0.28c-0.04,0.08-0.08,0.17-0.12,0.27l2.35,1.23c0.05-0.06,0.1-0.13,0.15-0.21
		c0.05-0.08,0.09-0.15,0.13-0.23C12.61,36.17,12.68,35.76,12.6,35.38 M10.37,44.24c-0.28-0.23-0.64-0.41-1.09-0.55
		c-0.82-0.26-1.51-0.27-2.08-0.03c-0.56,0.24-0.98,0.79-1.25,1.63C5.9,45.47,5.85,45.63,5.8,45.8c-0.05,0.17-0.09,0.32-0.12,0.44
		l5.03,1.61c0.05-0.11,0.11-0.24,0.17-0.39c0.06-0.15,0.11-0.29,0.15-0.43c0.12-0.37,0.18-0.73,0.18-1.07
		c0-0.34-0.07-0.66-0.21-0.95C10.86,44.73,10.65,44.47,10.37,44.24 M7.82,54.46l0.37-2.29L5.8,52.62c-0.19,0.04-0.39,0.07-0.57,0.09
		c-0.19,0.02-0.38,0.04-0.59,0.05l0,0.02c0.18,0.07,0.36,0.14,0.54,0.23c0.18,0.09,0.36,0.18,0.54,0.28L7.82,54.46z M3.53,60.92
		c-0.01,0.18-0.01,0.36-0.01,0.54c0,0.18,0,0.33,0.01,0.46l5.28,0.17c0.02-0.12,0.04-0.26,0.05-0.42c0.01-0.15,0.03-0.31,0.03-0.45
		c0.01-0.39-0.03-0.75-0.12-1.08c-0.1-0.33-0.25-0.62-0.47-0.86c-0.21-0.25-0.49-0.44-0.82-0.58c-0.33-0.14-0.73-0.22-1.2-0.23
		c-0.86-0.03-1.53,0.15-2,0.54C3.81,59.39,3.56,60.03,3.53,60.92 M6.6,79.84c-0.11,0.25-0.09,0.62,0.08,1.11
		c0.05,0.16,0.11,0.31,0.16,0.45c0.05,0.14,0.1,0.28,0.16,0.42l2.04-0.68c-0.02-0.1-0.05-0.19-0.08-0.28
		c-0.03-0.09-0.07-0.2-0.1-0.32c-0.17-0.52-0.4-0.88-0.69-1.08c-0.29-0.2-0.6-0.24-0.95-0.13C6.92,79.42,6.72,79.6,6.6,79.84
		 M9.5,78.95c-0.04,0.17-0.04,0.37-0.01,0.59c0.03,0.22,0.09,0.45,0.17,0.69c0.01,0.03,0.02,0.07,0.04,0.12
		c0.02,0.05,0.04,0.11,0.06,0.17c0.02,0.06,0.04,0.12,0.07,0.18c0.02,0.05,0.04,0.1,0.05,0.14l2.18-0.73
		c-0.03-0.2-0.11-0.47-0.22-0.82c-0.17-0.51-0.41-0.85-0.71-1.02c-0.3-0.17-0.63-0.19-0.97-0.08c-0.19,0.07-0.35,0.16-0.46,0.29
		C9.61,78.62,9.54,78.78,9.5,78.95 M13.51,87.16l-1.03-2.09l-1.68,1.76c-0.14,0.15-0.27,0.28-0.41,0.4
		c-0.14,0.12-0.29,0.25-0.45,0.38l0.01,0.02c0.19-0.05,0.38-0.09,0.57-0.13c0.2-0.04,0.4-0.06,0.61-0.08L13.51,87.16z M21.26,98.24
		l-1.52-1.76l-1.19,2.12c-0.09,0.18-0.19,0.34-0.3,0.5c-0.1,0.16-0.22,0.32-0.34,0.48l0.02,0.01c0.16-0.09,0.34-0.18,0.52-0.27
		c0.19-0.08,0.38-0.16,0.57-0.23L21.26,98.24z M22.67,103.46c-0.27,0.3-0.38,0.59-0.32,0.89c0.06,0.3,0.27,0.61,0.64,0.95
		c0.08,0.08,0.17,0.15,0.25,0.22c0.08,0.07,0.15,0.13,0.22,0.18l1.55-1.7c-0.04-0.05-0.09-0.1-0.16-0.17
		c-0.07-0.07-0.15-0.15-0.25-0.23c-0.35-0.32-0.7-0.49-1.05-0.51C23.22,103.07,22.92,103.2,22.67,103.46 M95.55,108.47l-0.01,0.01
		c0.19,0.41,0.37,0.85,0.54,1.33l0.7,2.12l1.81-1.41l-1.93-1.24c-0.2-0.13-0.39-0.26-0.57-0.39
		C95.91,108.78,95.73,108.63,95.55,108.47 M109.73,92.58L109.73,92.58c0.33,0.32,0.66,0.66,0.99,1.04l1.44,1.7l1.16-1.99l-2.26-0.43
		c-0.24-0.04-0.46-0.09-0.67-0.14C110.18,92.72,109.96,92.66,109.73,92.58"/>
</g>
</svg>
