<?xml version="1.0" encoding="utf-8"?>
<!-- Generator: Adobe Illustrator 24.0.3, SVG Export Plug-In . SVG Version: 6.00 Build 0)  -->
<svg version="1.1" id="Capa_1" xmlns="http://www.w3.org/2000/svg" xmlns:xlink="http://www.w3.org/1999/xlink" x="0px" y="0px"
	 viewBox="0 0 173.73 170.08" style="enable-background:new 0 0 173.73 170.08;" xml:space="preserve">
<style type="text/css">
	.st0{clip-path:url(#SVGID_2_);fill:#FFFFFF;}
	.st1{fill:#FFFFFF;}
	.st2{clip-path:url(#SVGID_4_);fill:#FFFFFF;}
	.st3{clip-path:url(#SVGID_6_);fill:#FFFFFF;}
	.st4{clip-path:url(#SVGID_8_);fill:#FFFFFF;}
	.st5{clip-path:url(#SVGID_10_);fill:#FFFFFF;}
	.st6{clip-path:url(#SVGID_12_);fill:#FFFFFF;}
	.st7{fill:#7DAC37;}
	.st8{fill:#D7D2E6;}
	.st9{fill:#21315C;}
	.st10{fill:#299A85;}
	.st11{clip-path:url(#SVGID_14_);fill:#21315C;}
	.st12{clip-path:url(#SVGID_16_);fill:#21315C;}
	.st13{clip-path:url(#SVGID_18_);fill:#21315C;}
	.st14{clip-path:url(#SVGID_20_);fill:#FFFFFF;}
	.st15{clip-path:url(#SVGID_22_);fill:#299A85;}
	.st16{fill:#727574;}
	.st17{fill:#CF6A34;}
	.st18{fill:#707070;}
	.st19{clip-path:url(#SVGID_24_);fill:#236FB2;}
	.st20{fill:#9E142E;}
	.st21{fill:none;stroke:#861833;stroke-width:3.021;}
	.st22{clip-path:url(#SVGID_26_);fill:#FFFFFF;}
	.st23{clip-path:url(#SVGID_26_);fill:none;stroke:#861833;stroke-width:3.021;}
	.st24{clip-path:url(#SVGID_28_);}
	.st25{clip-path:url(#SVGID_30_);}
	.st26{clip-path:url(#SVGID_30_);fill:#9E1332;}
	.st27{fill:#9E1332;}
</style>
<g>
	<defs>
		<rect id="SVGID_23_" width="173.73" height="170.08"/>
	</defs>
	<clipPath id="SVGID_2_">
		<use xlink:href="#SVGID_23_"  style="overflow:visible;"/>
	</clipPath>
	<path style="clip-path:url(#SVGID_2_);fill:#236FB2;" d="M170.21,110.2c-1-10.18-0.35-20.67-0.35-25.27
		C169.86,38.02,131.84,0,84.93,0C38.02,0,0,38.02,0,84.93s38.02,84.93,84.93,84.93c5.52,0,16.65-1.08,27.25-1.02
		c10.7,0.05,20.88,1.24,24.69,1.24c20.36,0,36.86-16.5,36.86-36.86C173.73,129.06,171.15,119.78,170.21,110.2 M154.74,135.13
		l-7.74-9.07l1.24-2.12l11.75,2.2l-1.21,2.08l-2.38-0.48l-2.14,3.68l1.6,1.84L154.74,135.13z M151.63,139.1l-7.5-5.68l-1.76,2.32
		l-1.48-1.12l4.82-6.37l1.48,1.12l-1.76,2.33l7.5,5.68L151.63,139.1z M147.04,144.6l-8.46-7.42l1.42-1.62l8.46,7.42L147.04,144.6z
		 M141.4,150.26l-7.82-8.1l1.55-1.49l6.5,6.73l2.63-2.54l1.32,1.37L141.4,150.26z M131.73,158.05l-3.8-11.3l1.94-1.5l10.08,6.43
		l-1.9,1.47l-2.03-1.34l-3.36,2.61l0.79,2.3L131.73,158.05z M119.8,153.82c0.14-0.7,0.43-1.35,0.89-1.97
		c0.46-0.61,1.1-1.16,1.91-1.64c0.34-0.2,0.71-0.38,1.09-0.55c0.38-0.16,0.76-0.3,1.12-0.39l0.79,1.82
		c-0.76,0.19-1.47,0.48-2.13,0.86c-0.45,0.26-0.8,0.58-1.04,0.94c-0.24,0.36-0.4,0.76-0.46,1.17c-0.06,0.42-0.02,0.86,0.1,1.33
		c0.12,0.46,0.32,0.93,0.6,1.4c0.62,1.06,1.32,1.75,2.1,2.05c0.78,0.3,1.67,0.17,2.66-0.41c0.3-0.18,0.6-0.4,0.91-0.69
		c0.31-0.28,0.56-0.56,0.74-0.82l1.19,1.54c-0.29,0.35-0.62,0.68-1,1c-0.38,0.32-0.8,0.62-1.26,0.89c-0.86,0.5-1.64,0.79-2.36,0.86
		c-0.72,0.07-1.39,0-1.99-0.24c-0.61-0.23-1.15-0.58-1.62-1.06c-0.48-0.48-0.89-1.02-1.24-1.62c-0.45-0.77-0.76-1.53-0.93-2.29
		C119.69,155.25,119.67,154.52,119.8,153.82 M31.41,144.83l0.76-0.89l1.8,1.52l4.78-5.64l1.04,0.89l-4.78,5.64l1.79,1.52l-0.76,0.89
		L31.41,144.83z M26.42,138.1c0.11-0.31,0.32-0.6,0.63-0.9c0.25-0.24,0.52-0.41,0.8-0.51c0.28-0.1,0.58-0.14,0.87-0.13
		c0.3,0.02,0.6,0.09,0.89,0.21c0.3,0.13,0.58,0.31,0.84,0.54c0.03-0.19,0.06-0.39,0.08-0.58c0.02-0.2,0.05-0.39,0.08-0.57l0.6-3.69
		l1.2,1.26l-0.83,4.49l0.04,0.04l2.68-2.55l0.94,0.99l-6.2,5.89c-0.23-0.21-0.47-0.45-0.73-0.71c-0.26-0.26-0.56-0.57-0.89-0.92
		c-0.3-0.32-0.55-0.64-0.74-0.96c-0.19-0.32-0.32-0.65-0.37-0.97C26.27,138.72,26.3,138.41,26.42,138.1 M20.54,132.7l5-7.6
		l0.92,1.23l-1.12,1.66l2.07,2.77l1.91-0.6l0.83,1.12l-8.69,2.65L20.54,132.7z M14.28,122.79l0.95-0.54l6.57,0.33
		c0.14,0,0.27,0,0.4,0.01c0.13,0.01,0.27,0.02,0.41,0.03c-0.07-0.09-0.19-0.28-0.36-0.58c-0.16-0.29-0.38-0.67-0.66-1.15l-1.02-1.77
		l1.1-0.63l2.83,4.94l-0.92,0.52l-6.34-0.26c-0.2,0-0.38-0.02-0.56-0.03c-0.18-0.02-0.36-0.04-0.55-0.06
		c0.1,0.16,0.22,0.35,0.35,0.58c0.13,0.23,0.3,0.54,0.52,0.92l1.06,1.86l-1.06,0.6L14.28,122.79z M11.1,115.94l6.69-6.17l0.59,1.42
		l-1.48,1.34l1.34,3.19l2-0.12l0.54,1.29l-9.08,0.48L11.1,115.94z M7.99,105.04c0.22-0.55,0.65-0.92,1.29-1.1
		c0.42-0.12,0.84-0.1,1.26,0.06c0.41,0.16,0.75,0.43,1.02,0.81l0.02-0.01c-0.03-0.28-0.01-0.54,0.06-0.77
		c0.07-0.23,0.17-0.44,0.3-0.61c0.14-0.17,0.3-0.32,0.48-0.44c0.18-0.12,0.38-0.21,0.6-0.27c0.27-0.07,0.56-0.1,0.89-0.08
		c0.33,0.02,0.65,0.12,0.96,0.29c0.32,0.17,0.62,0.44,0.89,0.82c0.28,0.37,0.51,0.87,0.69,1.5c0.07,0.25,0.16,0.58,0.26,0.97
		c0.1,0.39,0.21,0.82,0.34,1.29l-8.24,2.3c-0.1-0.32-0.22-0.7-0.35-1.15c-0.14-0.44-0.27-0.92-0.41-1.42
		C7.78,106.32,7.77,105.59,7.99,105.04 M6.26,99.3l8.43-1.46l0.24,1.35l-8.43,1.46L6.26,99.3z M5.51,94.04l7.32-0.7l-0.28-2.92
		l1.2-0.12l0.41,4.29L5.64,95.4L5.51,94.04z M5.06,86.92l8.55-0.16l0.03,1.37l-8.56,0.16L5.06,86.92z M6.39,77.04
		c0.36-0.35,0.82-0.61,1.36-0.77c0.54-0.16,1.18-0.22,1.92-0.17c0.73,0.05,1.37,0.21,1.9,0.48c0.54,0.27,0.98,0.63,1.32,1.07
		c0.35,0.44,0.59,0.96,0.74,1.55c0.14,0.6,0.19,1.24,0.14,1.93c-0.03,0.44-0.06,0.84-0.1,1.2c-0.04,0.36-0.07,0.72-0.1,1.05
		l-8.52-0.6c0.02-0.34,0.03-0.74,0.05-1.2c0.02-0.46,0.05-0.94,0.08-1.44c0.05-0.67,0.17-1.27,0.37-1.79
		C5.74,77.83,6.02,77.39,6.39,77.04 M6.84,68.49l9.01-1.25l-0.32,1.5l-1.98,0.25l-0.72,3.38l1.71,1.04l-0.29,1.36l-7.73-4.78
		L6.84,68.49z M14.65,56.87c0.69,0.24,1.26,0.56,1.71,0.97c0.44,0.4,0.78,0.86,1,1.38c0.22,0.52,0.32,1.08,0.3,1.7
		c-0.02,0.61-0.14,1.24-0.36,1.89c-0.14,0.42-0.28,0.8-0.42,1.14c-0.13,0.34-0.26,0.67-0.38,0.99l-8.07-2.81
		c0.1-0.32,0.22-0.7,0.37-1.14c0.14-0.44,0.29-0.9,0.46-1.37c0.22-0.64,0.5-1.18,0.82-1.64c0.33-0.45,0.71-0.8,1.16-1.04
		c0.44-0.24,0.94-0.37,1.51-0.39C13.31,56.51,13.94,56.62,14.65,56.87 M18.12,48.01c0.24-0.18,0.5-0.38,0.77-0.6
		c0.27-0.22,0.55-0.41,0.84-0.56c0.3-0.15,0.61-0.23,0.94-0.26c0.33-0.02,0.7,0.08,1.08,0.3c0.34,0.2,0.62,0.44,0.83,0.74
		c0.21,0.3,0.35,0.62,0.42,0.99c0.07,0.37,0.06,0.76-0.02,1.18c-0.08,0.42-0.25,0.85-0.5,1.29c-0.16,0.27-0.32,0.53-0.5,0.76
		c-0.18,0.24-0.36,0.45-0.54,0.63l-1.1-0.72c0.2-0.17,0.4-0.37,0.6-0.62c0.21-0.24,0.38-0.5,0.54-0.77
		c0.12-0.21,0.21-0.41,0.27-0.62c0.06-0.2,0.08-0.4,0.06-0.58s-0.08-0.36-0.18-0.52c-0.1-0.16-0.25-0.3-0.45-0.41
		c-0.26-0.15-0.51-0.18-0.76-0.11c-0.24,0.08-0.49,0.2-0.74,0.37c-0.25,0.17-0.5,0.37-0.76,0.6c-0.26,0.22-0.54,0.41-0.83,0.56
		c-0.29,0.15-0.61,0.23-0.95,0.26c-0.34,0.02-0.7-0.08-1.11-0.32c-0.32-0.18-0.57-0.41-0.77-0.68c-0.2-0.28-0.33-0.58-0.38-0.93
		s-0.04-0.71,0.05-1.11c0.09-0.4,0.25-0.81,0.5-1.24c0.13-0.22,0.27-0.44,0.42-0.64c0.15-0.21,0.31-0.42,0.48-0.62l1.03,0.68
		c-0.19,0.18-0.37,0.37-0.54,0.58c-0.17,0.21-0.32,0.43-0.44,0.65c-0.26,0.46-0.36,0.86-0.3,1.21c0.06,0.34,0.24,0.6,0.55,0.78
		c0.25,0.14,0.5,0.18,0.74,0.1C17.63,48.31,17.87,48.18,18.12,48.01 M23.14,42.52l2.17,1.54l1.81-2.56l0.96,0.68l-2.6,3.67
		l-6.98-4.94l2.6-3.67l0.93,0.66l-1.81,2.55l1.99,1.41l1.72-2.43l0.93,0.66L23.14,42.52z M28.4,30.84
		c-0.57,0.34-1.06,0.73-1.46,1.18c-0.3,0.33-0.5,0.67-0.6,1.02c-0.1,0.35-0.12,0.7-0.05,1.05c0.06,0.35,0.21,0.69,0.42,1.03
		c0.22,0.33,0.49,0.65,0.82,0.95c0.74,0.67,1.46,1.03,2.15,1.07c0.69,0.04,1.36-0.28,1.98-0.98c0.2-0.22,0.38-0.48,0.56-0.77
		c0.17-0.3,0.29-0.57,0.36-0.82l1.02,0.7c-0.12,0.32-0.29,0.65-0.49,0.99c-0.21,0.34-0.45,0.66-0.73,0.96
		c-0.48,0.53-0.97,0.91-1.46,1.14c-0.49,0.22-0.98,0.32-1.47,0.3c-0.49-0.02-0.96-0.15-1.42-0.38c-0.46-0.23-0.91-0.54-1.33-0.92
		c-0.5-0.45-0.9-0.92-1.2-1.43c-0.3-0.5-0.49-1.02-0.56-1.56c-0.07-0.54-0.01-1.07,0.18-1.62c0.19-0.54,0.52-1.08,1-1.61
		c0.22-0.24,0.45-0.46,0.7-0.67c0.25-0.21,0.5-0.4,0.75-0.57L28.4,30.84z M34.84,24.48l-1.76,1.57l4.91,5.52l-1.02,0.91l-4.91-5.52
		l-1.75,1.56l-0.78-0.87l4.53-4.04L34.84,24.48z M45.8,24.26c-0.08,0.53-0.27,1.02-0.56,1.47s-0.67,0.84-1.14,1.16
		c-0.53,0.37-1.06,0.61-1.56,0.72c-0.51,0.11-1.01,0.1-1.48-0.03c-0.48-0.12-0.93-0.36-1.36-0.7c-0.43-0.34-0.84-0.79-1.21-1.33
		c-0.4-0.58-0.68-1.16-0.82-1.74c-0.14-0.58-0.17-1.14-0.08-1.66c0.08-0.53,0.27-1.02,0.56-1.47c0.3-0.45,0.67-0.84,1.14-1.16
		c0.47-0.33,0.95-0.56,1.44-0.68c0.49-0.12,0.98-0.14,1.46-0.03c0.48,0.1,0.95,0.32,1.41,0.66c0.46,0.33,0.89,0.8,1.3,1.38
		c0.4,0.58,0.68,1.16,0.82,1.74C45.85,23.18,45.88,23.73,45.8,24.26 M50.62,18.22c0.17,0.08,0.35,0.16,0.54,0.24
		c0.19,0.08,0.36,0.16,0.52,0.24l3.37,1.62l-1.54,0.79l-4.08-2.06l-0.06,0.03l1.69,3.29l-1.22,0.62l-3.92-7.6
		c0.27-0.16,0.57-0.32,0.89-0.5c0.32-0.18,0.7-0.38,1.13-0.6c0.39-0.2,0.77-0.35,1.14-0.44c0.37-0.1,0.71-0.12,1.03-0.08
		c0.32,0.04,0.61,0.16,0.87,0.35c0.26,0.2,0.49,0.48,0.69,0.86c0.16,0.31,0.24,0.61,0.26,0.91c0.02,0.3-0.02,0.59-0.12,0.88
		c-0.1,0.28-0.25,0.55-0.45,0.8C51.16,17.81,50.92,18.03,50.62,18.22 M64.04,11.7c-0.04,0.38-0.16,0.75-0.36,1.08
		s-0.47,0.64-0.81,0.9c-0.34,0.27-0.75,0.48-1.22,0.64c-0.09,0.03-0.18,0.06-0.29,0.1c-0.1,0.04-0.21,0.06-0.32,0.08l0.99,3
		l-1.3,0.43L58.06,9.8c0.31-0.12,0.63-0.24,0.98-0.36c0.34-0.12,0.71-0.24,1.09-0.37c0.97-0.32,1.78-0.34,2.44-0.07
		c0.66,0.27,1.1,0.78,1.35,1.54C64.04,10.92,64.08,11.31,64.04,11.7 M74.79,11.72c-0.1,0.59-0.3,1.11-0.59,1.56
		c-0.29,0.45-0.66,0.83-1.11,1.12c-0.45,0.3-0.95,0.5-1.5,0.61c-0.64,0.12-1.21,0.13-1.72,0.03c-0.51-0.11-0.96-0.32-1.35-0.62
		c-0.38-0.31-0.71-0.71-0.96-1.2c-0.26-0.49-0.45-1.06-0.57-1.7c-0.14-0.7-0.16-1.34-0.05-1.93c0.1-0.59,0.3-1.11,0.59-1.56
		c0.29-0.45,0.66-0.82,1.11-1.12c0.45-0.3,0.95-0.5,1.51-0.6c0.56-0.11,1.09-0.12,1.59-0.04c0.5,0.08,0.95,0.27,1.35,0.56
		c0.4,0.29,0.74,0.68,1.03,1.17c0.29,0.49,0.5,1.09,0.64,1.79C74.88,10.49,74.9,11.13,74.79,11.72 M80.99,9.72
		c0.13,0.14,0.26,0.29,0.4,0.44c0.14,0.15,0.26,0.29,0.38,0.42l2.46,2.82l-1.73,0.12L79.57,10l-0.06,0.01l0.25,3.69L78.4,13.8
		l-0.59-8.54c0.31-0.04,0.65-0.07,1.02-0.11c0.37-0.03,0.79-0.06,1.27-0.1c0.44-0.03,0.85-0.02,1.22,0.04
		c0.37,0.06,0.7,0.17,0.98,0.33c0.28,0.16,0.5,0.39,0.66,0.67c0.16,0.28,0.26,0.64,0.29,1.06c0.02,0.34-0.02,0.66-0.12,0.94
		c-0.1,0.28-0.26,0.53-0.46,0.75c-0.2,0.22-0.45,0.41-0.73,0.56C81.65,9.56,81.34,9.66,80.99,9.72 M92.67,5.26L92.46,6.5
		c-0.62-0.22-1.24-0.34-1.84-0.37c-0.45-0.02-0.84,0.04-1.17,0.19c-0.33,0.14-0.61,0.36-0.84,0.63c-0.23,0.27-0.4,0.6-0.52,0.98
		c-0.12,0.38-0.18,0.8-0.2,1.24c-0.04,1,0.14,1.78,0.55,2.34c0.41,0.56,1.08,0.86,2.02,0.9c0.3,0.01,0.61-0.01,0.95-0.07
		c0.34-0.06,0.62-0.14,0.86-0.25l0.11,1.24c-0.32,0.11-0.68,0.2-1.08,0.25c-0.39,0.05-0.8,0.07-1.21,0.05
		c-0.72-0.03-1.32-0.16-1.81-0.4c-0.49-0.24-0.88-0.55-1.17-0.94s-0.5-0.84-0.61-1.34c-0.12-0.5-0.16-1.04-0.14-1.62
		c0.03-0.67,0.14-1.28,0.34-1.83c0.19-0.56,0.48-1.03,0.84-1.42c0.37-0.39,0.82-0.69,1.36-0.9c0.54-0.2,1.17-0.29,1.88-0.26
		c0.32,0.01,0.64,0.05,0.96,0.11C92.07,5.11,92.38,5.18,92.67,5.26 M97.8,5.71l-1.23,8.46l-1.36-0.2l1.23-8.46L97.8,5.71z M108.77,8
		l-2.06,8.3l-1.74-0.43l-1.67-5.43c-0.11-0.35-0.21-0.69-0.28-1.02c-0.07-0.33-0.14-0.65-0.2-0.96c-0.04,0.21-0.1,0.46-0.16,0.76
		c-0.06,0.3-0.13,0.62-0.21,0.95c-0.08,0.34-0.16,0.68-0.24,1.02c-0.08,0.34-0.16,0.66-0.23,0.96l-0.69,2.79l-1.3-0.32l2.06-8.3
		l1.76,0.44l1.62,5.21c0.11,0.36,0.21,0.72,0.29,1.08c0.08,0.36,0.17,0.71,0.25,1.06c0.04-0.24,0.1-0.53,0.17-0.86
		c0.08-0.33,0.15-0.67,0.23-1.03s0.16-0.72,0.25-1.08c0.09-0.36,0.17-0.7,0.24-1l0.61-2.46L108.77,8z M118.91,14.14
		c-0.03,0.57-0.17,1.18-0.44,1.85c-0.26,0.66-0.6,1.21-1,1.65c-0.41,0.44-0.86,0.77-1.34,0.99c-0.49,0.22-1,0.34-1.54,0.34
		c-0.54,0-1.07-0.1-1.6-0.31c-0.6-0.24-1.09-0.54-1.46-0.91c-0.37-0.37-0.64-0.78-0.8-1.25c-0.16-0.47-0.21-0.98-0.16-1.52
		c0.05-0.55,0.2-1.13,0.44-1.74c0.26-0.66,0.6-1.21,1-1.65c0.41-0.44,0.86-0.77,1.34-0.99c0.49-0.22,1-0.33,1.54-0.34
		c0.54,0,1.07,0.1,1.6,0.3c0.53,0.21,0.98,0.49,1.36,0.83c0.37,0.34,0.65,0.74,0.83,1.2C118.86,13.06,118.94,13.57,118.91,14.14
		 M152.35,84.53c0,36.99-30.26,66.98-67.58,66.98c-37.33,0-67.59-30-67.59-66.98s30.26-66.98,67.59-66.98
		C122.1,17.56,152.35,47.54,152.35,84.53 M164.45,115.91l-1.08,2.51l-4.76,0.59l2.84,3.86l-1.02,2.36l-3.87-5.57l-6.38,0.92
		l0.99-2.31l4.49-0.56l-2.69-3.62l0.98-2.27l3.73,5.22L164.45,115.91z M125.96,84.44c0-0.4-0.39-0.28-0.7-0.32l-11.71-0.88l7.4-8.33
		c0.04-0.04,0.48-0.44,0.48-0.6c0-0.16-0.13-0.28-0.3-0.28c-0.26,0-0.44,0.2-0.56,0.32l-9.1,7.2l-1.26-10.69
		c-0.04-0.24,0.04-0.72-0.35-0.72c-0.35,0-0.26,0.4-0.3,0.6l-0.92,10.69l-8.97-6.76c-0.04-0.04-0.48-0.44-0.65-0.44
		c-0.13,0-0.26,0.12-0.26,0.28c0,0.2,0.22,0.36,0.35,0.52l7.53,8.25L95.55,84.3H67.81c0.12-10.85,8.82-19.6,19.52-19.6
		c3.17,0,6.16,0.77,8.81,2.13c1.15,0.58,2.38,0.9,3.68,0.9c3.6,0,6.36-2.42,7.58-5.41l2.42-5.93l-1.06-0.8
		c-5.95-4.56-13.36-7.27-21.43-7.28c-19.62,0-35.53,16.09-35.66,35.99H35.75v0.66h15.93c0.23,19.82,16.1,35.8,35.7,35.8
		c8.03-0.01,15.43-2.72,21.38-7.28l1.06-0.8l-2.42-5.93c-1.22-2.99-3.98-5.41-7.58-5.41c-1.3,0-2.53,0.31-3.68,0.9
		c-2.65,1.36-5.64,2.13-8.81,2.13c-10.64,0-19.29-8.65-19.52-19.41h27.6l11.26,0.75l-7.44,8.17c-0.04,0.04-0.43,0.44-0.43,0.6
		c0,0.16,0.13,0.28,0.3,0.28c0.22,0,0.39-0.24,0.56-0.36l8.97-6.88l1.18,10.65c0,0.28-0.04,0.76,0.39,0.76
		c0.35,0,0.26-0.44,0.3-0.64l0.87-10.65l8.75,6.72c0.04,0.04,0.48,0.44,0.65,0.44c0.13,0,0.26-0.12,0.26-0.24
		c0-0.2-0.26-0.4-0.39-0.52l-7.27-8.25l11.75-1.04C125.36,84.76,125.96,84.8,125.96,84.44 M117.07,15.58
		c0.38-0.97,0.48-1.79,0.28-2.46c-0.2-0.68-0.68-1.16-1.42-1.46c-0.3-0.12-0.62-0.18-0.96-0.17s-0.66,0.09-0.96,0.25
		s-0.6,0.4-0.88,0.7c-0.27,0.31-0.5,0.71-0.7,1.19c-0.18,0.45-0.3,0.88-0.35,1.29c-0.06,0.41-0.04,0.79,0.04,1.12
		c0.08,0.34,0.24,0.64,0.48,0.9c0.23,0.26,0.55,0.47,0.94,0.63c0.29,0.12,0.6,0.17,0.93,0.16c0.33,0,0.66-0.08,0.98-0.24
		c0.32-0.15,0.62-0.39,0.9-0.7S116.87,16.07,117.07,15.58 M80.11,8.96c0.56-0.04,0.99-0.2,1.29-0.48c0.3-0.28,0.44-0.63,0.4-1.06
		c-0.03-0.47-0.2-0.8-0.5-0.99C81,6.24,80.56,6.16,79.97,6.2c-0.14,0.01-0.26,0.02-0.39,0.03c-0.12,0.02-0.24,0.03-0.34,0.04
		l0.19,2.7c0.07,0,0.16,0,0.28,0C79.82,8.98,79.96,8.98,80.11,8.96 M73.4,11.61c0.06-0.42,0.05-0.88-0.06-1.41
		c-0.2-1.02-0.57-1.76-1.1-2.22c-0.54-0.46-1.2-0.62-1.99-0.46c-0.32,0.06-0.62,0.19-0.9,0.38c-0.27,0.19-0.5,0.43-0.67,0.74
		c-0.17,0.3-0.29,0.66-0.35,1.06c-0.06,0.41-0.04,0.87,0.06,1.38c0.09,0.47,0.23,0.9,0.4,1.27c0.18,0.38,0.39,0.68,0.65,0.92
		c0.25,0.24,0.55,0.4,0.89,0.5c0.34,0.09,0.71,0.1,1.13,0.02c0.31-0.06,0.6-0.18,0.88-0.36c0.27-0.18,0.5-0.43,0.69-0.73
		C73.2,12.38,73.33,12.02,73.4,11.61 M62.47,12.38c0.24-0.38,0.28-0.82,0.12-1.3c-0.15-0.46-0.41-0.78-0.77-0.95
		c-0.36-0.17-0.84-0.15-1.44,0.04c-0.13,0.04-0.25,0.08-0.35,0.11c-0.1,0.04-0.21,0.08-0.32,0.13l0.97,2.96
		c0.1-0.01,0.2-0.03,0.3-0.06c0.1-0.02,0.2-0.05,0.3-0.08C61.83,13.06,62.22,12.77,62.47,12.38 M50.51,16.93
		c0.16-0.38,0.15-0.76-0.05-1.14c-0.22-0.42-0.5-0.66-0.86-0.71c-0.35-0.06-0.79,0.05-1.31,0.32c-0.12,0.06-0.24,0.12-0.34,0.18
		c-0.1,0.06-0.2,0.12-0.29,0.17l1.24,2.41c0.06-0.02,0.15-0.06,0.25-0.11c0.1-0.05,0.22-0.11,0.36-0.18
		C50.02,17.62,50.35,17.3,50.51,16.93 M44.47,24.2c0.05-0.35,0.02-0.73-0.09-1.14c-0.1-0.41-0.31-0.83-0.62-1.27
		c-0.6-0.85-1.23-1.38-1.9-1.59c-0.68-0.21-1.34-0.08-2,0.38c-0.27,0.19-0.49,0.42-0.67,0.7c-0.18,0.28-0.28,0.6-0.32,0.94
		c-0.04,0.34,0,0.72,0.1,1.12c0.11,0.4,0.31,0.81,0.6,1.24c0.28,0.4,0.57,0.73,0.88,1c0.31,0.27,0.63,0.46,0.96,0.58
		c0.33,0.12,0.67,0.15,1.02,0.1c0.34-0.05,0.69-0.2,1.04-0.44c0.26-0.18,0.48-0.41,0.65-0.69C44.31,24.86,44.42,24.55,44.47,24.2
		 M16.46,61.03c0.01-0.4-0.06-0.78-0.22-1.13c-0.15-0.35-0.39-0.66-0.72-0.94c-0.32-0.28-0.74-0.5-1.26-0.68
		c-0.96-0.33-1.77-0.36-2.44-0.1c-0.67,0.27-1.18,0.9-1.52,1.89c-0.07,0.2-0.14,0.4-0.2,0.6c-0.06,0.2-0.11,0.37-0.15,0.52
		l5.88,2.05c0.06-0.13,0.13-0.28,0.2-0.46c0.08-0.17,0.14-0.34,0.2-0.5C16.37,61.86,16.46,61.44,16.46,61.03 M11.82,71.8l0.57-2.68
		l-2.83,0.4c-0.23,0.04-0.46,0.06-0.68,0.08c-0.22,0.01-0.45,0.02-0.69,0.02l-0.01,0.02c0.21,0.09,0.42,0.19,0.62,0.3
		c0.21,0.11,0.42,0.23,0.62,0.36L11.82,71.8z M7.28,78.1c-0.58,0.44-0.9,1.18-0.98,2.23c-0.02,0.21-0.03,0.42-0.04,0.63
		c-0.01,0.21-0.02,0.39-0.01,0.54l6.21,0.44c0.03-0.14,0.05-0.3,0.08-0.49c0.02-0.18,0.04-0.36,0.06-0.53c0.03-0.46,0-0.88-0.1-1.28
		c-0.1-0.39-0.26-0.74-0.5-1.04c-0.24-0.3-0.56-0.54-0.94-0.72c-0.39-0.18-0.85-0.29-1.4-0.33C8.66,77.49,7.86,77.67,7.28,78.1
		 M9.14,105.84c-0.15,0.28-0.14,0.72,0.02,1.31c0.05,0.19,0.1,0.36,0.16,0.54c0.06,0.17,0.11,0.34,0.16,0.5l2.44-0.68
		c-0.02-0.12-0.05-0.23-0.08-0.34c-0.03-0.11-0.07-0.24-0.1-0.38c-0.18-0.62-0.42-1.06-0.75-1.31c-0.33-0.25-0.7-0.32-1.11-0.2
		C9.53,105.37,9.28,105.56,9.14,105.84 M12.6,104.96c-0.05,0.2-0.07,0.43-0.04,0.69c0.02,0.26,0.08,0.53,0.16,0.82
		c0.01,0.03,0.02,0.08,0.04,0.14c0.02,0.07,0.04,0.14,0.06,0.21c0.02,0.07,0.04,0.14,0.07,0.21c0.02,0.07,0.04,0.13,0.06,0.18
		l2.61-0.73c-0.02-0.24-0.1-0.56-0.21-0.98c-0.17-0.61-0.43-1.02-0.77-1.24c-0.34-0.21-0.72-0.26-1.14-0.15
		c-0.23,0.06-0.42,0.17-0.55,0.32C12.74,104.59,12.65,104.76,12.6,104.96 M17.08,115.81l-1.06-2.52l-2.1,1.94
		c-0.17,0.16-0.34,0.31-0.51,0.45c-0.17,0.14-0.36,0.27-0.56,0.41l0.01,0.02c0.22-0.05,0.45-0.08,0.68-0.11
		c0.24-0.03,0.48-0.04,0.72-0.06L17.08,115.81z M26.31,131.14l-1.64-2.2l-1.57,2.39c-0.12,0.2-0.26,0.39-0.39,0.56
		c-0.14,0.17-0.28,0.35-0.44,0.53l0.01,0.02c0.2-0.1,0.42-0.18,0.64-0.27c0.22-0.08,0.45-0.16,0.68-0.22L26.31,131.14z
		 M28.17,138.14c-0.34,0.33-0.49,0.67-0.44,1.02c0.04,0.35,0.27,0.74,0.68,1.17c0.09,0.1,0.18,0.19,0.27,0.28
		c0.09,0.09,0.17,0.16,0.24,0.23l1.97-1.87c-0.04-0.06-0.1-0.12-0.18-0.21c-0.08-0.08-0.17-0.18-0.27-0.3
		c-0.39-0.4-0.78-0.64-1.19-0.69C28.84,137.73,28.48,137.85,28.17,138.14 M130.37,148l-0.01,0.01c0.26,0.56,0.51,1.16,0.74,1.82
		l0.95,2.89l2.48-1.92l-2.64-1.69c-0.28-0.18-0.54-0.35-0.78-0.52C130.86,148.41,130.62,148.22,130.37,148 M149.72,126.32
		l-0.01,0.01c0.45,0.42,0.9,0.89,1.36,1.41l1.97,2.32l1.58-2.71l-3.08-0.58c-0.32-0.06-0.63-0.13-0.92-0.2
		C150.34,126.51,150.04,126.42,149.72,126.32"/>
</g>
</svg>
