<svg id="Capa_1" data-name="Capa 1" xmlns="http://www.w3.org/2000/svg" viewBox="0 0 113.75 211.14"><defs><style>.cls-1{fill:#fff;}.cls-2{fill:#1f1e21;}</style></defs><title>welfair</title><path class="cls-1" d="M3.06,161.08v-136S5,2.29,28.86,2.29H88.41s22.83,2,22.83,24.81v134H3.06"/><path class="cls-2" d="M113.16,163.24H.65V27.35C.65.31,27.72,0,28,0H85.81c27,0,27.35,27.07,27.35,27.35Zm-109-3.54H109.62V27.35c0-1-.34-23.81-23.81-23.81H28c-1,0-23.8.34-23.8,23.81Z"/><path class="cls-2" d="M9.94,135.34v0a4.63,4.63,0,0,1,4.72-4.73A4.74,4.74,0,0,1,18.24,132l-1,1.19a3.64,3.64,0,0,0-2.56-1.14,3.08,3.08,0,0,0-3,3.23v0a3.08,3.08,0,0,0,3,3.24,3.57,3.57,0,0,0,2.62-1.18l1,1.05a4.75,4.75,0,0,1-3.72,1.62,4.61,4.61,0,0,1-4.65-4.71"/><polygon class="cls-2" points="19.99 130.74 26.78 130.74 26.78 132.18 21.6 132.18 21.6 134.56 26.19 134.56 26.19 136 21.6 136 21.6 138.45 26.84 138.45 26.84 139.89 19.99 139.89 19.99 130.74"/><path class="cls-2" d="M28.75,130.74h4.08a3.67,3.67,0,0,1,2.64.92,2.75,2.75,0,0,1,.75,2v0a2.75,2.75,0,0,1-2.16,2.77l2.47,3.46H34.62l-2.25-3.19h-2v3.19H28.75Zm4,4.54c1.15,0,1.88-.6,1.88-1.53v0c0-1-.7-1.51-1.89-1.51H30.36v3.07Z"/><polygon class="cls-2" points="40.45 132.23 37.55 132.23 37.55 130.74 44.97 130.74 44.97 132.23 42.07 132.23 42.07 139.89 40.45 139.89 40.45 132.23"/><rect class="cls-2" x="46.76" y="130.74" width="1.61" height="9.15"/><polygon class="cls-2" points="50.81 130.74 57.62 130.74 57.62 132.21 52.42 132.21 52.42 134.7 57.03 134.7 57.03 136.16 52.42 136.16 52.42 139.89 50.81 139.89 50.81 130.74"/><rect class="cls-2" x="59.48" y="130.74" width="1.61" height="9.15"/><path class="cls-2" d="M63.13,135.34v0a4.62,4.62,0,0,1,4.71-4.73A4.74,4.74,0,0,1,71.42,132l-1,1.19a3.62,3.62,0,0,0-2.56-1.14,3.08,3.08,0,0,0-3,3.23v0a3.08,3.08,0,0,0,3,3.24,3.61,3.61,0,0,0,2.63-1.18l1,1.05a4.74,4.74,0,0,1-3.71,1.62,4.6,4.6,0,0,1-4.65-4.71"/><path class="cls-2" d="M76.42,130.68h1.49l4,9.21h-1.7l-.93-2.21H75L74,139.89H72.39Zm2.3,5.58-1.58-3.66-1.57,3.66Z"/><polygon class="cls-2" points="84.52 132.23 81.62 132.23 81.62 130.74 89.04 130.74 89.04 132.23 86.14 132.23 86.14 139.89 84.52 139.89 84.52 132.23"/><polygon class="cls-2" points="90.74 130.74 97.53 130.74 97.53 132.18 92.35 132.18 92.35 134.56 96.94 134.56 96.94 136 92.35 136 92.35 138.45 97.59 138.45 97.59 139.89 90.74 139.89 90.74 130.74"/><polygon class="cls-2" points="9.64 143.88 11.38 143.88 13.56 150.66 15.81 143.85 17.17 143.85 19.42 150.66 21.6 143.88 23.29 143.88 20.11 153.09 18.71 153.09 16.46 146.51 14.21 153.09 12.83 153.09 9.64 143.88"/><polygon class="cls-2" points="24.93 143.88 31.72 143.88 31.72 145.31 26.54 145.31 26.54 147.69 31.13 147.69 31.13 149.13 26.54 149.13 26.54 151.59 31.78 151.59 31.78 153.02 24.93 153.02 24.93 143.88"/><polygon class="cls-2" points="33.69 143.88 35.3 143.88 35.3 151.56 40.11 151.56 40.11 153.02 33.69 153.02 33.69 143.88"/><polygon class="cls-2" points="41.78 143.88 48.59 143.88 48.59 145.34 43.39 145.34 43.39 147.84 48 147.84 48 149.3 43.39 149.3 43.39 153.02 41.78 153.02 41.78 143.88"/><path class="cls-2" d="M52.55,143.81H54l4,9.21h-1.7l-.93-2.2H51.11l-.94,2.2H48.52Zm2.3,5.58-1.59-3.66-1.56,3.66Z"/><rect class="cls-2" x="59.72" y="143.88" width="1.61" height="9.15"/><path class="cls-2" d="M63.77,143.88h4.08a3.71,3.71,0,0,1,2.64.91,2.79,2.79,0,0,1,.76,2v0a2.75,2.75,0,0,1-2.17,2.77L71.55,153H69.64l-2.25-3.18h-2V153H63.77Zm4,4.53c1.15,0,1.88-.6,1.88-1.53v0c0-1-.7-1.52-1.89-1.52H65.38v3.07Z"/><path class="cls-2" d="M73.63,144.58H72.39v-.7h3.25v.7H74.4v3.32h-.77Zm2.87-.7h.83l1.21,1.9,1.22-1.9h.8v4h-.75V145L78.57,147h-.08L77.25,145v2.86H76.5Z"/><path class="cls-2" d="M14.12,98h3L22,109.61H18.62l-.83-2H13.4l-.81,2H9.27Zm2.76,7.06-1.27-3.27-1.28,3.27Z"/><polygon class="cls-2" points="22.95 98.11 25.9 98.11 30.59 104.19 30.59 98.11 33.7 98.11 33.7 109.61 30.93 109.61 26.05 103.3 26.05 109.61 22.95 109.61 22.95 98.11"/><rect class="cls-2" x="35.62" y="98.11" width="3.17" height="11.5"/><polygon class="cls-2" points="40.71 98.11 44.04 98.11 46.76 102.56 49.47 98.11 52.81 98.11 52.81 109.61 49.67 109.61 49.67 103 46.77 107.51 46.7 107.51 43.81 103.04 43.81 109.61 40.71 109.61 40.71 98.11"/><path class="cls-2" d="M58.6,98h3l4.85,11.58H63.1l-.83-2H57.88l-.81,2H53.75Zm2.76,7.06-1.27-3.27-1.28,3.27Z"/><polygon class="cls-2" points="67.43 98.11 70.58 98.11 70.58 106.82 76.1 106.82 76.1 109.61 67.43 109.61 67.43 98.11"/><polygon class="cls-2" points="9.42 113.89 12.75 113.89 14.73 120.55 16.93 113.86 19.64 113.86 21.84 120.55 23.83 113.89 27.09 113.89 23.29 125.47 20.54 125.47 18.25 118.85 15.97 125.47 13.22 125.47 9.42 113.89"/><polygon class="cls-2" points="28.18 113.89 37.33 113.89 37.33 116.6 31.29 116.6 31.29 118.34 36.76 118.34 36.76 120.86 31.29 120.86 31.29 122.68 37.41 122.68 37.41 125.39 28.18 125.39 28.18 113.89"/><polygon class="cls-2" points="38.87 113.89 42.02 113.89 42.02 122.6 47.54 122.6 47.54 125.39 38.87 125.39 38.87 113.89"/><polygon class="cls-2" points="48.73 113.89 57.83 113.89 57.83 116.68 51.88 116.68 51.88 118.62 57.27 118.62 57.27 121.28 51.88 121.28 51.88 125.39 48.73 125.39 48.73 113.89"/><path class="cls-2" d="M61.72,113.81h3l4.85,11.58H66.23l-.83-2H61l-.82,2H56.88Zm2.77,7.06-1.27-3.27-1.29,3.27Z"/><path class="cls-2" d="M70.55,113.89h5.39a6.6,6.6,0,0,1,2.23.33,3.93,3.93,0,0,1,1.48.92,3.58,3.58,0,0,1,1,2.68v0a3.65,3.65,0,0,1-.63,2.2,3.93,3.93,0,0,1-1.71,1.33l2.72,4H77.38l-2.29-3.48H73.71v3.48H70.55Zm5.24,5.52A1.87,1.87,0,0,0,77,119a1.2,1.2,0,0,0,.44-1v0a1.19,1.19,0,0,0-.45-1,2,2,0,0,0-1.25-.34H73.71v2.76Z"/><polygon class="cls-2" points="82.08 113.89 91.23 113.89 91.23 116.6 85.19 116.6 85.19 118.34 90.66 118.34 90.66 120.86 85.19 120.86 85.19 122.68 91.31 122.68 91.31 125.39 82.08 125.39 82.08 113.89"/><path class="cls-2" d="M90.52,49.89a31.56,31.56,0,0,0-15.6-19.4l0,0C65,25.79,57.75,25.14,53.35,28.52a2.73,2.73,0,0,0-1.16,2.53c.3,3,5.48,6.36,8.1,7.66,14.06,8.23,21.5,23,17.67,35.11-.81,2.87-2.54,4.84-4.65,5.26A4.33,4.33,0,0,1,69,77.32c-.84-1.06-1.42-1.89-1.82-2.48,3.3-9.85,1.11-16.91-2.41-20.42-2.5-2.49-5.8-3.32-8.41-2.1-3,1.42-4.54,5.13-4.12,10.18h0c.39,4.48.2,10.43-1.53,13.65a3.35,3.35,0,0,1-3.15,2.13c-2.86-.13-6.62-3.85-8.57-8.47-5.26-12.56-2.82-22.55-.9-27.39,4.89-12.32,10.31-18,17.47-23.3a15.7,15.7,0,0,1,1.52-.93c2-1.16,4.6-2.61,4.36-5a2.24,2.24,0,0,0-1-1.64c-1.66-1.19-4.85-.86-6.3-.52-9.7,2.28-14.75,6.82-21.76,15.52-11,13.7-13.62,29.35-7.06,42.93,5.34,11,16.26,19,26,19h.13A14.72,14.72,0,0,0,64.2,81.41a10.44,10.44,0,0,0,8.07,5.06,11.38,11.38,0,0,0,1.31.07c5.38,0,11-3.64,14.27-9.41,4.42-7.76,5.42-17.94,2.67-27.24"/><path class="cls-1" d="M11.49,181c-2,0-3.26-.74-3.26-3.47v-1c0-2.73,1.3-3.46,3.26-3.46a10.88,10.88,0,0,1,1.92.2v1.14c-.5,0-1.23-.09-1.83-.09-1.28,0-1.91.45-1.91,2.21v1c0,1.76.63,2.22,1.91,2.22.6,0,1.33-.05,1.83-.09v1.15a11,11,0,0,1-1.92.19"/><polygon class="cls-1" points="14.54 180.8 14.54 173.16 19.41 173.16 19.41 174.35 15.98 174.35 15.98 176.3 19.19 176.3 19.19 177.45 15.98 177.45 15.98 179.62 19.41 179.62 19.41 180.8 14.54 180.8"/><path class="cls-1" d="M25.21,180.8,23.53,178H22.15v2.82h-1.4v-7.64c.68,0,1.37,0,2.14,0,1.84,0,3.36.37,3.36,2.39v.07a2.06,2.06,0,0,1-1.31,2.12l1.8,3.11Zm-.37-5.28c0-1.19-.82-1.2-2.69-1.2v2.51h.79c1.32,0,1.9-.28,1.9-1.26Z"/><polygon class="cls-1" points="30.91 174.35 30.91 180.8 29.47 180.8 29.47 174.35 27.19 174.35 27.19 173.16 33.19 173.16 33.19 174.35 30.91 174.35"/><rect class="cls-1" x="34.29" y="173.16" width="1.44" height="7.64"/><polygon class="cls-1" points="38.79 174.37 38.79 176.3 42 176.3 42 177.45 38.79 177.45 38.79 180.8 37.35 180.8 37.35 173.16 42.22 173.16 42.22 174.37 38.79 174.37"/><rect class="cls-1" x="43.46" y="173.16" width="1.44" height="7.64"/><polygon class="cls-1" points="46.52 180.8 46.52 173.16 51.39 173.16 51.39 174.35 47.96 174.35 47.96 176.3 51.17 176.3 51.17 177.45 47.96 177.45 47.96 179.62 51.39 179.62 51.39 180.8 46.52 180.8"/><path class="cls-1" d="M55.12,180.86c-.94,0-1.46,0-2.39-.06v-7.64c.93,0,1.38-.06,2.39-.06,2.47,0,3.52,1.15,3.52,3.38v1c0,2.25-1,3.41-3.52,3.41m2.09-4.38c0-1.66-.65-2.16-2.12-2.16h-1v5.33h1c1.47,0,2.12-.54,2.12-2.2Z"/><path class="cls-1" d="M64.22,180.86c-.88,0-1.25,0-2.21-.06v-7.64c1,0,1.37-.06,2.25-.06,2,0,3.31.36,3.31,2.08v.09a1.67,1.67,0,0,1-1,1.6,1.66,1.66,0,0,1,1,1.62v.1c0,1.91-1.42,2.27-3.39,2.27m2-5.63c0-.88-.69-.95-1.91-.95H63.4v2.07h1.3c1.18,0,1.47-.39,1.47-1Zm0,3.25c0-.67-.32-1.09-1.49-1.09H63.4v2.29h.39c1.57,0,2.41,0,2.41-1.09Z"/><path class="cls-1" d="M72.25,177.94v2.86H70.86v-2.86l-2.55-4.78h1.5l1.2,2.21a11.44,11.44,0,0,1,.53,1.18h.07a9.75,9.75,0,0,1,.55-1.18l1.2-2.21H74.8Z"/><path class="cls-1" d="M29.42,206.11v-4.62h8.43v-4.18H29.42v-4.69H39.79l1.47-4.19H24.71V210.3H41.57l-1.47-4.19ZM8.53,188.43,0,210.3H5l6.52-17.7,3.35,9.17-3.72,0-1.47,4.19h6.75l1.59,4.37h5l-8.53-21.87Zm71.83-.84c-6.93,0-11.9,4.87-11.9,11.78s5,11.77,11.9,11.77,11.9-4.87,11.9-11.77-5-11.78-11.9-11.78m0,19c-3.93,0-6.77-3-6.77-7.24s2.84-7.25,6.77-7.25,6.78,3,6.78,7.25-2.84,7.24-6.78,7.24m33.39-10.49c0-4.84-3.28-7.69-8.77-7.69H95.17V210.3h4.71V192.62H105c2.4,0,3.81,1.31,3.81,3.5s-1.35,3.5-3.66,3.5h-2.72l6,10.68h5.09L109,202.65c3.35-.85,4.78-3.53,4.78-6.53M58,192.62h2.87v10.62l-11-14.81h-5V210.3H55.5l-3.09-4.19H49.57V195.53l11,14.77h5V188.43H54.88Z"/></svg>