<svg id="Capa_1" data-name="Capa 1" xmlns="http://www.w3.org/2000/svg" xmlns:xlink="http://www.w3.org/1999/xlink" viewBox="0 0 113.88 212.34"><defs><style>.cls-1{fill:none;}.cls-2{fill:#fff;}.cls-3{fill:#1f1e21;}.cls-4{clip-path:url(#clip-path);}.cls-5{fill:#006d5b;}</style><clipPath id="clip-path"><path class="cls-1" d="M55,11c-9.67,2.27-14.7,6.8-21.7,15.47-11,13.66-13.57,29.27-7,42.8,5.32,11,16.21,19,25.93,19h.13a14.67,14.67,0,0,0,12.7-7,10.44,10.44,0,0,0,8,5c.43,0,.87.07,1.3.07,5.37,0,11-3.64,14.24-9.39,4.4-7.73,5.4-17.89,2.66-27.16A31.47,31.47,0,0,0,75.75,30.4l0,0C70,27.67,65.16,26.32,61.25,26.32a11.14,11.14,0,0,0-7,2.12A2.72,2.72,0,0,0,53.09,31c.3,3,5.46,6.34,8.08,7.63,14,8.21,21.43,22.92,17.62,35-.81,2.87-2.54,4.83-4.65,5.25a4.56,4.56,0,0,1-.82.08,4.46,4.46,0,0,1-3.49-1.84C69,76,68.41,75.21,68,74.62c3.3-9.83,1.11-16.85-2.4-20.36a8.42,8.42,0,0,0-5.83-2.65,6,6,0,0,0-2.55.55c-3,1.42-4.53,5.12-4.11,10.16h0c.4,4.48.21,10.4-1.52,13.62a3.37,3.37,0,0,1-3,2.12h-.14c-2.84-.13-6.6-3.84-8.55-8.45-5.23-12.51-2.8-22.47-.89-27.3C43.9,30,49.3,24.31,56.44,19.07A15.84,15.84,0,0,1,58,18.15c2-1.17,4.58-2.61,4.34-5a2.21,2.21,0,0,0-1-1.63,6.11,6.11,0,0,0-3.45-.84A13.11,13.11,0,0,0,55,11"/></clipPath></defs><title>CFM</title><path class="cls-2" d="M3,161.66v-137s2-23,26-23H89s23,2,23,25v135H3"/><path class="cls-3" d="M112.11,161h-1.76V27a29.9,29.9,0,0,0-3.58-12.85,20.21,20.21,0,0,0-7-7.37A24.58,24.58,0,0,0,86.61,3.53H28.74A29.86,29.86,0,0,0,15.89,7.12a20.21,20.21,0,0,0-7.37,7c-2,3.21-3.29,7.43-3.29,13.14v132H112.11V161h0v1.77H1.7V27.27C1.69,20.6,3.38,15.43,6,11.54A25.85,25.85,0,0,1,20.39,1.42,32.46,32.46,0,0,1,29,0H86.61c6.67,0,11.84,1.68,15.72,4.28a25.9,25.9,0,0,1,10.13,14.41,32.45,32.45,0,0,1,1.42,8.58V162.76h-1.77Z"/><path class="cls-3" d="M19.32,138.9l-1-1.05A3.62,3.62,0,0,1,15.66,139a3.26,3.26,0,0,1,0-6.5,3.62,3.62,0,0,1,2.56,1.14l1-1.19a4.74,4.74,0,0,0-3.58-1.42,4.73,4.73,0,0,0-.06,9.45,4.74,4.74,0,0,0,3.71-1.62m8.44-7.68H21v9.14h6.83v-1.43H22.59v-2.46h4.59V135H22.59v-2.37h5.17Zm9.71,9.14L35,136.9a2.73,2.73,0,0,0,2.17-2.78c0-1.79-1.29-2.9-3.39-2.9H29.72v9.14h1.6v-3.19h2l2.25,3.19Zm-1.92-6.15c0,.94-.73,1.54-1.88,1.54H31.32v-3.07h2.34c1.19,0,1.89.53,1.89,1.53m7.41-1.5h2.9v-1.49H38.44v1.49h2.9v7.65H43Zm4.67,7.65h1.61v-9.14H47.63Zm10.85-9.14H51.67v9.14h1.61v-3.72h4.61v-1.46H53.28v-2.5h5.2Zm1.83,9.14h1.61v-9.14H60.31Zm12-1.46-1-1.05A3.62,3.62,0,0,1,68.65,139a3.26,3.26,0,0,1,0-6.5,3.64,3.64,0,0,1,2.56,1.14l1-1.19a4.74,4.74,0,0,0-3.58-1.42,4.73,4.73,0,0,0-.06,9.45,4.74,4.74,0,0,0,3.71-1.62m6.39-7.74H77.21l-4,9.2h1.64l.94-2.2H80.1l.92,2.2h1.7Zm.81,5.57H76.36l1.57-3.66Zm13-.95a4.55,4.55,0,0,0-4.85-4.56H84.27v9.14h3.41a4.57,4.57,0,0,0,4.85-4.58m-1.68,0a3,3,0,0,1-3.17,3.1H85.87v-6.22h1.81a3,3,0,0,1,3.17,3.12m12.76,0a4.64,4.64,0,0,0-4.76-4.71,4.73,4.73,0,1,0,4.76,4.71m-1.68,0A3.09,3.09,0,0,1,98.85,139a3.13,3.13,0,0,1-3.11-3.26,3.09,3.09,0,0,1,3.08-3.24,3.14,3.14,0,0,1,3.11,3.26"/><path class="cls-3" d="M14.58,151.1l-2.18-6.78H10.66l3.19,9.21h1.38L17.48,147l2.24,6.57h1.39l3.18-9.21H22.61l-2.18,6.78-2.25-6.8H16.82Zm18.11-6.78H25.91v9.15h6.84V152H27.52v-2.46H32.1v-1.43H27.52v-2.38h5.17Zm2,9.15h6.41V152h-4.8v-7.68H34.64Zm14.87-9.15h-6.8v9.15h1.61v-3.73h4.6v-1.46h-4.6v-2.49h5.19Z"/><path class="cls-3" d="M54.94,144.26H53.45l-4,9.21h1.64l.94-2.21h4.33l.92,2.21H59Zm.81,5.58H52.6l1.57-3.66Zm4.85,3.63h1.61v-9.14H60.6Zm11.8,0L69.93,150a2.75,2.75,0,0,0,2.18-2.79c0-1.78-1.29-2.9-3.4-2.9H64.64v9.15h1.61v-3.19h2l2.24,3.19Zm-1.92-6.16c0,.94-.73,1.55-1.88,1.55H66.25v-3.07h2.33c1.19,0,1.9.52,1.9,1.52"/><path class="cls-3" d="M80.21,145.58v2.51h.66v-3.53h-.7l-1.07,1.67L78,144.56h-.72v3.53H78v-2.51l1.09,1.7h.07Zm-4.74-.4h1.09v-.62H73.71v.62H74.8v2.91h.67Z"/><path class="cls-3" d="M11.2,109.29h5.85c2.7,0,4.29-1.19,4.29-3.16v0a2.77,2.77,0,0,0-2.25-2.8,2.65,2.65,0,0,0,1.75-2.55v0a2.54,2.54,0,0,0-.73-1.85,4.16,4.16,0,0,0-3.1-1H11.2Zm3.06-6.89v-2h2c.94,0,1.43.36,1.43,1v0c0,.67-.54,1-1.49,1Zm0,4.34v-2.11h2.4c1.05,0,1.54.41,1.54,1v0c0,.67-.55,1-1.51,1Zm8.43,2.55h3.16V97.84H22.69Zm5.08,0H37v-2.7h-6.1v-1.82h5.45v-2.5H30.88v-1.73h6v-2.7H27.77Zm10.65,0h3.12V103l4.84,6.28h2.76V97.84H46v6l-4.66-6H38.42Zm12.57,0H60.2v-2.7H54.11v-1.82h5.44v-2.5H54.11v-1.73h6v-2.7H51Zm15.12.2c2.75,0,4.58-1.39,4.58-3.73v0c0-2.14-1.62-3-4.23-3.56-1.57-.36-2-.59-2-1.12v0c0-.41.37-.73,1.14-.73a5.63,5.63,0,0,1,3.17,1.13l1.58-2.25a7.16,7.16,0,0,0-4.67-1.52c-2.73,0-4.4,1.54-4.4,3.67v0c0,2.36,1.87,3,4.28,3.6,1.54.36,1.92.62,1.92,1.09v0c0,.49-.46.78-1.3.78a5.82,5.82,0,0,1-3.68-1.37l-1.75,2.11a7.87,7.87,0,0,0,5.32,1.9m8.4-.2h3.14v-8.67h3.4V97.84H71.11v2.78h3.4Zm5.4,0h3.3l.82-2.05H88.4l.83,2.05H92.6L87.77,97.76h-3Zm5-4.52,1.28-3.25,1.26,3.25Zm8.6,4.52h3.14v-3.47h1.38l2.28,3.47H104l-2.7-4a3.63,3.63,0,0,0,2.33-3.52v0a3.58,3.58,0,0,0-1-2.67,5,5,0,0,0-3.7-1.24H93.55Zm3.14-6v-2.74h2.06c1,0,1.7.45,1.7,1.35v0c0,.83-.61,1.35-1.68,1.35Z"/><path class="cls-3" d="M10.29,125h3.3l.81-2h4.38l.83,2H23l-4.83-11.54h-3Zm5-4.52,1.28-3.25,1.26,3.25Zm8.6,4.52H27v-6.29L31.88,125h2.76V113.56H31.53v6.06l-4.67-6.06H23.93Zm12.63,0h3.16V113.56H36.56Zm5.08,0h3.07v-6.55l2.89,4.45h.06l2.91-4.48V125h3.12V113.56H50.37L47.66,118,45,113.56H41.64Zm13,0H58l.81-2h4.38l.82,2h3.37L62.5,113.48h-3Zm5-4.52L61,117.25l1.27,3.25Zm8.6,4.52h8.64v-2.78H71.43v-8.68H68.28Z"/><path class="cls-3" d="M91.31,49.74A31.47,31.47,0,0,0,75.75,30.4l0,0c-9.86-4.66-17.09-5.32-21.48-1.94A2.72,2.72,0,0,0,53.09,31c.3,3,5.46,6.34,8.08,7.63,14,8.21,21.43,22.92,17.62,35-.81,2.87-2.54,4.83-4.65,5.25a4.32,4.32,0,0,1-4.31-1.76C69,76,68.41,75.21,68,74.62c3.3-9.83,1.11-16.85-2.4-20.36-2.48-2.49-5.78-3.3-8.38-2.1-3,1.42-4.53,5.12-4.11,10.16h0c.4,4.47.21,10.39-1.52,13.61a3.35,3.35,0,0,1-3.14,2.12c-2.85-.13-6.6-3.84-8.55-8.45-5.23-12.51-2.8-22.48-.89-27.3C43.9,30,49.3,24.31,56.44,19.07A15.84,15.84,0,0,1,58,18.15c2-1.17,4.58-2.61,4.34-5a2.21,2.21,0,0,0-1-1.63C59.67,10.3,56.48,10.63,55,11c-9.67,2.27-14.7,6.8-21.7,15.47-11,13.66-13.57,29.27-7,42.8,5.33,11,16.21,19,25.93,19h.13a14.67,14.67,0,0,0,12.7-7,10.44,10.44,0,0,0,8,5c.43,0,.87.07,1.3.07,5.37,0,11-3.64,14.24-9.39C93.05,69.17,94,59,91.31,49.74"/><path class="cls-3" d="M86.61,0H29a32.46,32.46,0,0,0-8.57,1.42A25.85,25.85,0,0,0,6,11.54C3.38,15.43,1.69,20.6,1.7,27.27V162.76H112.11v0h1.77V27.27a32.45,32.45,0,0,0-1.42-8.58A25.88,25.88,0,0,0,102.34,4.28C98.45,1.68,93.29,0,86.64,0ZM5.23,135.49V27.27c0-5.71,1.32-9.93,3.29-13.14a20.09,20.09,0,0,1,7.37-7A29.78,29.78,0,0,1,28.73,3.54H86.61c5.71,0,9.93,1.32,13.14,3.29a20.09,20.09,0,0,1,7,7.37A29.81,29.81,0,0,1,110.34,27V159.23H5.23Z"/><path class="cls-3" d="M86.61,0H29a32.46,32.46,0,0,0-8.57,1.42A25.85,25.85,0,0,0,6,11.54C3.38,15.43,1.69,20.6,1.7,27.27V162.76H112.11v0h1.77V27.27a32.45,32.45,0,0,0-1.42-8.58A25.88,25.88,0,0,0,102.34,4.28C98.45,1.68,93.29,0,86.64,0ZM5.23,135.49V27.27c0-5.71,1.32-9.93,3.29-13.14a20.09,20.09,0,0,1,7.37-7A29.78,29.78,0,0,1,28.73,3.54H86.61c5.71,0,9.93,1.32,13.14,3.29a20.09,20.09,0,0,1,7,7.37A29.81,29.81,0,0,1,110.34,27V159.23H5.23Z"/><path class="cls-3" d="M94.05,135.81a4.78,4.78,0,1,0,4.79-4.75,4.69,4.69,0,0,0-4.79,4.75m1.69,0a3.09,3.09,0,0,1,3.08-3.24,3.14,3.14,0,0,1,3.11,3.27A3.09,3.09,0,0,1,98.84,139a3.13,3.13,0,0,1-3.1-3.26m-31.79,0a4.6,4.6,0,0,0,4.65,4.71,4.74,4.74,0,0,0,3.71-1.62l-1-1.05A3.54,3.54,0,0,1,68.65,139a3.26,3.26,0,0,1,0-6.5,3.64,3.64,0,0,1,2.56,1.14l1-1.19a4.74,4.74,0,0,0-3.58-1.43A4.63,4.63,0,0,0,64,135.81m-53,0a4.6,4.6,0,0,0,4.65,4.71,4.72,4.72,0,0,0,3.71-1.62l-1-1.05A3.56,3.56,0,0,1,15.66,139a3.26,3.26,0,0,1,0-6.5,3.64,3.64,0,0,1,2.56,1.14l1-1.19a4.74,4.74,0,0,0-3.58-1.43A4.63,4.63,0,0,0,11,135.81m66.25-4.65-4,9.2h1.64l.94-2.2H80.1l.92,2.2h1.7l-4-9.2Zm.72,1.91,1.58,3.66H76.36Zm6.34-1.85v9.14h3.41a4.58,4.58,0,1,0,0-9.14Zm1.6,1.46h1.81a3.11,3.11,0,1,1,0,6.22H85.87Zm-25.55,7.68h1.6v-9.14h-1.6Zm-8.65-9.14v9.14h1.61v-3.72h4.61v-1.46H53.28v-2.5h5.2v-1.46Zm-4,9.14h1.61v-9.14H47.63Zm-9.19-9.14v1.49h2.9v7.65H43v-7.65h2.9v-1.49Zm-8.73,0v9.14h1.61v-3.18h2l2.25,3.18h1.89L35,136.9a2.74,2.74,0,0,0,2.19-2.78c0-1.79-1.3-2.9-3.4-2.9Zm1.61,1.46h2.34c1.19,0,1.89.52,1.89,1.53s-.73,1.54-1.88,1.54H31.32ZM21,131.22v9.14h6.85v-1.44H22.59v-2.45h4.58V135H22.59v-2.37h5.17v-1.44Z"/><path class="cls-3" d="M94.05,135.81a4.78,4.78,0,1,0,4.79-4.75,4.69,4.69,0,0,0-4.79,4.75m1.69,0a3.09,3.09,0,0,1,3.08-3.24,3.14,3.14,0,0,1,3.11,3.27A3.09,3.09,0,0,1,98.84,139a3.13,3.13,0,0,1-3.1-3.26m-31.79,0a4.6,4.6,0,0,0,4.65,4.71,4.74,4.74,0,0,0,3.71-1.62l-1-1.05A3.54,3.54,0,0,1,68.65,139a3.26,3.26,0,0,1,0-6.5,3.64,3.64,0,0,1,2.56,1.14l1-1.19a4.74,4.74,0,0,0-3.58-1.43A4.63,4.63,0,0,0,64,135.81m-53,0a4.6,4.6,0,0,0,4.65,4.71,4.72,4.72,0,0,0,3.71-1.62l-1-1.05A3.56,3.56,0,0,1,15.66,139a3.26,3.26,0,0,1,0-6.5,3.64,3.64,0,0,1,2.56,1.14l1-1.19a4.74,4.74,0,0,0-3.58-1.43A4.63,4.63,0,0,0,11,135.81m66.25-4.65-4,9.2h1.64l.94-2.2H80.1l.92,2.2h1.7l-4-9.2Zm.72,1.91,1.58,3.66H76.36Zm6.34-1.85v9.14h3.41a4.58,4.58,0,1,0,0-9.14Zm1.6,1.46h1.81a3.11,3.11,0,1,1,0,6.22H85.87Zm-25.55,7.68h1.6v-9.14h-1.6Zm-8.65-9.14v9.14h1.61v-3.72h4.61v-1.46H53.28v-2.5h5.2v-1.46Zm-4,9.14h1.61v-9.14H47.63Zm-9.19-9.14v1.49h2.9v7.65H43v-7.65h2.9v-1.49Zm-8.73,0v9.14h1.61v-3.18h2l2.25,3.18h1.89L35,136.9a2.74,2.74,0,0,0,2.19-2.78c0-1.79-1.3-2.9-3.4-2.9Zm1.61,1.46h2.34c1.19,0,1.89.52,1.89,1.53s-.73,1.54-1.88,1.54H31.32ZM21,131.22v9.14h6.85v-1.44H22.59v-2.45h4.58V135H22.59v-2.37h5.17v-1.44Z"/><path class="cls-3" d="M16.83,144.3l-2.25,6.8-2.18-6.77H10.66l3.19,9.2h1.38L17.48,147l2.24,6.57h1.39l3.18-9.2H22.61l-2.18,6.77-2.25-6.8Zm25.88,0v9.13h1.61v-3.72h4.6v-1.46h-4.6v-2.49h5.19v-1.46Zm-8.07,0v9.13h6.41V152h-4.8v-7.67Zm-8.73,0v9.13h6.84V152H27.52v-2.45H32.1v-1.44H27.52v-2.38h5.17v-1.43Z"/><path class="cls-3" d="M16.83,144.3l-2.25,6.8-2.18-6.77H10.66l3.19,9.2h1.38L17.48,147l2.24,6.57h1.39l3.18-9.2H22.61l-2.18,6.77-2.25-6.8Zm25.88,0v9.13h1.61v-3.72h4.6v-1.46h-4.6v-2.49h5.19v-1.46Zm-8.07,0v9.13h6.41V152h-4.8v-7.67Zm-8.73,0v9.13h6.84V152H27.52v-2.45H32.1v-1.44H27.52v-2.38h5.17v-1.43Z"/><path class="cls-3" d="M53.45,144.26l-4,9.21h1.64l1-2.21h4.32l.92,2.21H59l-4-9.21Zm.72,1.92,1.58,3.66H52.6Zm10.47-1.85v9.14h1.6v-3.19h2l2.24,3.19h1.9L69.93,150a2.73,2.73,0,0,0,2.18-2.78c0-1.78-1.29-2.89-3.4-2.89Zm1.6,1.46h2.34c1.19,0,1.9.52,1.9,1.53s-.73,1.53-1.88,1.53H66.24Zm-5.64,7.68h1.61v-9.14H60.6Z"/><path class="cls-3" d="M53.45,144.26l-4,9.21h1.64l1-2.21h4.32l.92,2.21H59l-4-9.21Zm.72,1.92,1.58,3.66H52.6Zm10.47-1.85v9.14h1.6v-3.19h2l2.24,3.19h1.9L69.93,150a2.73,2.73,0,0,0,2.18-2.78c0-1.78-1.29-2.89-3.4-2.89Zm1.6,1.46h2.34c1.19,0,1.9.52,1.9,1.53s-.73,1.53-1.88,1.53H66.24Zm-5.64,7.68h1.61v-9.14H60.6Z"/><path class="cls-3" d="M80.17,144.56l-1.07,1.67L78,144.56h-.72v3.53H78v-2.51l1.09,1.7h.07l1.08-1.7v2.51h.66v-3.53Zm-6.46,0v.62H74.8v2.91h.67v-2.91h1.09v-.62Z"/><path class="cls-3" d="M80.17,144.56l-1.07,1.67L78,144.56h-.72v3.53H78v-2.51l1.09,1.7h.07l1.08-1.7v2.51h.66v-3.53Zm-6.46,0v.62H74.8v2.91h.67v-2.91h1.09v-.62Z"/><path class="cls-3" d="M61.32,101.31v0c0,2.36,1.87,3,4.28,3.6,1.54.36,1.92.62,1.92,1.1v0c0,.49-.46.79-1.3.79a5.83,5.83,0,0,1-3.68-1.38l-1.75,2.11a7.9,7.9,0,0,0,5.32,1.9c2.75,0,4.58-1.39,4.58-3.73v0c0-2.15-1.62-3-4.23-3.57-1.57-.36-2-.59-2-1.11v0c0-.41.37-.73,1.14-.73a5.63,5.63,0,0,1,3.17,1.13l1.57-2.25a7.13,7.13,0,0,0-4.66-1.52c-2.73,0-4.4,1.54-4.4,3.67m23.42-3.55-4.83,11.53h3.31l.81-2.05H88.4l.83,2.05H92.6L87.77,97.76Zm1.49,3.76,1.26,3.25H85Zm7.32-3.68v11.45h3.14v-3.47h1.38l2.29,3.47H104l-2.7-4a3.63,3.63,0,0,0,2.33-3.52v0a3.6,3.6,0,0,0-1-2.67,5,5,0,0,0-3.7-1.24Zm3.14,2.75h2.06c1.06,0,1.7.46,1.7,1.35v0c0,.83-.61,1.35-1.68,1.35H96.69ZM71.1,97.84v2.78h3.41v8.67h3.14v-8.67h3.41V97.84ZM51,97.84v11.45H60.2v-2.7H54.1v-1.82h5.45v-2.5H54.1v-1.73h6v-2.7Zm-5,0v6l-4.66-6H38.42v11.45h3.12V103l4.84,6.28h2.76V97.84Zm-18.25,0v11.45H37v-2.7h-6.1v-1.82h5.45v-2.5H30.88v-1.73h6v-2.7ZM22.7,109.29h3.15V97.84H22.7ZM11.19,97.84v11.45H17c2.71,0,4.3-1.19,4.3-3.16v0a2.78,2.78,0,0,0-2.25-2.8,2.65,2.65,0,0,0,1.75-2.55v0a2.54,2.54,0,0,0-.73-1.85,4.18,4.18,0,0,0-3.1-1Zm3.07,2.55h2c.94,0,1.43.36,1.43,1v0c0,.67-.54,1-1.5,1h-2Zm0,4.24h2.4c1.05,0,1.54.41,1.54,1v0c0,.67-.55,1-1.51,1H14.26Z"/><path class="cls-3" d="M61.32,101.31v0c0,2.36,1.87,3,4.28,3.6,1.54.36,1.92.62,1.92,1.1v0c0,.49-.46.79-1.3.79a5.83,5.83,0,0,1-3.68-1.38l-1.75,2.11a7.9,7.9,0,0,0,5.32,1.9c2.75,0,4.58-1.39,4.58-3.73v0c0-2.15-1.62-3-4.23-3.57-1.57-.36-2-.59-2-1.11v0c0-.41.37-.73,1.14-.73a5.63,5.63,0,0,1,3.17,1.13l1.57-2.25a7.13,7.13,0,0,0-4.66-1.52c-2.73,0-4.4,1.54-4.4,3.67m23.42-3.55-4.83,11.53h3.31l.81-2.05H88.4l.83,2.05H92.6L87.77,97.76Zm1.49,3.76,1.26,3.25H85Zm7.32-3.68v11.45h3.14v-3.47h1.38l2.29,3.47H104l-2.7-4a3.63,3.63,0,0,0,2.33-3.52v0a3.6,3.6,0,0,0-1-2.67,5,5,0,0,0-3.7-1.24Zm3.14,2.75h2.06c1.06,0,1.7.46,1.7,1.35v0c0,.83-.61,1.35-1.68,1.35H96.69ZM71.1,97.84v2.78h3.41v8.67h3.14v-8.67h3.41V97.84ZM51,97.84v11.45H60.2v-2.7H54.1v-1.82h5.45v-2.5H54.1v-1.73h6v-2.7Zm-5,0v6l-4.66-6H38.42v11.45h3.12V103l4.84,6.28h2.76V97.84Zm-18.25,0v11.45H37v-2.7h-6.1v-1.82h5.45v-2.5H30.88v-1.73h6v-2.7ZM22.7,109.29h3.15V97.84H22.7ZM11.19,97.84v11.45H17c2.71,0,4.3-1.19,4.3-3.16v0a2.78,2.78,0,0,0-2.25-2.8,2.65,2.65,0,0,0,1.75-2.55v0a2.54,2.54,0,0,0-.73-1.85,4.18,4.18,0,0,0-3.1-1Zm3.07,2.55h2c.94,0,1.43.36,1.43,1v0c0,.67-.54,1-1.5,1h-2Zm0,4.24h2.4c1.05,0,1.54.41,1.54,1v0c0,.67-.55,1-1.51,1H14.26Z"/><path class="cls-3" d="M59.47,113.48,54.64,125H58l.81-2h4.37l.83,2h3.37L62.5,113.48ZM61,117.24l1.27,3.26H59.68Zm-45.84-3.76L10.28,125h3.31l.82-2h4.37l.82,2H23l-4.83-11.54Zm1.49,3.76,1.26,3.26H15.33Zm51.67-3.68V125h8.64v-2.78h-5.5v-8.68Zm-17.91,0L47.66,118,45,113.56H41.64V125h3.07v-6.55l2.89,4.45h.06l2.9-4.48V125H53.7V113.56ZM36.56,125h3.16V113.56H36.56Zm-5-11.46v6.06l-4.67-6.06H23.93V125H27v-6.29L31.88,125h2.76V113.56Z"/><path class="cls-3" d="M59.47,113.48,54.64,125H58l.81-2h4.37l.83,2h3.37L62.5,113.48ZM61,117.24l1.27,3.26H59.68Zm-45.84-3.76L10.28,125h3.31l.82-2h4.37l.82,2H23l-4.83-11.54Zm1.49,3.76,1.26,3.26H15.33Zm51.67-3.68V125h8.64v-2.78h-5.5v-8.68Zm-17.91,0L47.66,118,45,113.56H41.64V125h3.07v-6.55l2.89,4.45h.06l2.9-4.48V125H53.7V113.56ZM36.56,125h3.16V113.56H36.56Zm-5-11.46v6.06l-4.67-6.06H23.93V125H27v-6.29L31.88,125h2.76V113.56Z"/><path class="cls-3" d="M55,11c-9.67,2.27-14.7,6.8-21.7,15.47-11,13.66-13.57,29.27-7,42.8,5.32,11,16.21,19,25.93,19h.13a14.67,14.67,0,0,0,12.7-7,10.44,10.44,0,0,0,8,5c.43,0,.87.07,1.3.07,5.37,0,11-3.64,14.24-9.39C93.05,69.17,94,59,91.31,49.74A31.47,31.47,0,0,0,75.75,30.4l0,0C70,27.67,65.16,26.32,61.25,26.32a11.14,11.14,0,0,0-7,2.12A2.72,2.72,0,0,0,53.09,31c.3,3,5.46,6.34,8.08,7.63,14,8.21,21.43,22.92,17.62,35-.81,2.87-2.54,4.83-4.65,5.24a3.81,3.81,0,0,1-.82.09,4.46,4.46,0,0,1-3.49-1.84C69,76,68.41,75.21,68,74.62c3.3-9.83,1.11-16.85-2.4-20.36a8.42,8.42,0,0,0-5.83-2.65,6,6,0,0,0-2.55.55c-3,1.42-4.53,5.12-4.11,10.16h0c.4,4.48.21,10.4-1.52,13.62a3.37,3.37,0,0,1-3,2.12h-.14c-2.85-.13-6.6-3.84-8.55-8.45-5.23-12.51-2.8-22.47-.89-27.3C43.9,30,49.3,24.31,56.44,19.07A15.84,15.84,0,0,1,58,18.15c2-1.17,4.58-2.61,4.34-5a2.21,2.21,0,0,0-1-1.63,6.11,6.11,0,0,0-3.45-.84A13.11,13.11,0,0,0,55,11"/><path class="cls-3" d="M55,11c-9.67,2.27-14.7,6.8-21.7,15.47-11,13.66-13.57,29.27-7,42.8,5.32,11,16.21,19,25.93,19h.13a14.67,14.67,0,0,0,12.7-7,10.44,10.44,0,0,0,8,5c.43,0,.87.07,1.3.07,5.37,0,11-3.64,14.24-9.39C93.05,69.17,94,59,91.31,49.74A31.47,31.47,0,0,0,75.75,30.4l0,0C70,27.67,65.16,26.32,61.25,26.32a11.14,11.14,0,0,0-7,2.12A2.72,2.72,0,0,0,53.09,31c.3,3,5.46,6.34,8.08,7.63,14,8.21,21.43,22.92,17.62,35-.81,2.87-2.54,4.83-4.65,5.24a3.81,3.81,0,0,1-.82.09,4.46,4.46,0,0,1-3.49-1.84C69,76,68.41,75.21,68,74.62c3.3-9.83,1.11-16.85-2.4-20.36a8.42,8.42,0,0,0-5.83-2.65,6,6,0,0,0-2.55.55c-3,1.42-4.53,5.12-4.11,10.16h0c.4,4.48.21,10.4-1.52,13.62a3.37,3.37,0,0,1-3,2.12h-.14c-2.85-.13-6.6-3.84-8.55-8.45-5.23-12.51-2.8-22.47-.89-27.3C43.9,30,49.3,24.31,56.44,19.07A15.84,15.84,0,0,1,58,18.15c2-1.17,4.58-2.61,4.34-5a2.21,2.21,0,0,0-1-1.63,6.11,6.11,0,0,0-3.45-.84A13.11,13.11,0,0,0,55,11"/><g class="cls-4"><rect class="cls-5" x="17.54" y="7.47" width="79.04" height="83.69"/></g><path class="cls-3" d="M55,11c-9.67,2.27-14.7,6.8-21.7,15.47-11,13.66-13.57,29.27-7,42.8,5.32,11,16.21,19,25.93,19h.13a14.67,14.67,0,0,0,12.7-7,10.44,10.44,0,0,0,8,5c.43,0,.87.07,1.3.07,5.37,0,11-3.64,14.24-9.39C93.05,69.17,94,59,91.31,49.74A31.47,31.47,0,0,0,75.75,30.4l0,0C70,27.67,65.16,26.32,61.25,26.32a11.14,11.14,0,0,0-7,2.12A2.72,2.72,0,0,0,53.09,31c.3,3,5.46,6.34,8.08,7.63,14,8.21,21.43,22.92,17.62,35-.81,2.87-2.54,4.83-4.65,5.24a3.81,3.81,0,0,1-.82.09,4.46,4.46,0,0,1-3.49-1.84C69,76,68.41,75.21,68,74.62c3.3-9.83,1.11-16.85-2.4-20.36a8.42,8.42,0,0,0-5.83-2.65,6,6,0,0,0-2.55.55c-3,1.42-4.53,5.12-4.11,10.16h0c.4,4.48.21,10.4-1.52,13.62a3.37,3.37,0,0,1-3,2.12h-.14c-2.85-.13-6.6-3.84-8.55-8.45-5.23-12.51-2.8-22.47-.89-27.3C43.9,30,49.3,24.31,56.44,19.07A15.84,15.84,0,0,1,58,18.15c2-1.17,4.58-2.61,4.34-5a2.21,2.21,0,0,0-1-1.63,6.11,6.11,0,0,0-3.45-.84A13.11,13.11,0,0,0,55,11"/><path class="cls-3" d="M55,11c-9.67,2.27-14.7,6.8-21.7,15.47-11,13.66-13.57,29.27-7,42.8,5.32,11,16.21,19,25.93,19h.13a14.67,14.67,0,0,0,12.7-7,10.44,10.44,0,0,0,8,5c.43,0,.87.07,1.3.07,5.37,0,11-3.64,14.24-9.39C93.05,69.17,94,59,91.31,49.74A31.47,31.47,0,0,0,75.75,30.4l0,0C70,27.67,65.16,26.32,61.25,26.32a11.14,11.14,0,0,0-7,2.12A2.72,2.72,0,0,0,53.09,31c.3,3,5.46,6.34,8.08,7.63,14,8.21,21.43,22.92,17.62,35-.81,2.87-2.54,4.83-4.65,5.24a3.81,3.81,0,0,1-.82.09,4.46,4.46,0,0,1-3.49-1.84C69,76,68.41,75.21,68,74.62c3.3-9.83,1.11-16.85-2.4-20.36a8.42,8.42,0,0,0-5.83-2.65,6,6,0,0,0-2.55.55c-3,1.42-4.53,5.12-4.11,10.16h0c.4,4.48.21,10.4-1.52,13.62a3.37,3.37,0,0,1-3,2.12h-.14c-2.85-.13-6.6-3.84-8.55-8.45-5.23-12.51-2.8-22.47-.89-27.3C43.9,30,49.3,24.31,56.44,19.07A15.84,15.84,0,0,1,58,18.15c2-1.17,4.58-2.61,4.34-5a2.21,2.21,0,0,0-1-1.63,6.11,6.11,0,0,0-3.45-.84A13.11,13.11,0,0,0,55,11"/><polygon class="cls-2" points="8.54 189.6 0 211.49 5.04 211.49 11.57 193.77 14.91 202.96 11.2 202.92 9.72 207.11 16.48 207.11 18.07 211.49 23.11 211.49 14.57 189.6 8.54 189.6"/><polygon class="cls-2" points="24.73 189.6 24.73 211.49 41.62 211.49 40.15 207.3 29.46 207.3 29.46 202.68 37.9 202.68 37.9 198.49 29.46 198.49 29.46 193.79 39.84 193.79 41.31 189.6 24.73 189.6"/><polygon class="cls-2" points="54.94 189.6 58.03 193.79 60.91 193.79 60.91 204.43 49.9 189.6 44.9 189.6 44.9 211.49 55.56 211.49 52.47 207.3 49.62 207.3 49.62 196.7 60.6 211.49 65.63 211.49 65.63 189.6 54.94 189.6"/><path class="cls-2" d="M95.27,189.6h9.82c5.51,0,8.79,2.85,8.79,7.7,0,3-1.44,5.69-4.79,6.53l4.57,7.66h-5.1l-6-10.69h2.72c2.31,0,3.66-1.32,3.66-3.5s-1.41-3.51-3.82-3.51H100v17.7H95.27Z"/><path class="cls-2" d="M68.54,200.55c0-6.91,5-11.79,11.91-11.79s11.92,4.88,11.92,11.79-5,11.79-11.92,11.79-11.91-4.88-11.91-11.79m5.13,0c0,4.25,2.84,7.25,6.78,7.25s6.79-3,6.79-7.25-2.85-7.26-6.79-7.26-6.78,3-6.78,7.26"/><path class="cls-2" d="M79.89,177.08c.83,0,1.1.24,1.1.6s-.27.59-1.1.59H78.76v-1.19Zm1.41,4.29h1.45L81,179.13a1.47,1.47,0,0,0,1.21-1.45c0-.94-.66-1.62-2.36-1.62H77.5v5.31h1.26v-2.08h1Zm-10-2.48a2.57,2.57,0,1,0,5.14,0v-.34a2.57,2.57,0,1,0-5.14,0Zm3.87,0c0,1.21-.52,1.59-1.3,1.59s-1.3-.38-1.3-1.59v-.34c0-1.21.52-1.59,1.3-1.59s1.3.38,1.3,1.59Zm-6.92-1.81c.83,0,1.11.24,1.11.68s-.28.67-1.11.67H67.16v-1.35Zm-2.39-1v5.31h1.26v-1.92h1.13c1.7,0,2.37-.67,2.37-1.69s-.67-1.7-2.37-1.7Zm-8.27,2.83a2.57,2.57,0,1,0,5.14,0v-.34a2.57,2.57,0,1,0-5.14,0Zm3.87,0c0,1.21-.52,1.59-1.3,1.59s-1.3-.38-1.3-1.59v-.34c0-1.21.52-1.59,1.3-1.59s1.3.38,1.3,1.59Zm-6,0c0,1.11-.54,1.46-1.58,1.46h-.65v-3.27h.65c1,0,1.58.35,1.58,1.47ZM52,181.37h1.92c1.74,0,2.84-.7,2.84-2.48v-.34c0-1.79-1.1-2.49-2.84-2.49H52Zm-3.46-3.76.57,1.37H48Zm-2.87,3.76H47l.58-1.37h2l.58,1.37h1.29l-2.22-5.31H47.92Zm-3.78-2.82a1.41,1.41,0,0,1,1.6-1.59,3.29,3.29,0,0,1,1.55.44l.46-.94a4,4,0,0,0-2-.52c-1.66,0-2.86.75-2.86,2.61v.34c0,1.86,1.2,2.61,2.86,2.61a3.77,3.77,0,0,0,2-.53l-.46-.94a2.69,2.69,0,0,1-1.55.45,1.4,1.4,0,0,1-1.6-1.59Zm-3.54,2.82h1.26v-5.31H38.37Zm-4.07-2.29h2.93v-1H34.3v-1h3.31v-1H33v5.31H34.3Zm-3.71,2.29h1.26v-5.31H30.59Zm-5.94-4.29h2v4.29h1.27v-4.29h2v-1H24.65Zm-2.95,0c.83,0,1.1.24,1.1.6s-.27.59-1.1.59H20.57v-1.19Zm1.41,4.29h1.45l-1.71-2.24a1.48,1.48,0,0,0,1.21-1.45c0-.94-.67-1.62-2.36-1.62H19.3v5.31h1.27v-2.08h1Zm-8-2.29h2.93v-1H15.15v-1h3.31v-1H13.89v5.31h4.57v-1H15.15Zm-5.63-.53A1.4,1.4,0,0,1,11.11,177a3.29,3.29,0,0,1,1.55.44l.46-.94a3.93,3.93,0,0,0-2-.52c-1.66,0-2.86.75-2.86,2.61v.34c0,1.86,1.2,2.61,2.86,2.61a3.77,3.77,0,0,0,2-.53l-.46-.94a2.69,2.69,0,0,1-1.55.45,1.4,1.4,0,0,1-1.59-1.59Z"/></svg>