<svg id="Capa_1" data-name="Capa 1" xmlns="http://www.w3.org/2000/svg" viewBox="0 0 123.37 57.87"><defs><style>.cls-1{fill:#ecd2d5;}</style></defs><title>CFM</title><path class="cls-1" d="M122.56,7.53c-1-1.88-4-3-6.91-1.88-2.38.88-1.75,3-.37,2.51,1.88-.75,4-.75,4.77.75.5,1.13.37,2.64-1.51,2.89-2.89.38-5.65-2.13-6.9-3.51a6.61,6.61,0,0,0-1.51-1.64A28.28,28.28,0,0,0,96.62.77,67.42,67.42,0,0,0,85.4,0C60.55,0,33.81,5.52,28.16,6.28a20.78,20.78,0,0,0-5.27,1.5C20.38,4.52,17.24,1,16.61,2A4.42,4.42,0,0,0,16,4.52c-1.25-1-2-1.76-2.63-1.26-1,.76-1.64,5.53-.76,7.16a29.24,29.24,0,0,0,2.26,2.51A29.16,29.16,0,0,0,11,16.82c-4,4.65-6.53,3.39-10.92,3.39v6.4c-.38,0,2,.13,2.39,1.26.87,2.38,5.27,3,11.42,4.27,2.38.5,5.9.37,8.28.62,3.9.38,6.66,4.65,13.56,4.65a34.06,34.06,0,0,1,.25,12.8c-1.13,4.65-2.89,5.9-3.64,7.66h5.78c.75,0,1.63-1.13,1.63-2,0-1.13.25-2.13.75-1.76,1.51,1.13,2.26-1.5,1.63-2.63s1.38-7.53,3.27-12.81C47.49,42.56,48.75,48,48.12,52c-.38,2.76-1.51,2.76-3,5.78h4.78A2.62,2.62,0,0,0,52.39,56a3.91,3.91,0,0,0,.25-1.26c.25-.37,1,.25,1.5-.25,1.76-2,.38-4.77,0-6.65a70.83,70.83,0,0,1,1-9.29q3.23,1.16,6.26,1.93l0,.06.12,0v3.91s.94,1.63,2.1,1.73a1.91,1.91,0,0,0,1.57-.34L66,44.32l.31-1.57.26-1.1.83.12.12.09v1.55L67.79,45a1.4,1.4,0,0,0,1.41.86,2.63,2.63,0,0,0,1.94-1.12L72.08,43v-.87h1.11l.47.5.31,2s0,.94,1.21,1.15,1.88-1.31,1.88-1.31.32-2.41.26-2.57a9.6,9.6,0,0,1,2.15-.05l.74,1.32.52,1.87a1.6,1.6,0,0,0,1.83.21c1.1-.52,1.31-4.35,1.31-4.35v-.73l1.91-.56h.12C87,39.29,88,39,89,38.79l1.16-.29-.39,1.29h0a12.84,12.84,0,0,1,1.5,10.66c-.88,3.52-3.89,6.15-3.89,7.29h6c.75,0,1.12-1.89,1.5-4,.13-1.26,2,.25,2.13-.76.26-2.63.38-9.66,1.76-11.29,2-2.51,1.63-3.77,1.38-5.4.25-.13.63-.13.88-.25,3.27,2.76,6.28,6.53,5.4,10.79-1.63,7.91-5.15,8.54-5.15,11h5.28c1.25,0,1.63-1,1.75-1.88.88-2.64.88-2.64,2.76-2.26,1,.12,1-1.26.76-4.4-.25-3.89,5-5.9.75-10.16-3.14-3.27,3.39-8.16,2.64-19a21.68,21.68,0,0,0-.88-5.9,7.88,7.88,0,0,0,7.28-.38C123.69,12.68,123.81,9.67,122.56,7.53Z"/></svg>