<svg id="Capa_1" data-name="Capa 1" xmlns="http://www.w3.org/2000/svg" viewBox="0 0 123.37 57.87"><defs><style>.cls-1{fill:#ecd2d5;}</style></defs><title>CFM</title><path class="cls-1" d="M112.41,16.82a29.16,29.16,0,0,0-3.89-3.89,29.24,29.24,0,0,0,2.26-2.51c.88-1.63.25-6.4-.75-7.16-.63-.5-1.39.25-2.64,1.26A4.42,4.42,0,0,0,106.76,2c-.63-1-3.76,2.51-6.27,5.77a21,21,0,0,0-5.28-1.5C89.56,5.52,62.83,0,38,0,26.55,0,19.77,1.51,13.24,6.65a6.61,6.61,0,0,0-1.51,1.64c-1.25,1.38-4,3.89-6.9,3.51C3,11.55,2.82,10,3.32,8.91c.76-1.5,2.89-1.5,4.77-.75,1.39.5,2-1.63-.37-2.51-2.89-1.13-5.9,0-6.91,1.88-1.25,2.14-1.13,5.15.88,6.4A7.88,7.88,0,0,0,9,14.31a21.68,21.68,0,0,0-.88,5.9c-.75,10.8,5.78,15.69,2.64,19-4.27,4.26,1,6.27.75,10.16-.25,3.14-.25,4.52.76,4.4,1.88-.38,1.88-.38,2.76,2.26.12.88.5,1.88,1.76,1.88H22c0-2.51-3.52-3.14-5.15-11C16,42.56,19,38.79,22.28,36c.25.12.63.12.88.25-.25,1.63-.63,2.89,1.38,5.4,1.38,1.63,1.51,8.66,1.76,11.29.12,1,2-.5,2.13.76.38,2.13.75,4,1.51,4h6c0-1.13-3-3.77-3.89-7.29a12.89,12.89,0,0,1,1.51-10.67l-3-1.38a.28.28,0,0,1,.26-.5l3.51.88c1,.25,2,.5,3.14.88h.12c1.26.37,2.64.75,4,1.25,6.53,2.14,15.82,1.51,26.61-2.38a69.12,69.12,0,0,1,1,9.29c-.38,1.88-1.76,4.64,0,6.65.5.5,1.25-.12,1.5.25A3.66,3.66,0,0,0,71,56a2.61,2.61,0,0,0,2.51,1.76h4.77c-1.51-3-2.64-3-3-5.78-.62-4,.63-9.41,2.77-13.31,1.88,5.28,3.76,11.68,3.26,12.81s.12,3.76,1.63,2.63c.5-.37.75.63.75,1.76,0,.88.88,2,1.64,2h5.77c-.75-1.76-2.51-3-3.64-7.66a34.06,34.06,0,0,1,.25-12.8c6.91,0,9.67-4.27,13.56-4.65,2.38-.25,5.9-.12,8.28-.62,6.15-1.26,10.55-1.89,11.43-4.27.37-1.13,2.76-1.26,2.38-1.26v-6.4c-4.39,0-6.9,1.26-10.92-3.39"/></svg>