<svg id="Capa_1" data-name="Capa 1" xmlns="http://www.w3.org/2000/svg" xmlns:xlink="http://www.w3.org/1999/xlink" viewBox="0 0 76 77.11"><defs><style>.cls-1{fill:none;}.cls-2{fill:#a3ae25;}.cls-3{clip-path:url(#clip-path);}.cls-4{fill:#1f1e21;}.cls-5{fill:#890f33;}</style><clipPath id="clip-path"><rect class="cls-1" width="76" height="77.11"/></clipPath></defs><title>CFM</title><rect class="cls-2" x="3.09" width="63.6" height="19.21"/><g class="cls-3"><path class="cls-4" d="M0,34.4a8.15,8.15,0,0,1,14.81-4.69l-2.72,2.22a4.64,4.64,0,0,0-3.95-2.22,4.69,4.69,0,0,0,0,9.38,4.64,4.64,0,0,0,3.95-2.22l2.72,2.22A8.15,8.15,0,0,1,0,34.4"/><path class="cls-4" d="M28.58,34.4a4.53,4.53,0,1,0-4.53,4.69,4.58,4.58,0,0,0,4.53-4.69m-12.67,0a8.14,8.14,0,1,1,8.14,8.14,8.15,8.15,0,0,1-8.14-8.14"/><path class="cls-4" d="M33.45,39.43l2.72-2.22a3.87,3.87,0,0,0,2.93,2c1.06,0,1.53-.4,1.53-1.14s-.52-1.17-1.86-1.78l-.9-.4c-2.4-1.08-3.72-2.85-3.72-5A4.66,4.66,0,0,1,39,26.26a5.28,5.28,0,0,1,4.47,2L41,30.81c-.8-1-1.3-1.19-2-1.19a1.15,1.15,0,0,0-1.23,1.1c0,.83.69,1.28,2.15,1.93l.85.38c2.2,1,3.48,2.58,3.48,4.78,0,2.87-2.11,4.73-5.07,4.73a6.1,6.1,0,0,1-5.72-3.11"/></g><polygon class="cls-4" points="48.77 29.98 44.96 29.98 44.96 26.44 56.2 26.44 56.2 29.98 52.36 29.98 52.36 42.37 48.77 42.37 48.77 29.98"/><path class="cls-4" d="M64.41,37l-1.5-3.32L61.4,37Zm-1.5-10.72,7.85,16.1H67L65.85,39.9H60l-1.14,2.46H55.06Z"/><polygon class="cls-4" points="1.78 44.39 11.21 44.39 11.21 47.93 5.37 47.93 5.37 50.62 9.86 50.62 9.86 54.08 5.37 54.08 5.37 60.31 1.78 60.31 1.78 44.39"/><g class="cls-3"><path class="cls-4" d="M27,52.35A4.53,4.53,0,1,0,22.51,57,4.58,4.58,0,0,0,27,52.35m-12.67,0a8.14,8.14,0,1,1,8.14,8.14,8.15,8.15,0,0,1-8.14-8.14"/><path class="cls-4" d="M47,52.35A4.53,4.53,0,1,0,42.48,57,4.58,4.58,0,0,0,47,52.35m-12.67,0a8.14,8.14,0,1,1,8.14,8.14,8.15,8.15,0,0,1-8.14-8.14"/><path class="cls-4" d="M60.63,57a4.69,4.69,0,0,0,0-9.38h-2V57ZM55,44.39h5.59a8,8,0,1,1,0,15.92H55Z"/><path class="cls-5" d="M37.48,64.93c-.22.22-.33.62-.22,1.35a3.49,3.49,0,0,0,.51-1c0-.39-.17-.45-.29-.33m-5,8.17a14.72,14.72,0,0,0-2.2-.17c-1.35,0-5.24.29-5.24,2.2a1.52,1.52,0,0,0,1.63,1.3c2.2,0,4.23-1.75,5.81-3.33M22.2,67.24c0-4,2.71-7.62,5.47-10.21,2.88-2.76,6.88-5,11-5,.39,0,3.83,0,3.83,2.43,0,0-.45,3.21-1.91,3.21-.29,0-.4-.17-.4-.45,0-1.35,1.69-1.47,1.69-2.71,0-1.41-2.48-1.58-3.66-1.58-7.16.68-14.67,9.31-14.67,15.17a3.06,3.06,0,0,0,3.28,3.28c2.08,0,9.7-2.37,9.7-5.25,0-.39.11-1.58.95-1.86.57-.17,1.08.56.85,1.24a42.31,42.31,0,0,1-4.45,7.16c3.77.79,7.33,2.43,11,2.43a11.31,11.31,0,0,0,6.43-1.86c.79-.4.68-2.6,1.86-2.6.28,0,.4.23.4.51,0,2.31-5.19,4.51-8.8,4.51-3.95,0-7.67-1.63-11.39-2.42-1.64,1.74-3.95,3.89-6.6,3.89-1,0-2.43-.62-2.43-1.92,0-2.59,3.95-3,5.87-3a16.53,16.53,0,0,1,2.88.28,19.9,19.9,0,0,0,2.53-3.66c-.56.34-4.79,3.38-8.68,3.38a4.59,4.59,0,0,1-4.74-5"/><path class="cls-5" d="M46.28,61a19.85,19.85,0,0,0-7,7.33c-.85,1.41-1,2.09-1.35,2.09-.17,0-.29-.29-.29-.74a2.89,2.89,0,0,1,.29-1.41c2-4.23,3.94-8.57,5.8-8.23.17.06.29.11.29.28,0,.68-1.36,2.14-2,3.1C43.12,62.28,45.44,60,46.9,60c.68,0,1.19.51,1.19,1.63,0,2.6-1.47,3.22-1.75,3.22-.51,0-.4-.73-.28-1a9.55,9.55,0,0,0,1.12-2.76c0-.45-.62-.28-.9-.11"/><path class="cls-5" d="M54.18,62.22c0-1.13-.68-1.35-1.08-1.35a2.11,2.11,0,0,0-2,2c0,1,.79,1.8,2.14,2.2a6.81,6.81,0,0,0,.91-2.88m-1.3,3.55A3,3,0,0,1,50.4,62.9a2.2,2.2,0,0,1,.05-.57,10.62,10.62,0,0,0-2.87,6.43c0,.9.39.85.45.85,1.8-.06,4.12-2.88,4.85-3.84m1.07.17c-.34,0-.45.28-.68.62-.11.17-2.82,4-5.75,4-.45,0-1.24-.12-1.3-1.41C46.06,65,51,59.68,53.89,59.68c1.47,0,1.53,1.41,1.53,1.92a6.74,6.74,0,0,1-1.19,3.55,4.38,4.38,0,0,0,3.67-2.42.4.4,0,0,1,.34-.28c.45,0,.39.56.39.62A5.24,5.24,0,0,1,54,65.94"/><path class="cls-5" d="M65.62,67.18c.12,0,.17.06.17.12,0,.22-.39.67-.39.67-3.33,2.65-4.12,2.54-4.23,2.54a1.26,1.26,0,0,1-1.24-1.24,3,3,0,0,1,0-.73c-3,1.86-3.44,2-3.89,2a1.26,1.26,0,0,1-1.24-1.24v-.34c0-1.24,2.82-8.91,5.69-8.91.28,0,.4.11.4.34a1,1,0,0,1-.23.56c-4.51,6.21-4.91,8-4.91,8a1.24,1.24,0,0,0,0,.4.41.41,0,0,0,.45.45,28.76,28.76,0,0,0,4-2.09c.5-1.75,3.27-7.67,5.52-7.67.29,0,.4.11.4.34a1,1,0,0,1-.23.56c-4.79,6.54-5,7.9-5,8.35s.28.45.45.51c.85.17,4.12-2.43,4.12-2.54a.4.4,0,0,1,.22-.06"/><path class="cls-5" d="M70,61c0,.56,0,.45-.62,1.58a9,9,0,0,1,4.28-2.48c1.41-.23,2.43.28,1.81,1.69C71.43,67.29,71,68.54,71,69c0,.73.17.73.51.79.62.11,4.12-2.49,4.12-2.54a.38.38,0,0,1,.22-.06c.11,0,.17.06.17.11,0,.23-.39.68-.39.68-3.16,2.54-4.12,2.54-4.23,2.54-.85,0-1.3-.79-1.3-1.64,0-1.86,1.41-4.11,3.38-7.1.28-.45.57-1,.45-1-2,0-5.69,3.39-6.31,4.57-1.86,3.22-4.29,7.73-4.51,10,0,.68.16.79.39.79S63.82,76,64,76s.34.33.34.5-.79.34-.91.34c-1.24,0-1.35-1.07-1.35-1.63v-.34c0-4.8,6.71-15.23,7.5-14.83a1.34,1.34,0,0,1,.4.9"/></g></svg>