<svg id="Capa_1" data-name="Capa 1" xmlns="http://www.w3.org/2000/svg" viewBox="0 0 77.67 77.11"><defs><style>.cls-1{fill:#fff;}</style></defs><title>CFM</title><rect class="cls-1" x="3.09" width="63.7" height="20.23"/><path class="cls-1" d="M12.11,37.91a4.7,4.7,0,1,1,0-4.94l2.72-2.23a8.16,8.16,0,1,0,0,9.4Z"/><path class="cls-1" d="M15.93,35.44a8.16,8.16,0,1,0,8.16-8.16A8.18,8.18,0,0,0,15.93,35.44Zm12.7,0a4.54,4.54,0,1,1-4.54-4.7A4.59,4.59,0,0,1,28.63,35.44Z"/><path class="cls-1" d="M39.17,40.23a3.87,3.87,0,0,1-2.94-2l-2.72,2.22a6.11,6.11,0,0,0,5.73,3.13c3,0,5.08-1.87,5.08-4.74,0-2.21-1.28-3.8-3.49-4.79L40,33.69c-1.46-.66-2.16-1.11-2.16-1.94a1.15,1.15,0,0,1,1.24-1.1c.74,0,1.23.2,2,1.19l2.43-2.56a5.28,5.28,0,0,0-4.47-2,4.67,4.67,0,0,0-4.86,4.61c0,2.16,1.33,3.93,3.73,5l.9.4c1.35.61,1.87,1.06,1.87,1.78S40.23,40.23,39.17,40.23Z"/><polygon class="cls-1" points="52.45 43.42 52.45 31.01 56.29 31.01 56.29 27.46 45.03 27.46 45.03 31.01 48.85 31.01 48.85 43.42 52.45 43.42"/><path class="cls-1" d="M60.07,41H66l1.14,2.47h3.78L63,27.28,55.15,43.42h3.77ZM63,34.7,64.52,38h-3Z"/><polygon class="cls-1" points="1.79 61.4 5.38 61.4 5.38 55.15 9.88 55.15 9.88 51.69 5.38 51.69 5.38 48.99 11.22 48.99 11.22 45.44 1.79 45.44 1.79 61.4"/><path class="cls-1" d="M22.55,61.58a8.16,8.16,0,1,0-8.16-8.16A8.17,8.17,0,0,0,22.55,61.58Zm0-12.86A4.7,4.7,0,1,1,18,53.42,4.59,4.59,0,0,1,22.55,48.72Z"/><path class="cls-1" d="M77.52,54.6c0-.46-.22-.85-.62-.85-.23,0-1,.68-5.14,6.1h-3c-.33,0-.73,0-.73.34s.4.39.73.39h2.43a29.08,29.08,0,0,0-4.58,8c-1.09.76-2.81,2.08-3.49,2.08-.17,0-.46-.06-.46-.51s.17-1.81,5-8.36a1.1,1.1,0,0,0,.17-.57c0-.17,0-.34-.39-.34-1.3,0-2,1.25-2.6,2.09.24-1.36-.56-2.17-1.51-2a8,8,0,0,0-2.63-15.52H55.14V60.9a2.28,2.28,0,0,0-.72.25C52,62.28,48.32,67.7,49,70.24c.68,2.38,4,.68,5.2,0a12.18,12.18,0,0,0,1.93-1.32,3.31,3.31,0,0,0-.12.87c0,.51.06,1.53,1.13,1.53a2.37,2.37,0,0,0,1.3-.4,27.42,27.42,0,0,0,3.65-2.63,5.5,5.5,0,0,0-.32,1.9A1.27,1.27,0,0,0,63,71.43c0-.05.8.21,3.4-1.85a4.49,4.49,0,0,0-.06.61,1.13,1.13,0,0,0,1.24,1.24c.11,0,.85.4,4.18-2.54a1.15,1.15,0,0,0,.39-.68A.11.11,0,0,0,72,68.1a.66.66,0,0,0-.28.05c0,.12-3,2.66-4.07,2.55a.41.41,0,0,1-.45-.46c0-.5.17-1.92,5.93-9.66h1c.28,0,.79,0,.79-.39s-.51-.34-.79-.34h-.39l3.5-4.29A2.11,2.11,0,0,0,77.52,54.6ZM58.73,48.72h2a4.7,4.7,0,0,1,0,9.4h-2Zm-4,14c.56-.45,1.18-.79,1.35-.45.68,2.71-2.93,4.57-5.53,5.65A14.15,14.15,0,0,1,54.76,62.73Zm2,4.52a12.48,12.48,0,0,1-2.88,2.32c-1.07.67-3.5,1.63-3.84.9a2.86,2.86,0,0,1,.17-1.64l.62-.17c2.49-1.18,7.35-3.11,6-6.89a1.31,1.31,0,0,0-.2-.37h4.14a7.92,7.92,0,0,0,2-.25c-.54.2-2.13,1-4.66,4.12a14.53,14.53,0,0,0-1.18,1.82ZM59,69.68c-1.07.68-1.58.85-1.75.79s-.17-.28-.17-.4c0-1.63,2.37-4.12,2.37-4.12.68-.73,3.22-3.67,4.18-3.67.57,0,.63.79.63,1.3C64.25,66.29,59.22,69.51,59,69.68Z"/><path class="cls-1" d="M61.69,72.4c-.71,0-1,.67-1.33,1.37-.21.49-.41,1-.75,1.1a11.21,11.21,0,0,1-6.52,1.39,24.85,24.85,0,0,1-6.94-1.89L44.3,73.7v0h0l-.69-.52h0v-.06c-.1,0-.34-.07-.3-.53.05-.67.87-2.84,5.84-9.74l3.93-5a2.1,2.1,0,0,0,.12-1.61.53.53,0,0,0-.42-.31h0c-.17,0-.3.15-.72.65a1,1,0,0,0-.39-.85,1.24,1.24,0,0,0-1.15,0l-.09.06a8.3,8.3,0,0,0,.36-2.4,8.16,8.16,0,1,0-11.86,7.26c-5,5.29-10.6,11.2-17.78,13a5.18,5.18,0,0,1-1.61,0,5,5,0,0,1-.86-.94A2.16,2.16,0,0,0,17,71.69c-.38,0-.57.11-.6.46a1.43,1.43,0,0,0,.48,1,4.84,4.84,0,0,0,3.32,1.38h.25c.2,0,.44,0,.73,0,6.59-1.67,11.55-6.23,16.05-10.85-1.49,2.26-3.65,5.95-3.83,8.5,0,.17-.05.62.46.66h0c.47,0,1.15-.64,2.29-1.89s2.31-2.59,3.42-3.89c1.68-2,3.38-3.94,5.21-5.76a8.17,8.17,0,0,0,5-4.1c.31-.2.61-.41.93-.6s.35-.13.43-.07.13.5.11.81v.08c-5.72,6.88-8.85,12-9,14.72a1.89,1.89,0,0,0,0,.58,2.33,2.33,0,0,0,.09.39h0l0,0h0l-.78-.23h0l0-.05a16.28,16.28,0,0,0-2.87-.49,12,12,0,0,0-3.7.26c-1.53.41-2.35,1.2-2.43,2.35-.1,1.35,1.34,2.08,2.34,2.16h.36c2.49,0,4.78-1.81,6.53-3.42,1.2.35,2.42.8,3.61,1.23a28.37,28.37,0,0,0,7.58,2,14.5,14.5,0,0,0,5.87-1c2-.8,3.22-1.87,3.3-3C62.12,72.65,62,72.42,61.69,72.4Zm-22.8-5.83c-1.08,1.26-2.2,2.57-3.34,3.82l-.34.4c-.19.23-.45.55-.6.7.38-1,1.65-3.6,5.76-9.3l.54-.78a8.07,8.07,0,0,0,1.64.17,7.55,7.55,0,0,0,.83,0C41.81,63.16,40.33,64.88,38.89,66.57Zm3.66-17.85a4.7,4.7,0,0,1,.56,9.34,2,2,0,0,0,0-1.44.61.61,0,0,0-.51-.31c-.05,0-.07,0-.13.13S42,57,41.3,57.92a4.71,4.71,0,0,1,1.25-9.2ZM40.76,73.48c-1.56,1.35-3.58,2.83-5.62,2.83h-.29a1.8,1.8,0,0,1-1.1-.46,1.15,1.15,0,0,1-.39-.89c.1-1.43,2.46-1.8,4.35-1.8q.52,0,1,0A14.41,14.41,0,0,1,40.76,73.48Z"/></svg>