<svg id="Capa_1" data-name="Capa 1" xmlns="http://www.w3.org/2000/svg" viewBox="0 0 77.67 77.11"><defs><style>.cls-1{fill:#890f33;}.cls-2{fill:#1f1e21;}.cls-3{fill:none;stroke:#890f33;stroke-miterlimit:10;stroke-width:0.29px;}</style></defs><title>CFM</title><rect class="cls-1" x="3.09" width="63.7" height="20.23"/><path class="cls-2" d="M0,35.44a8.16,8.16,0,0,1,14.83-4.7L12.11,33a4.7,4.7,0,1,0,0,4.94l2.72,2.23A8.16,8.16,0,0,1,0,35.44"/><path class="cls-2" d="M28.63,35.44a4.54,4.54,0,1,0-4.54,4.7,4.59,4.59,0,0,0,4.54-4.7m-12.7,0a8.16,8.16,0,1,1,8.16,8.16,8.17,8.17,0,0,1-8.16-8.16"/><path class="cls-2" d="M33.51,40.47l2.72-2.22a3.87,3.87,0,0,0,2.94,2c1.06,0,1.53-.41,1.53-1.15s-.52-1.17-1.87-1.77l-.9-.41c-2.4-1.08-3.73-2.85-3.73-5a4.67,4.67,0,0,1,4.86-4.61,5.28,5.28,0,0,1,4.47,2L41.1,31.84c-.81-1-1.3-1.19-2-1.19a1.15,1.15,0,0,0-1.24,1.1c0,.84.7,1.29,2.16,1.94l.85.38c2.21,1,3.49,2.58,3.49,4.79,0,2.87-2.12,4.74-5.08,4.74a6.11,6.11,0,0,1-5.73-3.13"/><polygon class="cls-2" points="48.85 31.01 45.03 31.01 45.03 27.46 56.29 27.46 56.29 31.01 52.45 31.01 52.45 43.42 48.85 43.42 48.85 31.01"/><path class="cls-2" d="M64.52,38,63,34.7,61.51,38ZM63,27.28l7.87,16.14H67.1L66,41H60.07l-1.15,2.47H55.15Z"/><polygon class="cls-2" points="1.79 45.44 11.23 45.44 11.23 48.99 5.38 48.99 5.38 51.69 9.88 51.69 9.88 55.15 5.38 55.15 5.38 61.4 1.79 61.4 1.79 45.44"/><path class="cls-2" d="M27.09,53.42a4.54,4.54,0,1,0-4.54,4.7,4.59,4.59,0,0,0,4.54-4.7m-12.7,0a8.16,8.16,0,1,1,8.16,8.16,8.17,8.17,0,0,1-8.16-8.16"/><path class="cls-2" d="M47.09,53.42a4.54,4.54,0,1,0-4.54,4.7,4.59,4.59,0,0,0,4.54-4.7m-12.7,0a8.16,8.16,0,1,1,8.16,8.16,8.17,8.17,0,0,1-8.16-8.16"/><path class="cls-2" d="M60.73,58.12a4.7,4.7,0,0,0,0-9.4h-2v9.4ZM55.14,45.44h5.59a8,8,0,1,1,0,16H55.14Z"/><path class="cls-1" d="M50.58,67.93c2.6-1.08,6.21-2.94,5.53-5.65-.17-.34-.79,0-1.35.45a14.15,14.15,0,0,0-4.18,5.2m7.4-1.7c.17.12-.29,1-.68,1.47a10.2,10.2,0,0,1-3.11,2.54c-1.24.68-4.52,2.38-5.2,0-.67-2.54,3-8,5.43-9.09.85-.45,2-.45,2.37.62,1.36,3.78-3.5,5.71-6,6.89l-.62.17A2.86,2.86,0,0,0,50,70.47c.34.73,2.77-.23,3.84-.9a12.48,12.48,0,0,0,2.88-2.32c.34-.51,1-1.13,1.25-1"/><path class="cls-3" d="M50.58,67.93c2.6-1.08,6.21-2.94,5.53-5.65-.17-.34-.79,0-1.35.45A14.15,14.15,0,0,0,50.58,67.93Zm7.4-1.7c.17.12-.29,1-.68,1.47a10.2,10.2,0,0,1-3.11,2.54c-1.24.68-4.52,2.38-5.2,0-.67-2.54,3-8,5.43-9.09.85-.45,2-.45,2.37.62,1.36,3.78-3.5,5.71-6,6.89l-.62.17A2.86,2.86,0,0,0,50,70.47c.34.73,2.77-.23,3.84-.9a12.48,12.48,0,0,0,2.88-2.32C57.07,66.74,57.75,66.12,58,66.23Z"/><path class="cls-1" d="M64.25,63.58c0-.51-.06-1.3-.63-1.3-1,0-3.5,2.94-4.18,3.67,0,0-2.37,2.49-2.37,4.12,0,.12,0,.34.17.4s.68-.11,1.75-.79c.23-.17,5.26-3.39,5.26-6.1m-1.59,6.61c0,.45.29.51.46.51,1,0,3.95-2.6,4.4-2.6a.12.12,0,0,1,.12.11c0,.23-.4.68-.4.68C64,71.71,63,71.37,63,71.43a1.27,1.27,0,0,1-1.24-1.24,5.66,5.66,0,0,1,.34-2v.06a27.31,27.31,0,0,1-3.67,2.65,2.37,2.37,0,0,1-1.3.4c-1.07,0-1.13-1-1.13-1.53,0-2,2-4.52,2-4.52,3.17-3.89,4.86-4.18,4.86-4.18,1.13-.51,2.26.34,2,1.92.56-.84,1.3-2.09,2.6-2.09.34,0,.39.17.39.34a1.1,1.1,0,0,1-.17.57c-4.86,6.55-5,7.91-5,8.36"/><path class="cls-3" d="M64.25,63.58c0-.51-.06-1.3-.63-1.3-1,0-3.5,2.94-4.18,3.67,0,0-2.37,2.49-2.37,4.12,0,.12,0,.34.17.4s.68-.11,1.75-.79C59.22,69.51,64.25,66.29,64.25,63.58Zm-1.59,6.61c0,.45.29.51.46.51,1,0,3.95-2.6,4.4-2.6a.12.12,0,0,1,.12.11c0,.23-.4.68-.4.68C64,71.71,63,71.37,63,71.43a1.27,1.27,0,0,1-1.24-1.24,5.66,5.66,0,0,1,.34-2v.06a27.31,27.31,0,0,1-3.67,2.65,2.37,2.37,0,0,1-1.3.4c-1.07,0-1.13-1-1.13-1.53,0-2,2-4.52,2-4.52,3.17-3.89,4.86-4.18,4.86-4.18,1.13-.51,2.26.34,2,1.92.56-.84,1.3-2.09,2.6-2.09.34,0,.39.17.39.34a1.1,1.1,0,0,1-.17.57C62.83,68.38,62.66,69.74,62.66,70.19Z"/><path class="cls-1" d="M77.52,54.6a2.11,2.11,0,0,1-.28,1l-3.5,4.29h.39c.28,0,.79,0,.79.34s-.51.39-.79.39h-1c-5.76,7.74-5.93,9.16-5.93,9.66a.41.41,0,0,0,.45.46c1.07.11,4.07-2.43,4.07-2.55A.66.66,0,0,1,72,68.1a.11.11,0,0,1,.11.11,1.15,1.15,0,0,1-.39.68c-3.33,2.94-4.07,2.54-4.18,2.54a1.13,1.13,0,0,1-1.24-1.24c0-2.26,2.14-6,4.85-9.61H68.76c-.33,0-.73,0-.73-.39s.4-.34.73-.34h3c4.12-5.42,4.91-6.1,5.14-6.1.4,0,.62.39.62.85"/><path class="cls-3" d="M77.52,54.6a2.11,2.11,0,0,1-.28,1l-3.5,4.29h.39c.28,0,.79,0,.79.34s-.51.39-.79.39h-1c-5.76,7.74-5.93,9.16-5.93,9.66a.41.41,0,0,0,.45.46c1.07.11,4.07-2.43,4.07-2.55A.66.66,0,0,1,72,68.1a.11.11,0,0,1,.11.11,1.15,1.15,0,0,1-.39.68c-3.33,2.94-4.07,2.54-4.18,2.54a1.13,1.13,0,0,1-1.24-1.24c0-2.26,2.14-6,4.85-9.61H68.76c-.33,0-.73,0-.73-.39s.4-.34.73-.34h3c4.12-5.42,4.91-6.1,5.14-6.1C77.3,53.75,77.52,54.14,77.52,54.6Z"/><path class="cls-1" d="M40.88,73.45a14.69,14.69,0,0,0-2.18-.32C37.35,73,33.44,73,33.3,75a1.53,1.53,0,0,0,1.54,1.41c2.2.16,4.35-1.44,6-2.91m1.39-.35c3.72,1.06,7.15,3,10.81,3.21a11.33,11.33,0,0,0,6.56-1.39c.82-.34.86-2.55,2-2.46.28,0,.37.25.35.54-.16,2.31-5.51,4.13-9.11,3.87-4-.28-7.55-2.19-11.21-3.24C40,75.26,37.5,77.23,34.85,77c-1-.07-2.38-.8-2.28-2.09.18-2.59,4.15-2.7,6.07-2.56a16.32,16.32,0,0,1,2.85.48"/><path class="cls-1" d="M37.71,73.15c-1.89,0-4.25.37-4.35,1.8a1.15,1.15,0,0,0,.39.89,1.8,1.8,0,0,0,1.1.46h.29c2,0,4.06-1.48,5.62-2.83a14.41,14.41,0,0,0-2.06-.3q-.47,0-1,0m-2.52,3.28-.35,0a1.83,1.83,0,0,1-1.16-.49,1.23,1.23,0,0,1-.43-1c.06-.85.83-1.43,2.28-1.71a13,13,0,0,1,3.17-.16,13.58,13.58,0,0,1,2.2.33l.11,0-.09.08c-2.87,2.48-4.57,2.93-5.73,2.93m0,.68h-.36c-1-.08-2.44-.81-2.34-2.16.08-1.15.9-1.94,2.43-2.35a12,12,0,0,1,3.7-.26,16.28,16.28,0,0,1,2.87.49l0,.11a16.14,16.14,0,0,0-2.84-.49A11.76,11.76,0,0,0,35,72.7c-1.48.39-2.27,1.15-2.35,2.25-.09,1.27,1.28,2,2.23,2,2.61.19,5-1.71,6.83-3.39l0,0h0c1.22.35,2.45.81,3.65,1.25a27.89,27.89,0,0,0,7.54,2,14.09,14.09,0,0,0,5.83-1c2-.78,3.15-1.82,3.23-2.85,0-.17,0-.45-.31-.47h-.06c-.6,0-.88.66-1.16,1.3s-.43,1-.8,1.16a11.3,11.3,0,0,1-6.58,1.4,25.3,25.3,0,0,1-7-1.89c-1.25-.47-2.54-1-3.86-1.33l0-.1c1.31.37,2.61.86,3.86,1.32a24.85,24.85,0,0,0,6.94,1.89,11.21,11.21,0,0,0,6.52-1.39c.34-.14.54-.61.75-1.1.3-.7.62-1.41,1.33-1.37.28,0,.43.25.41.6-.08,1.08-1.28,2.15-3.3,3a14.5,14.5,0,0,1-5.87,1,28.37,28.37,0,0,1-7.58-2c-1.19-.43-2.41-.88-3.61-1.23-1.75,1.61-4,3.42-6.53,3.42"/><path class="cls-1" d="M44.31,73.71a2,2,0,0,1-.92.16c-1-.07-1.1-1.21-1.1-1.21a1.82,1.82,0,0,1,0-.57c.29-4,6.69-11.86,9-14.69,0-.51.15-1.3-.62-.9-5.79,3.38-10,9.37-14.57,14.36-1.17,1.27-1.84,1.9-2.29,1.87s-.43-.31-.41-.59c.17-2.26,1.94-5.7,4.16-9C32.94,68,28,72.7,21.15,74.42a4.67,4.67,0,0,1-.91,0c-2,0-3.86-1.41-3.8-2.31,0-.34.2-.44.54-.42,1.24.09,1.44,1.24,2.46,2.05a5.37,5.37,0,0,0,1.64-.05C28.81,71.8,34.61,65.25,40,59.53a36.34,36.34,0,0,0,2.55-3.16c.84.06.63,1.4.43,1.9l-2.66,3.88c-4.16,5.77-5.49,8.5-5.84,9.5a9.16,9.16,0,0,0,1.11-1.23c4.67-5.1,8.66-10.93,14.87-14.61.7-.29,1.44-.3,1.46.89.5-.58.62-.74.79-.73.68.05.52,1.45.27,1.83l-3.93,5c-5.66,7.87-5.83,9.44-5.86,9.78s.19.58.36.59"/><path class="cls-1" d="M20.43,74.53h-.25a4.84,4.84,0,0,1-3.32-1.38,1.43,1.43,0,0,1-.48-1c0-.35.22-.49.6-.46a2.16,2.16,0,0,1,1.62,1.1,5,5,0,0,0,.86.94,5.18,5.18,0,0,0,1.61,0c7.28-1.82,13-7.88,18-13.22l.92-1a35.14,35.14,0,0,0,2.46-3.05c.06-.1.08-.13.13-.13a.61.61,0,0,1,.51.31,2.22,2.22,0,0,1,0,1.67l-2.67,3.9c-4.11,5.7-5.38,8.32-5.76,9.3.15-.15.41-.47.6-.7l.34-.4c1.14-1.25,2.26-2.56,3.34-3.82,3.36-3.94,6.84-8,11.55-10.81a1.24,1.24,0,0,1,1.15,0,1,1,0,0,1,.39.85c.42-.5.55-.65.72-.65h0a.53.53,0,0,1,.42.31A2.1,2.1,0,0,1,53,57.83l-3.93,5c-5,6.9-5.79,9.07-5.84,9.74,0,.46.2.52.3.53v.11c-.1,0-.45-.07-.4-.65.08-1.19,2.17-4.67,5.86-9.8l3.93-5a2,2,0,0,0,.1-1.5.37.37,0,0,0-.32-.24h0c-.13,0-.26.16-.65.63l-.18.2v-.14a1.06,1.06,0,0,0-.35-.91,1.14,1.14,0,0,0-1,.06C45.81,58.64,42.33,62.71,39,66.64c-1.08,1.27-2.19,2.58-3.33,3.82l-.34.4c-.53.64-.71.84-.81.84h-.08l0-.07c.29-.83,1.46-3.43,5.84-9.51l2.66-3.88a2.17,2.17,0,0,0,0-1.57.52.52,0,0,0-.41-.24l0,.07a31.33,31.33,0,0,1-2.47,3.06l-.91,1c-5,5.36-10.73,11.43-18,13.26a6,6,0,0,1-1.67.06h0a5,5,0,0,1-.89-1c-.42-.54-.77-1-1.53-1.06h-.09c-.27,0-.37.1-.39.36a1.3,1.3,0,0,0,.45.91,4.74,4.74,0,0,0,3.23,1.34h.06a5,5,0,0,0,.9,0c6.77-1.71,11.82-6.5,16.41-11.26l.09.07c-2.53,3.76-4,6.94-4.15,9,0,.3,0,.51.36.54h0c.43,0,1.11-.66,2.21-1.86s2.3-2.59,3.41-3.88C42.86,63,46.32,59,50.67,56.45c.25-.12.43-.15.55-.06s.19.55.16.91v.12h0c-5.71,6.87-8.84,11.94-9,14.67a2,2,0,0,0,0,.55s.1,1.1,1,1.17a2.07,2.07,0,0,0,.9-.16l0,.1a2.13,2.13,0,0,1-.94.17c-1-.08-1.16-1.25-1.16-1.26a1.89,1.89,0,0,1,0-.58c.19-2.75,3.32-7.84,9-14.72v-.08c0-.31,0-.7-.11-.81s-.23,0-.43.07C46.4,59.08,42.94,63.11,39.59,67c-1.11,1.3-2.26,2.63-3.42,3.89s-1.82,1.89-2.29,1.89h0c-.51,0-.47-.49-.46-.66.18-2.55,2.34-6.24,3.83-8.5-4.5,4.62-9.46,9.18-16,10.85-.29,0-.53,0-.73,0"/></svg>