<?xml version="1.0" encoding="utf-8"?>
<!-- Generator: Adobe Illustrator 24.0.3, SVG Export Plug-In . SVG Version: 6.00 Build 0)  -->
<svg version="1.1" id="Capa_1" xmlns="http://www.w3.org/2000/svg" xmlns:xlink="http://www.w3.org/1999/xlink" x="0px" y="0px"
	 viewBox="0 0 143.5 266.64" style="enable-background:new 0 0 143.5 266.64;" xml:space="preserve">
<style type="text/css">
	.st0{clip-path:url(#SVGID_2_);fill:#FFFFFF;}
	.st1{fill:#FFFFFF;}
	.st2{clip-path:url(#SVGID_4_);fill:#FFFFFF;}
	.st3{clip-path:url(#SVGID_6_);fill:#FFFFFF;}
	.st4{clip-path:url(#SVGID_8_);fill:#FFFFFF;}
	.st5{clip-path:url(#SVGID_10_);fill:#FFFFFF;}
	.st6{clip-path:url(#SVGID_12_);fill:#FFFFFF;}
	.st7{fill:#7DAC37;}
	.st8{fill:#D7D2E6;}
	.st9{fill:#21315C;}
	.st10{fill:#299A85;}
	.st11{clip-path:url(#SVGID_14_);fill:#21315C;}
	.st12{clip-path:url(#SVGID_16_);fill:#21315C;}
	.st13{clip-path:url(#SVGID_18_);fill:#21315C;}
	.st14{clip-path:url(#SVGID_20_);fill:#FFFFFF;}
	.st15{clip-path:url(#SVGID_22_);fill:#299A85;}
	.st16{fill:#727574;}
	.st17{fill:#CF6A34;}
	.st18{fill:#707070;}
	.st19{clip-path:url(#SVGID_24_);fill:#236FB2;}
	.st20{fill:#9E142E;}
	.st21{fill:none;stroke:#861833;stroke-width:3.021;}
	.st22{clip-path:url(#SVGID_26_);fill:#FFFFFF;}
	.st23{clip-path:url(#SVGID_26_);fill:none;stroke:#861833;stroke-width:3.021;}
	.st24{clip-path:url(#SVGID_28_);}
	.st25{clip-path:url(#SVGID_30_);}
	.st26{clip-path:url(#SVGID_30_);fill:#9E1332;}
	.st27{fill:#9E1332;}
</style>
<g>
	<defs>
		<rect id="SVGID_27_" width="143.5" height="266.64"/>
	</defs>
	<clipPath id="SVGID_2_">
		<use xlink:href="#SVGID_27_"  style="overflow:visible;"/>
	</clipPath>
	<path style="clip-path:url(#SVGID_2_);" d="M0,187.66c0-8.41,6.86-15.26,15.26-15.26c5.13,0,9.71,2.57,12.48,6.48l-5.09,4.16
		c-1.51-2.44-4.2-4.16-7.4-4.16c-4.83,0-8.49,3.99-8.49,8.79c0,4.79,3.66,8.79,8.49,8.79c3.2,0,5.89-1.72,7.4-4.16l5.09,4.16
		c-2.78,3.91-7.36,6.47-12.49,6.47C6.85,202.92,0,196.06,0,187.66"/>
	<path style="clip-path:url(#SVGID_2_);" d="M53.56,187.67c0-4.79-3.65-8.79-8.49-8.79c-4.83,0-8.49,3.99-8.49,8.79
		c0,4.79,3.66,8.79,8.49,8.79C49.9,196.45,53.56,192.46,53.56,187.67 M29.81,187.66c0-8.41,6.86-15.26,15.26-15.26
		c8.41,0,15.26,6.86,15.26,15.27c0,8.41-6.85,15.26-15.26,15.26C36.66,202.93,29.81,196.07,29.81,187.66"/>
	<path style="clip-path:url(#SVGID_2_);" d="M62.69,197.09l5.09-4.16c1.3,2.06,3.45,3.7,5.51,3.7c1.98,0,2.86-0.76,2.86-2.14
		c0-1.35-0.97-2.19-3.49-3.32l-1.68-0.76c-4.5-2.02-6.98-5.34-6.98-9.38c0-5.21,4.33-8.62,9.08-8.62c3.32,0,5.84,0.8,8.36,3.74
		l-4.54,4.79c-1.51-1.85-2.44-2.23-3.82-2.23c-1.14,0-2.31,0.71-2.31,2.06c0,1.56,1.3,2.4,4.03,3.62l1.6,0.71
		c4.12,1.85,6.52,4.84,6.51,8.96c0,5.38-3.95,8.87-9.5,8.87C68.61,202.93,64.75,200.95,62.69,197.09"/>
</g>
<polygon points="91.41,179.39 84.26,179.39 84.26,172.75 105.32,172.75 105.32,179.4 98.13,179.4 98.13,202.6 91.4,202.6 "/>
<path d="M120.71,192.52l-2.82-6.22l-2.82,6.22L120.71,192.52z M117.89,172.42l14.71,30.19l-7.06,0l-2.14-4.63l-11.01,0l-2.15,4.62
	l-7.06,0L117.89,172.42z"/>
<polygon points="3.34,206.37 21,206.37 20.99,213.01 10.06,213.01 10.06,218.06 18.47,218.06 18.47,224.53 10.06,224.53 
	10.06,236.22 3.33,236.22 "/>
<g>
	<defs>
		<rect id="SVGID_29_" width="143.5" height="266.64"/>
	</defs>
	<clipPath id="SVGID_4_">
		<use xlink:href="#SVGID_29_"  style="overflow:visible;"/>
	</clipPath>
	<path style="clip-path:url(#SVGID_4_);" d="M50.68,221.3c0-4.79-3.66-8.79-8.49-8.79c-4.83,0-8.49,3.99-8.49,8.79
		c0,4.79,3.66,8.79,8.49,8.79C47.02,230.09,50.67,226.1,50.68,221.3 M26.92,221.3c0-8.41,6.86-15.26,15.26-15.26
		c8.41,0,15.26,6.86,15.26,15.26c0,8.41-6.86,15.26-15.26,15.26C33.77,236.56,26.92,229.71,26.92,221.3"/>
	<path style="clip-path:url(#SVGID_4_);" d="M88.09,221.31c0-4.79-3.66-8.79-8.49-8.79c-4.84,0-8.49,3.99-8.5,8.79
		c0,4.79,3.66,8.79,8.49,8.79C84.43,230.1,88.09,226.1,88.09,221.31 M64.34,221.31c0-8.41,6.86-15.26,15.27-15.26
		c8.41,0,15.26,6.86,15.26,15.26c0,8.41-6.86,15.26-15.26,15.26C71.19,236.57,64.34,229.71,64.34,221.31"/>
	<path style="clip-path:url(#SVGID_4_);" d="M113.62,230.1c5,0,8.41-3.99,8.41-8.79c0-4.79-3.4-8.79-8.41-8.79l-3.74,0l0,17.57
		L113.62,230.1z M103.15,206.39l10.47,0c8.41,0,15.18,6.69,15.17,14.93c0,8.24-6.77,14.92-15.18,14.92l-10.47,0L103.15,206.39z"/>
	<path style="clip-path:url(#SVGID_4_);fill:#9E1332;" d="M92.13,249.25c4.96-2.05,11.85-5.6,10.56-10.77
		c-0.32-0.65-1.51,0-2.58,0.86C96.98,241.5,93.96,245.48,92.13,249.25 M106.23,246.02c0.32,0.21-0.54,1.83-1.29,2.8
		c-2.05,2.37-3.34,3.34-5.92,4.85c-2.37,1.29-8.61,4.52-9.91,0c-1.29-4.85,5.71-15.18,10.34-17.34c1.62-0.86,3.77-0.86,4.52,1.19
		c2.58,7.22-6.68,10.88-11.42,13.13c-0.43,0.11-0.75,0.21-1.18,0.32c-0.43,1.18-0.54,2.26-0.32,3.12c0.65,1.4,5.28-0.43,7.32-1.72
		c2.91-1.83,3.55-2.48,5.49-4.41C104.51,246.99,105.8,245.81,106.23,246.02"/>
	<path style="clip-path:url(#SVGID_4_);fill:#9E1332;" d="M118.19,240.96c0-0.97-0.11-2.48-1.18-2.48c-1.83,0-6.68,5.6-7.97,7
		c0,0-4.52,4.74-4.52,7.86c0,0.21,0,0.65,0.32,0.75c0.32,0.11,1.29-0.21,3.34-1.51C108.6,252.27,118.19,246.13,118.19,240.96
		 M115.17,253.56c0,0.86,0.54,0.97,0.86,0.97c1.83,0,7.54-4.95,8.4-4.95c0.11,0,0.22,0.11,0.22,0.21c0,0.43-0.75,1.29-0.75,1.29
		c-6.25,5.38-8.08,4.74-8.08,4.84c-2.26,0-2.37-2.37-2.37-2.37c0-1.18,0.11-2.15,0.65-3.77v0.11c-2.37,2.26-7,5.06-7,5.06
		c-1.08,0.65-1.83,0.75-2.48,0.75c-2.05,0-2.15-1.94-2.15-2.91c0-3.77,3.88-8.61,3.88-8.61c6.03-7.43,9.26-7.97,9.26-7.97
		c2.15-0.97,4.31,0.65,3.77,3.66c1.08-1.62,2.48-3.99,4.95-3.99c0.65,0,0.75,0.32,0.75,0.65c0,0.43-0.22,0.97-0.32,1.08
		C115.49,250.12,115.17,252.7,115.17,253.56"/>
	<path style="clip-path:url(#SVGID_4_);fill:#9E1332;" d="M143.5,223.85c0,0.97-0.54,1.83-0.54,1.83l-6.68,8.18h0.75
		c0.54,0,1.51,0,1.51,0.65c0,0.75-0.97,0.75-1.51,0.75l-1.83,0c-10.99,14.75-11.31,17.44-11.31,18.41c0,0.75,0.54,0.86,0.86,0.86
		c2.05,0.22,7.75-4.63,7.75-4.85c0.21-0.11,0.43-0.11,0.54-0.11c0.11,0,0.22,0.11,0.22,0.22c0,0.65-0.75,1.29-0.75,1.29
		c-6.35,5.6-7.75,4.84-7.97,4.84c-2.58,0-2.37-2.37-2.37-2.37c0-4.31,4.1-11.41,9.26-18.3l-4.63,0c-0.65,0-1.4,0-1.4-0.75
		c0-0.65,0.75-0.65,1.4-0.65l5.71,0c7.86-10.34,9.37-11.63,9.8-11.63C143.07,222.23,143.5,222.99,143.5,223.85"/>
	<path style="clip-path:url(#SVGID_4_);fill:#9E1332;" d="M73.65,259.78c-1.38-0.32-2.77-0.52-4.17-0.62
		c-2.58-0.19-10.03-0.18-10.29,3.47c-0.09,1.29,1.22,2.57,2.94,2.69C66.32,265.62,70.43,262.57,73.65,259.78 M76.29,259.11
		c7.09,2.02,13.63,5.63,20.61,6.13c4.19,0.3,8.89-0.44,12.5-2.66c1.56-0.64,1.65-4.85,3.9-4.68c0.54,0.04,0.72,0.49,0.68,1.02
		c-0.32,4.4-10.5,7.88-17.38,7.38c-7.52-0.54-14.38-4.17-21.36-6.19c-3.36,3.11-8.06,6.87-13.1,6.5c-1.93-0.14-4.53-1.52-4.35-3.99
		c0.36-4.94,7.93-5.15,11.58-4.88c1.83,0.13,3.64,0.48,5.44,0.93"/>
	<path style="clip-path:url(#SVGID_4_);fill:#9E1332;" d="M80.18,260.28c-0.67,0.28-1.32,0.34-1.75,0.31
		c-1.93-0.14-2.1-2.31-2.1-2.31c-0.08-0.33-0.05-0.76-0.03-1.08c0.55-7.63,12.76-22.62,17.25-28.01c0.07-0.97,0.29-2.46-1.17-1.71
		c-11.05,6.44-19,17.85-27.79,27.36c-2.23,2.43-3.5,3.63-4.36,3.57c-0.75-0.06-0.82-0.6-0.78-1.14c0.31-4.3,3.7-10.85,7.93-17.13
		c-8.87,9.18-18.38,18.22-31.35,21.49c-0.55,0.07-1.2,0.13-1.73,0.09c-3.78,0.05-7.36-2.69-7.24-4.41c0.05-0.64,0.38-0.84,1.03-0.79
		c2.36,0.17,2.74,2.36,4.68,3.9c0.97,0.07,2.04,0.15,3.14-0.1c14.73-3.69,25.79-16.17,36.08-27.08c4.59-5.28,4.75-6.03,4.86-6.02
		c1.61,0.12,1.21,2.68,0.82,3.62l-5.07,7.41c-7.92,10.98-10.46,16.2-11.13,18.09c0.22,0.02,1.41-1.52,2.11-2.33
		c8.91-9.72,16.51-20.83,28.36-27.86c1.33-0.55,2.74-0.56,2.79,1.71c0.94-1.12,1.18-1.43,1.5-1.4c1.29,0.09,0.99,2.77,0.5,3.49
		l-7.49,9.5c-10.8,14.98-11.13,17.98-11.17,18.63c-0.06,0.86,0.35,1.11,0.67,1.13"/>
</g>
<rect x="5.81" y="0.01" class="st27" width="119.18" height="159.19"/>
</svg>
