<svg id="Capa_1" data-name="Capa 1" xmlns="http://www.w3.org/2000/svg" viewBox="0 0 76 77.11"><defs><style>.cls-1{fill:#fff;}</style></defs><title>CFM</title><rect class="cls-1" x="3.06" width="63.6" height="19.21"/><path class="cls-1" d="M12.06,36.87a4.64,4.64,0,0,1-4,2.22,4.69,4.69,0,0,1,0-9.38,4.64,4.64,0,0,1,4,2.22l2.72-2.22a8.14,8.14,0,1,0,0,9.38Z"/><path class="cls-1" d="M15.88,34.4A8.14,8.14,0,1,0,24,26.26,8.15,8.15,0,0,0,15.88,34.4Zm12.67,0A4.53,4.53,0,1,1,24,29.71,4.58,4.58,0,0,1,28.55,34.4Z"/><path class="cls-1" d="M39.08,39.18a3.88,3.88,0,0,1-2.94-2l-2.72,2.22a6.11,6.11,0,0,0,5.72,3.11c3,0,5.07-1.86,5.07-4.73,0-2.2-1.28-3.79-3.47-4.78l-.86-.38c-1.45-.65-2.15-1.1-2.15-1.93A1.15,1.15,0,0,1,39,29.62c.74,0,1.24.21,2,1.19l2.42-2.55a5.26,5.26,0,0,0-4.47-2,4.66,4.66,0,0,0-4.84,4.6c0,2.15,1.32,3.92,3.72,5l.9.4c1.35.61,1.86,1.06,1.86,1.78S40.13,39.18,39.08,39.18Z"/><polygon class="cls-1" points="52.34 42.37 52.34 29.98 56.17 29.98 56.17 26.44 44.93 26.44 44.93 29.98 48.75 29.98 48.75 42.37 52.34 42.37"/><path class="cls-1" d="M59.94,39.9h5.88L67,42.36h3.77l-7.85-16.1L55,42.36H58.8Zm2.94-6.24L64.38,37h-3Z"/><polygon class="cls-1" points="1.75 60.31 5.34 60.31 5.34 54.08 9.83 54.08 9.83 50.62 5.34 50.62 5.34 47.93 11.18 47.93 11.18 44.39 1.75 44.39 1.75 60.31"/><path class="cls-1" d="M53.13,70.62c-1.18,0-1.07,2.2-1.86,2.6a11.31,11.31,0,0,1-6.43,1.86c-3.66,0-7.22-1.64-11-2.43a42.31,42.31,0,0,0,4.45-7.16c.23-.68-.28-1.41-.84-1.24-.85.28-1,1.47-1,1.86,0,2.88-7.62,5.25-9.7,5.25a3.05,3.05,0,0,1-3.27-3.28c0-4.84,5.12-11.56,10.94-14.14a8.14,8.14,0,0,0,7.93,6.55c-1.46,1.21-3,4.52-4.49,7.76a2.89,2.89,0,0,0-.29,1.41c0,.45.12.74.29.74.39,0,.5-.68,1.35-2.09a19.85,19.85,0,0,1,7-7.33c.28-.17.91-.34.91.11A9.5,9.5,0,0,1,46,63.85c-.12.29-.23,1,.28,1,.28,0,1.75-.62,1.75-3.22,0-1.12-.51-1.63-1.19-1.63-1.46,0-3.78,2.26-4.85,3.38.61-.94,1.92-2.37,2-3.06a8.14,8.14,0,1,0-9.68-8c0,.15,0,.3,0,.45A18.1,18.1,0,0,0,30.19,55a8,8,0,0,0,.44-2.6,8.15,8.15,0,1,0-8.15,8.14,8,8,0,0,0,2.37-.35,12.17,12.17,0,0,0-2.68,7.1,4.59,4.59,0,0,0,4.74,5c3.89,0,8.12-3,8.68-3.38a19.43,19.43,0,0,1-2.53,3.66,16.53,16.53,0,0,0-2.88-.28c-1.92,0-5.86.4-5.86,3,0,1.3,1.41,1.92,2.42,1.92,2.65,0,5-2.15,6.6-3.89,3.72.79,7.44,2.42,11.39,2.42,3.61,0,8.8-2.2,8.8-4.51C53.53,70.85,53.42,70.62,53.13,70.62ZM37.46,64.93c.11-.12.33-.06.28.33a3.49,3.49,0,0,1-.51,1C37.12,65.55,37.23,65.15,37.46,64.93ZM38,53l.21,0c1.18,0,3.66.17,3.66,1.58,0,1-1,1.27-1.49,2A4.62,4.62,0,0,1,38,53Zm4.47-5.29A4.69,4.69,0,1,1,41.61,57a8.94,8.94,0,0,0,.87-2.51C42.48,52,39,52,38.64,52c-.23,0-.46,0-.69.05A4.55,4.55,0,0,1,42.45,47.66ZM18,52.35A4.54,4.54,0,1,1,22.48,57,4.58,4.58,0,0,1,18,52.35Zm8.73,24.08a1.52,1.52,0,0,1-1.63-1.3c0-1.91,3.89-2.2,5.24-2.2a14.72,14.72,0,0,1,2.2.17C30.91,74.68,28.88,76.43,26.68,76.43Z"/><path class="cls-1" d="M75.8,67.18a.4.4,0,0,0-.22.06c0,.05-3.5,2.65-4.12,2.54-.34-.06-.51-.06-.51-.79,0-.45.45-1.7,4.46-7.22.62-1.41-.4-1.92-1.81-1.69a9.06,9.06,0,0,0-4.28,2.48c.62-1.13.67-1,.62-1.58a1.34,1.34,0,0,0-.4-.9c-.5-.26-3.43,3.92-5.47,8.22-1,.74-2.32,1.57-2.82,1.48-.17-.06-.45-.06-.45-.51s.17-1.81,5-8.35a1,1,0,0,0,.23-.56c0-.23-.11-.34-.39-.34-2.26,0-5,5.92-5.53,7.67a28.76,28.76,0,0,1-4,2.09.41.41,0,0,1-.45-.46,1,1,0,0,1,.06-.39s.39-1.8,4.9-8a1,1,0,0,0,.23-.56s0,0,0-.06a8,8,0,1,0-.25-15.91H55v15.8a1.37,1.37,0,0,0-1.15-.51c-2.94,0-7.84,5.3-7.67,9.48,0,1.29.84,1.41,1.29,1.41,2.94,0,5.64-3.84,5.76-4,.22-.34.33-.62.67-.62a5.38,5.38,0,0,0,1.89-.36,12.56,12.56,0,0,0-1,3.35v.34A1.26,1.26,0,0,0,56,70.51c.45,0,.84-.11,3.89-2a3,3,0,0,0,0,.73,1.27,1.27,0,0,0,1.24,1.24c.09,0,.61.06,2.47-1.22A15.63,15.63,0,0,0,62,74.91v.34c0,.56.11,1.63,1.36,1.63.11,0,.9,0,.9-.34S64.24,76,64,76s-.17.11-.51.11-.39-.11-.39-.79c.22-2.31,2.65-6.82,4.51-10,.62-1.18,4.28-4.57,6.32-4.57.11.06-.17.57-.46,1-2,3-3.38,5.24-3.38,7.1,0,.85.45,1.64,1.3,1.64.11,0,1.07,0,4.23-2.54,0,0,.39-.45.39-.68C76,67.24,75.92,67.18,75.8,67.18ZM58.61,47.66h2a4.69,4.69,0,0,1,0,9.38h-2ZM48,69.61c-.06,0-.45,0-.45-.85a10.58,10.58,0,0,1,2.88-6.43,1.85,1.85,0,0,0-.06.57,3,3,0,0,0,2.48,2.87C52.12,66.73,49.8,69.55,48,69.61Zm5.25-4.51c-1.36-.4-2.15-1.24-2.15-2.2a2.11,2.11,0,0,1,2-2c.39,0,1.07.22,1.07,1.35A6.9,6.9,0,0,1,53.25,65.1Zm1,.05a6.74,6.74,0,0,0,1.19-3.55,2.61,2.61,0,0,0-.3-1.29h4.39c-1.19.67-2.31,2.39-3.16,4.14A4.38,4.38,0,0,1,54.2,65.15Z"/></svg>