<?xml version="1.0" encoding="utf-8"?>
<!-- Generator: Adobe Illustrator 24.0.3, SVG Export Plug-In . SVG Version: 6.00 Build 0)  -->
<svg version="1.1" id="Capa_1" xmlns="http://www.w3.org/2000/svg" xmlns:xlink="http://www.w3.org/1999/xlink" x="0px" y="0px"
	 viewBox="0 0 996.9 1103.3" style="enable-background:new 0 0 996.9 1103.3;" xml:space="preserve">
<style type="text/css">
	.st0{opacity:0.15;}
	.st1{fill:#212121;}
	.st2{opacity:0.12;}
	.st3{fill:#C42B49;}
</style>
<g>
	<g>
		<g class="st0">
			<g>
				<path class="st1" d="M459.2,4.5c-137.6,32.3-209.2,96.7-308.7,220C-6,418.9-42.5,640.8,50.6,833.4
					c75.7,156.7,230.5,269.9,368.8,269.9h1.9c76.6-0.6,139.5-35.9,180.6-100.3c20.6,34.8,57.8,65.4,114.5,71.9
					c6.1,0.6,12.3,1,18.5,1c76.4,0,155.9-51.7,202.5-133.5c62.6-110,76.8-254.5,37.9-386.3c-36-121.9-114.6-219.7-221.3-275.2
					l-0.5-0.3c-81.4-38.5-150.2-57.8-205.9-57.8c-40.1,0-73.4,10.1-99.6,30.2c-15.3,11.7-17.3,25.9-16.3,35.8
					c4.2,43.1,77.6,90.2,114.9,108.6c199.3,116.8,304.8,326,250.6,498c-11.5,40.8-36.1,68.7-66.1,74.6c-3.9,0.8-7.8,1.2-11.6,1.2
					c-18.7,0-36.4-9.1-49.8-26.1c-11.8-15.1-20.1-26.8-25.8-35.1c46.9-139.8,15.8-239.8-34.2-289.7c-24.5-24.5-54.6-37.7-83-37.7
					c-12.6,0-24.9,2.5-36.2,7.8c-43.2,20.1-64.5,72.8-58.4,144.4v0.1c5.7,63.7,3,147.9-21.7,193.7c-11,20.4-25,30.2-42.6,30.2
					c-0.7,0-1.3,0-2,0c-40.5-1.8-93.9-54.7-121.6-120.1c-74.4-178.1-39.9-319.7-12.7-388.4c69.4-174.8,146.3-256,247.8-330.5
					c5.4-3.9,13.3-8.4,21.6-13.1c29-16.6,65.1-37.1,61.8-71.4c-0.9-9.4-5.7-17.4-14-23.3C536.2,2.9,517.5,0,499.6,0
					C484,0,468.9,2.3,459.2,4.5"/>
			</g>
		</g>
	</g>
</g>
</svg>
