<?xml version="1.0" encoding="utf-8"?>
<!-- Generator: Adobe Illustrator 22.1.0, SVG Export Plug-In . SVG Version: 6.00 Build 0)  -->
<svg version="1.1" id="Capa_1" xmlns="http://www.w3.org/2000/svg" xmlns:xlink="http://www.w3.org/1999/xlink" x="0px" y="0px"
	 viewBox="0 0 100 100" style="enable-background:new 0 0 100 100;" xml:space="preserve">
<style type="text/css">
	.st0{clip-path:url(#SVGID_2_);fill:#881735;}
</style>
<g>
	<defs>
		<rect id="SVGID_1_" x="-0.3" width="100.3" height="100"/>
	</defs>
	<clipPath id="SVGID_2_">
		<use xlink:href="#SVGID_1_"  style="overflow:visible;"/>
	</clipPath>
	<path class="st0" d="M71.6,34.8l-0.9-0.9c-1.6-1.6-2.5-3.7-2.5-5.9c0-2.2,0.9-4.3,2.5-5.9l0.9-0.9l0.9,0.9c3.3,3.3,3.3,8.5,0,11.8
		L71.6,34.8z M28.1,18.2l-0.9-0.9c-1.6-1.6-2.5-3.7-2.5-5.9c0-2.2,0.9-4.3,2.5-5.9l0.9-0.9L29,5.6c3.3,3.3,3.3,8.5,0,11.8L28.1,18.2
		z M19.7,80.1c-4,0-7.4-2.8-8.2-6.6h3.2c4,0,7.4,2.8,8.2,6.6H19.7z M19.7,63.6c-4,0-7.4-2.8-8.2-6.6h3.2c4,0,7.4,2.8,8.2,6.6H19.7z
		 M19.7,47c-4,0-7.4-2.8-8.2-6.6h3.2c4,0,7.4,2.8,8.2,6.6H19.7z M19.7,30.5c-4,0-7.4-2.8-8.2-6.6h3.2c4,0,7.4,2.8,8.2,6.6H19.7z
		 M41.5,23.9h3.2c-0.8,3.9-4.2,6.6-8.2,6.6h-3.2C34.1,26.6,37.5,23.9,41.5,23.9 M41.5,40.4h3.2c-0.8,3.9-4.2,6.6-8.2,6.6h-3.2
		C34.1,43.2,37.5,40.4,41.5,40.4 M41.5,57h3.2c-0.8,3.9-4.2,6.6-8.2,6.6h-3.2C34.1,59.7,37.5,57,41.5,57 M41.5,73.5h3.2
		c-0.8,3.9-4.2,6.6-8.2,6.6h-3.2C34.1,76.3,37.5,73.5,41.5,73.5 M63.2,80.1c-4,0-7.4-2.8-8.2-6.6h3.2c4,0,7.4,2.8,8.2,6.6H63.2z
		 M63.2,63.6c-4,0-7.4-2.8-8.2-6.6h3.2c4,0,7.4,2.8,8.2,6.6H63.2z M63.2,47c-4,0-7.4-2.8-8.2-6.6h3.2c4,0,7.4,2.8,8.2,6.6H63.2z
		 M85,40.4h3.2c-0.8,3.9-4.2,6.6-8.2,6.6h-3.2C77.6,43.2,81,40.4,85,40.4 M85,57h3.2c-0.8,3.9-4.2,6.6-8.2,6.6h-3.2
		C77.6,59.7,81,57,85,57 M85,73.5h3.2c-0.8,3.9-4.2,6.6-8.2,6.6h-3.2C77.6,76.3,81,73.5,85,73.5 M73.2,96.7V83.4h6.7
		c6.5,0,11.7-5.2,11.7-11.6v-1.7H85c-6.5,0-11.7,5.2-11.7,11.6V66.9h6.7c6.5,0,11.7-5.2,11.7-11.6v-1.7H85
		c-6.5,0-11.7,5.2-11.7,11.6V50.3h6.7c6.5,0,11.7-5.2,11.7-11.6v-1.7H85c-6.5,0-11.7,5.2-11.7,11.6V37.8l1.6-1.6
		c4.6-4.5,4.6-11.9,0-16.5l-3.2-3.2l-3.2,3.2c-4.6,4.5-4.6,11.9,0,16.5l1.6,1.6v10.9c0-6.4-5.2-11.6-11.7-11.6h-6.7v1.7
		c0,6.4,5.2,11.6,11.7,11.6h6.7v14.9c0-6.4-5.2-11.6-11.7-11.6h-6.7v1.7c0,6.4,5.2,11.6,11.7,11.6h6.7v14.9
		c0-6.4-5.2-11.6-11.7-11.6h-6.7v1.7c0,6.4,5.2,11.6,11.7,11.6h6.7v13.2H29.8V83.4h6.7c6.5,0,11.7-5.2,11.7-11.6v-1.7h-6.7
		c-6.5,0-11.7,5.2-11.7,11.6V66.9h6.7c6.5,0,11.7-5.2,11.7-11.6v-1.7h-6.7c-6.5,0-11.7,5.2-11.7,11.6V50.3h6.7
		c6.5,0,11.7-5.2,11.7-11.6v-1.7h-6.7c-6.5,0-11.7,5.2-11.7,11.6V33.8h6.7c6.5,0,11.7-5.2,11.7-11.6v-1.7h-6.7
		c-6.5,0-11.7,5.2-11.7,11.6V21.2l1.6-1.6c4.6-4.5,4.6-11.9,0-16.5L28.1,0l-3.2,3.2c-4.6,4.5-4.6,11.9,0,16.5l1.6,1.6v10.9
		c0-6.4-5.2-11.6-11.7-11.6H8v1.7c0,6.4,5.2,11.6,11.7,11.6h6.7v14.9c0-6.4-5.2-11.6-11.7-11.6H8v1.7c0,6.4,5.2,11.6,11.7,11.6h6.7
		v14.9c0-6.4-5.2-11.6-11.7-11.6H8v1.7c0,6.4,5.2,11.6,11.7,11.6h6.7v14.9c0-6.4-5.2-11.6-11.7-11.6H8v1.7c0,6.4,5.2,11.6,11.7,11.6
		h6.7v13.2H-0.3v3.3H100v-3.3H73.2z"/>
</g>
</svg>
