<?xml version="1.0" encoding="utf-8"?>
<!-- Generator: Adobe Illustrator 22.1.0, SVG Export Plug-In . SVG Version: 6.00 Build 0)  -->
<svg version="1.1" id="Capa_1" xmlns="http://www.w3.org/2000/svg" xmlns:xlink="http://www.w3.org/1999/xlink" x="0px" y="0px"
	 viewBox="0 0 64 64" style="enable-background:new 0 0 64 64;" xml:space="preserve">
<style type="text/css">
	.st0{fill:#891735;}
	.st1{clip-path:url(#SVGID_2_);fill:#881735;}
	.st2{clip-path:url(#SVGID_2_);fill:none;stroke:#FFFFFF;stroke-width:0.75;}
	.st3{fill:#891735;stroke:#FFFFFF;stroke-miterlimit:10;}
	.st4{fill:#881735;}
</style>
<g>
	<g>
		<path class="st4" d="M11.7,17.8c3.4,0,6.2,2.5,6.7,5.8H5C5.4,20.4,8.2,17.8,11.7,17.8 M27.7,44.4h-7.5V35H32L27.7,44.4z
			 M20.2,46.2h6.6l-0.4,0.9c-0.2,0.5,0,1,0.4,1.2c0.1,0.1,0.2,0.1,0.4,0.1h0.1v8.8h-7.1V46.2z M41,27.5l-7.9,5.7H20.2v-5.7H41z
			 M61.4,47.1l-1-2.2l-5.2-11.2c-0.1-0.1-0.2-0.2-0.3-0.4l-10.5-7.6c-0.1,0-0.1-0.1-0.1-0.1c-0.1,0-0.1-0.1-0.1-0.1
			c-0.1-0.1-0.2-0.1-0.3-0.1H20.2v-1c0-4.7-3.9-8.6-8.6-8.6C6.9,16,3,19.9,3,24.6v33.5C3.1,58.6,3.5,59,4,59c0.5,0,0.9-0.4,0.9-0.9
			V25.5h13.5v32.6c0,0.5,0.4,0.9,0.9,0.9h9c0.5,0,0.9-0.4,0.9-0.9V45.5l5-10.9l9.7-7l9.7,7l5,10.9v12.5c0,0.5,0.4,0.9,0.9,0.9
			s0.9-0.4,0.9-0.9v-9.6h0.1c0.1,0,0.2,0,0.4-0.1C61.4,48.1,61.5,47.6,61.4,47.1"/>
	</g>
	<g>
		<path class="st4" d="M45.2,51.9l4-4v7.9L45.2,51.9z M43.9,53.2l4,4h-8L43.9,53.2z M39.9,46.6h7.9l-3.9,4L39.9,46.6z M42.6,51.9
			l-4,4v-7.9L42.6,51.9z M50.4,44.9c-0.1-0.1-0.2-0.1-0.4-0.1H37.7c-0.1,0-0.2,0-0.4,0.1c-0.2,0.1-0.4,0.2-0.5,0.5
			c-0.1,0.1-0.1,0.2-0.1,0.4v12.3c0,0.1,0,0.2,0.1,0.4c0.1,0.2,0.2,0.4,0.5,0.5c0.1,0.1,0.2,0.1,0.4,0.1h12.3c0.1,0,0.2,0,0.4-0.1
			c0.2-0.1,0.4-0.2,0.5-0.5c0.1-0.1,0.1-0.2,0.1-0.4V45.7c0-0.1,0-0.2-0.1-0.4C50.9,45.1,50.7,44.9,50.4,44.9"/>
	</g>
	<g>
		<path class="st4" d="M41.9,36.6h4v4h-4V36.6z M46.8,42.5c0.5,0,0.9-0.4,0.9-0.9v-5.8c0-0.5-0.4-0.9-0.9-0.9H41
			c-0.5,0-0.9,0.4-0.9,0.9v5.8c0,0.5,0.4,0.9,0.9,0.9H46.8z"/>
	</g>
</g>
</svg>
