<?xml version="1.0" encoding="utf-8"?>
<!-- Generator: Adobe Illustrator 22.1.0, SVG Export Plug-In . SVG Version: 6.00 Build 0)  -->
<svg version="1.1" id="Capa_1" xmlns="http://www.w3.org/2000/svg" xmlns:xlink="http://www.w3.org/1999/xlink" x="0px" y="0px"
	 viewBox="0 0 126 68" style="enable-background:new 0 0 126 68;" xml:space="preserve">
<style type="text/css">
	.st0{fill:#880F33;}
	.st1{fill:#334253;}
</style>
<g>
	<g>
		<path class="st0" d="M16.9,62.5c0,2.4-0.5,2.9-5.5,2.9c-5.4,0-5.3-1.1-5.3-4.6c0-3.6,0-4.6,5.3-4.6c4.3,0,5.5,0.4,5.5,2.5H23
			c0-4.4-4-5-11.6-5C1.4,53.7,0,56,0,60.9C0,66.5,2,68,11.4,68C20,68,23,67.1,23,62.5H16.9z"/>
		<path class="st0" d="M43.6,56.3l-9.4,1.8c-1.2,0.2-2,1.5-1.7,2.8l1.1,4.6l4.8-1l4.6-0.9c1.2-0.2,2-1.5,1.7-2.8l-0.6-2.4L43.6,56.3
			z M38.6,53.7c10.6,0,12,1.7,12,7.1c0,5.4-1.4,7.1-12,7.1s-12-1.7-12-7.1C26.6,55.5,28,53.7,38.6,53.7"/>
		<path class="st0" d="M77.3,57.7c0-3.9-6-4-11-4c-6.5,0-11.6,0.1-11.6,3.9c0,3.6,1.7,4.2,11.1,4.3c6.2,0.1,6.3,0.7,6.3,1.9
			c0,1.9-2.1,1.9-5.8,1.9c-4.5,0-5.4-0.2-5.5-2.3h-6.1c0,4.5,4.7,4.5,11.6,4.5c6.5,0,11.9-0.4,11.9-4.1c0-4.5-5.3-4.3-11.3-4.4
			c-5.3-0.1-6-0.2-6-1.6c0-1.8,2.2-1.8,5.5-1.8c3.3,0,4.9,0,4.9,1.7H77.3z"/>
		<path class="st0" d="M79.6,56.5h3.2v7.2c0,3.5,2,4.4,8.7,4.4c6.6,0,8.5-1.3,8.4-5.5h-5.4c0,1.5,0.4,2.9-3.1,2.9
			c-2.6,0-2.6-0.6-2.6-1.9v-7.1h9.7v-2.5H89v-5.3h-6.1v5.3h-3.2V56.5z"/>
		<path class="st0" d="M114.1,61.6c3,0,5.6,0.1,5.6,2c0,2-2.4,2.1-5.6,2.1c-4.1,0-5.6-0.2-5.6-2.1C108.5,61.6,111,61.6,114.1,61.6
			 M119.8,67.8h6.1v-8.7c0-4.7-3.4-5.4-11.5-5.4c-5.8,0-10.9,0.2-10.9,4.2h6.1c0-1.8,2.1-1.9,4.8-1.9c5.1,0,5.4,0.8,5.4,3.1v1.8
			h-0.2c-1.5-1.6-4.5-1.6-7.6-1.6c-6.3,0-9.5,0.9-9.5,4.3c0,3.8,3.7,4.4,9.5,4.4c3,0,6.7-0.1,7.9-1.9h0.1L119.8,67.8z"/>
		<path class="st1" d="M1.3,50.6h1.4V49h1.8c1.9,0,2.6-0.2,2.6-1.6c0-1.3-0.6-1.7-2.6-1.7H1.3V50.6z M2.7,48.3v-1.7h1.8
			c1,0,1.2,0.2,1.2,0.9c0,0.7-0.2,0.8-1.2,0.8H2.7z"/>
	</g>
	<rect x="13.6" y="45.8" class="st1" width="1.4" height="4.8"/>
	<polygon class="st1" points="23.1,46.6 26.7,46.6 26.7,45.8 21.8,45.8 21.8,50.6 26.7,50.6 26.7,49.8 23.1,49.8 23.1,48.5 
		26.5,48.5 26.5,47.8 23.1,47.8 	"/>
	<polygon class="st1" points="38.8,49.8 38.7,49.8 35.7,45.8 33.4,45.8 33.4,50.6 34.8,50.6 34.7,46.6 34.7,46.6 37.8,50.6 40,50.6 
		40,45.8 38.7,45.8 	"/>
	<g>
		<path class="st1" d="M46.6,49.1v0.2c0,1.4,1.4,1.3,3,1.3c1.8,0,2.8-0.1,2.8-1.5c0-1.2-0.6-1.3-2.8-1.4c-1.4-0.1-1.6-0.1-1.6-0.7
			c0-0.5,0.2-0.6,1.6-0.6c1,0,1.3,0,1.3,0.5v0.2h1.4v-0.2c0-1.3-1.2-1.3-2.7-1.3c-1.7,0-3,0-3,1.4c0,1.4,1.2,1.4,2.8,1.4
			c1.1,0,1.6-0.1,1.6,0.6c0,0.6-0.2,0.7-1.4,0.7c-1.3,0-1.6,0-1.6-0.6v-0.2H46.6z"/>
		<path class="st1" d="M61.7,45.8c-2.3,0-3,0.3-3,1.8v1.3c0,1.6,0.8,1.8,3,1.8c2.2,0,3.1-0.3,3.1-1.8v-1.3
			C64.8,46,63.8,45.8,61.7,45.8 M61.7,46.5c1.2,0,1.7,0.1,1.7,1v1.3c0,0.9-0.4,1-1.7,1c-1.4,0-1.7-0.1-1.7-1v-1.3
			C60.1,46.7,60.3,46.5,61.7,46.5"/>
		<path class="st1" d="M71.1,49.1v0.2c0,1.4,1.4,1.3,3,1.3c1.8,0,2.8-0.1,2.8-1.5c0-1.2-0.6-1.3-2.8-1.4c-1.4-0.1-1.6-0.1-1.6-0.7
			c0-0.5,0.2-0.6,1.6-0.6c1,0,1.3,0,1.3,0.5v0.2h1.4v-0.2c0-1.3-1.2-1.3-2.7-1.3c-1.7,0-3,0-3,1.4c0,1.4,1.2,1.4,2.8,1.4
			c1.1,0,1.6-0.1,1.6,0.6c0,0.6-0.2,0.7-1.4,0.7c-1.3,0-1.6,0-1.6-0.6v-0.2H71.1z"/>
		<path class="st1" d="M32.5,26.8C29.3,17.3,45.7,6,69,1.7c8.8-1.6,17.3-2.1,24.7-1.4l-9.2,9.1c-0.9,0.1-1.8,0.1-2.9,0.2l-25.4,2.7
			L44.7,31.5L60,29.9l2-3.4l10-1c0.8-0.1,1.6-0.2,2.4-0.3L90.1,34c-3,0.9-6.2,1.6-9.5,2.2C57.2,40.6,35.7,36.3,32.5,26.8"/>
		<path class="st0" d="M73.4,13.9l-9.4,1.8c-1.2,0.2-2,1.5-1.7,2.8l0.6,2.4l0.5,2.2l4.8-1l4.6-0.9c1.2-0.2,2-1.5,1.7-2.8l-0.6-2.4
			L73.4,13.9z"/>
	</g>
</g>
</svg>
