<?xml version="1.0" encoding="utf-8"?>
<!-- Generator: Adobe Illustrator 22.1.0, SVG Export Plug-In . SVG Version: 6.00 Build 0)  -->
<svg version="1.1" id="Capa_1" xmlns="http://www.w3.org/2000/svg" xmlns:xlink="http://www.w3.org/1999/xlink" x="0px" y="0px"
	 viewBox="0 0 100 100" style="enable-background:new 0 0 100 100;" xml:space="preserve">
<style type="text/css">
	.st0{clip-path:url(#SVGID_2_);fill:#881735;}
	.st1{clip-path:url(#SVGID_2_);fill:none;stroke:#FFFFFF;stroke-width:0.75;}
	.st2{fill:#881735;}
	.st3{fill:none;stroke:#FFFFFF;stroke-width:0.75;}
	.st4{clip-path:url(#SVGID_4_);fill:none;stroke:#FFFFFF;stroke-width:0.75;}
	.st5{clip-path:url(#SVGID_6_);fill:#881735;}
	.st6{clip-path:url(#SVGID_6_);fill:none;stroke:#FFFFFF;stroke-width:0.75;}
	.st7{clip-path:url(#SVGID_8_);fill:#881735;}
	.st8{clip-path:url(#SVGID_8_);fill:none;stroke:#FFFFFF;stroke-width:0.75;}
	.st9{clip-path:url(#SVGID_10_);fill:#881735;stroke:#FFFFFF;stroke-width:0.75;stroke-miterlimit:10;}
	.st10{clip-path:url(#SVGID_10_);fill:none;stroke:#FFFFFF;stroke-width:0.75;}
	.st11{clip-path:url(#SVGID_12_);fill:#881735;}
	.st12{clip-path:url(#SVGID_12_);fill:none;stroke:#FFFFFF;stroke-width:0.5;}
	.st13{clip-path:url(#SVGID_14_);fill:#881735;stroke:#FFFFFF;stroke-width:0.5;stroke-miterlimit:10;}
	.st14{clip-path:url(#SVGID_14_);fill:none;stroke:#FFFFFF;stroke-width:0.5;stroke-miterlimit:10;}
	.st15{clip-path:url(#SVGID_16_);fill:#881735;}
	.st16{clip-path:url(#SVGID_16_);fill:none;stroke:#FFFFFF;stroke-width:0.75;}
	.st17{clip-path:url(#SVGID_18_);fill:#881735;}
	.st18{clip-path:url(#SVGID_18_);fill:none;stroke:#FFFFFF;stroke-width:0.75;}
	.st19{clip-path:url(#SVGID_20_);fill:none;stroke:#FFFFFF;stroke-width:0.75;}
	.st20{clip-path:url(#SVGID_20_);fill:#881735;}
	.st21{clip-path:url(#SVGID_22_);fill:#881735;}
	.st22{clip-path:url(#SVGID_22_);fill:none;stroke:#FFFFFF;stroke-width:0.75;}
</style>
<g>
	<defs>
		<rect id="SVGID_5_" x="5" y="45.1" width="92" height="50.9"/>
	</defs>
	<clipPath id="SVGID_2_">
		<use xlink:href="#SVGID_5_"  style="overflow:visible;"/>
	</clipPath>
	<path class="st0" d="M93.6,67.5l-3.2,2.6c-0.3,0.2-0.4,0.5-0.5,0.8L88.3,77c-0.1,0.2-0.1,0.4,0,0.7l1.5,7.3l-1.3,7.6h-1.8v-6.1
		c0-0.6-0.3-1.1-0.8-1.4l-8.6-4.3l-4.4-10.2l-2.8,1.2l1.8,4.3l-11.1,1.2l-19.6-3l-0.5,3l2.2,0.3l-0.3,2l-4.2,4.2
		C38.2,84.2,38,84.6,38,85v7.6h-1.8l-2.8-17c-0.1-0.6-0.5-1-1-1.2l-8.9-3L8.4,59.9v-4.1l5.6-1.3c0.1,0,0.2-0.1,0.3-0.1L25.1,49
		l1.3,2.6l-1.5,4.6l-1.5-3.8l-2.8,1.1l3,7.6c0.2,0.6,0.8,1,1.4,1h0c0.6,0,1.2-0.4,1.4-1l3-9.1c0.1-0.4,0.1-0.8-0.1-1.2l-1.2-2.4
		h59.4l6,6.7V67.5z M96.3,53.5l-6.9-7.6c-0.3-0.3-0.7-0.5-1.1-0.5H25.8c-0.2,0-0.5,0.1-0.7,0.2l-12,6L6.5,53
		c-0.7,0.2-1.2,0.8-1.2,1.5v6.1c0,0.5,0.2,0.9,0.6,1.2L21.8,74c0.1,0.1,0.3,0.2,0.4,0.2l8.3,2.8l2.9,17.4c0.1,0.7,0.8,1.3,1.5,1.3
		h4.6c0.8,0,1.5-0.7,1.5-1.5v-8.5l4.1-4.1c0.2-0.2,0.4-0.5,0.4-0.8l0.4-2.5l14.6,2.2c0.1,0,0.2,0,0.2,0c0.1,0,0.1,0,0.2,0l12.2-1.4
		l1.5,3.5c0.1,0.3,0.4,0.6,0.7,0.8l8.3,4.2v6.7c0,0.8,0.7,1.5,1.5,1.5h4.6c0.7,0,1.4-0.5,1.5-1.3l1.5-9.1c0-0.2,0-0.4,0-0.6
		l-1.5-7.3l1.3-5.3l3.4-2.7c0.4-0.3,0.6-0.7,0.6-1.2V54.5C96.7,54.2,96.5,53.8,96.3,53.5"/>
	<path class="st1" d="M93.6,67.5l-3.2,2.6c-0.3,0.2-0.4,0.5-0.5,0.8L88.3,77c-0.1,0.2-0.1,0.4,0,0.7l1.5,7.3l-1.3,7.6h-1.8v-6.1
		c0-0.6-0.3-1.1-0.8-1.4l-8.6-4.3l-4.4-10.2l-2.8,1.2l1.8,4.3l-11.1,1.2l-19.6-3l-0.5,3l2.2,0.3l-0.3,2l-4.2,4.2
		C38.2,84.2,38,84.6,38,85v7.6h-1.8l-2.8-17c-0.1-0.6-0.5-1-1-1.2l-8.9-3L8.4,59.9v-4.1l5.6-1.3c0.1,0,0.2-0.1,0.3-0.1L25.1,49
		l1.3,2.6l-1.5,4.6l-1.5-3.8l-2.8,1.1l3,7.6c0.2,0.6,0.8,1,1.4,1h0c0.6,0,1.2-0.4,1.4-1l3-9.1c0.1-0.4,0.1-0.8-0.1-1.2l-1.2-2.4
		h59.4l6,6.7V67.5z M96.3,53.5l-6.9-7.6c-0.3-0.3-0.7-0.5-1.1-0.5H25.8c-0.2,0-0.5,0.1-0.7,0.2l-12,6L6.5,53
		c-0.7,0.2-1.2,0.8-1.2,1.5v6.1c0,0.5,0.2,0.9,0.6,1.2L21.8,74c0.1,0.1,0.3,0.2,0.4,0.2l8.3,2.8l2.9,17.4c0.1,0.7,0.8,1.3,1.5,1.3
		h4.6c0.8,0,1.5-0.7,1.5-1.5v-8.5l4.1-4.1c0.2-0.2,0.4-0.5,0.4-0.8l0.4-2.5l14.6,2.2c0.1,0,0.2,0,0.2,0c0.1,0,0.1,0,0.2,0l12.2-1.4
		l1.5,3.5c0.1,0.3,0.4,0.6,0.7,0.8l8.3,4.2v6.7c0,0.8,0.7,1.5,1.5,1.5h4.6c0.7,0,1.4-0.5,1.5-1.3l1.5-9.1c0-0.2,0-0.4,0-0.6
		l-1.5-7.3l1.3-5.3l3.4-2.7c0.4-0.3,0.6-0.7,0.6-1.2V54.5C96.7,54.2,96.5,53.8,96.3,53.5z"/>
	<path class="st0" d="M89.1,57.6h-1.5v-3c0-0.8-0.7-1.5-1.5-1.5h-3v3h1.5v3c0,0.8,0.7,1.5,1.5,1.5h1.5v4.6h3v-6.1
		C90.6,58.3,89.9,57.6,89.1,57.6"/>
	<path class="st1" d="M89.1,57.6h-1.5v-3c0-0.8-0.7-1.5-1.5-1.5h-3v3h1.5v3c0,0.8,0.7,1.5,1.5,1.5h1.5v4.6h3v-6.1
		C90.6,58.3,89.9,57.6,89.1,57.6z"/>
</g>
</svg>
